SplineFontDB: 3.0
FontName: Merriweather
FullName: Merriweather
FamilyName: Merriweather
Weight: Light
Copyright: Copyright (c) 2011, Sorkin Type Co (www.sorkintype.com)\nwith Reserved Font Name "Merriweather".\n\nThis Font Software is licensed under the SIL Open Font License,\nVersion 1.1. This license is available with a FAQ at:\nhttp://scripts.sil.org/OFL
Version: 1.003
ItalicAngle: 0
UnderlinePosition: -120
UnderlineWidth: 147
Ascent: 1638
Descent: 410
LayerCount: 2
Layer: 0 1 "Back"  1
Layer: 1 1 "Fore"  0
XUID: [1021 631 1661839179 10271263]
FSType: 0
OS2Version: 3
OS2_WeightWidthSlopeOnly: 0
OS2_UseTypoMetrics: 1
CreationTime: 1311980400
ModificationTime: 1311968883
PfmFamily: 17
TTFWeight: 250
TTFWidth: 5
LineGap: 0
VLineGap: 0
Panose: 2 6 5 3 5 4 6 3 7 4
OS2TypoAscent: 282
OS2TypoAOffset: 1
OS2TypoDescent: -230
OS2TypoDOffset: 1
OS2TypoLinegap: 0
OS2WinAscent: 0
OS2WinAOffset: 1
OS2WinDescent: 0
OS2WinDOffset: 1
HheadAscent: 0
HheadAOffset: 1
HheadDescent: 0
HheadDOffset: 1
OS2SubXSize: 2937
OS2SubYSize: 2726
OS2SubXOff: 0
OS2SubYOff: 588
OS2SupXSize: 2937
OS2SupYSize: 2726
OS2SupXOff: 0
OS2SupYOff: 2001
OS2StrikeYSize: 147
OS2StrikeYPos: 800
OS2FamilyClass: 768
OS2Vendor: 'STC '
OS2CodePages: 00000001.00000000
OS2UnicodeRanges: 800000a7.50000000.00000000.00000000
Lookup: 4 0 0 "'dlig' Discretionary Ligatures in Latin lookup 0"  {"'dlig' Discretionary Ligatures in Latin lookup 0 subtable"  } ['dlig' ('latn' <'dflt' > ) ]
Lookup: 258 0 0 "'kern' Horizontal Kerning in Latin lookup 0"  {"'kern' Horizontal Kerning in Latin lookup 0 subtable"  } ['kern' ('latn' <'dflt' > ) ]
DEI: 91125
TtTable: prep
PUSHW_1
 511
SCANCTRL
PUSHB_1
 4
SCANTYPE
EndTTInstrs
ShortTable: maxp 16
  1
  0
  345
  133
  7
  0
  0
  1
  0
  0
  0
  0
  0
  0
  0
  0
EndShort

StartChar: .notdef
Encoding: 65536 -1 0
Width: 1770
Flags: W
LayerCount: 2
Fore
SplineSet
177 1416 m 1,0,-1
 1593 1416 l 1,1,-1
 1593 0 l 1,2,-1
 177 0 l 1,3,-1
 177 1416 l 1,0,-1
559 252 m 1,4,-1
 883 605 l 1,5,-1
 1220 252 l 1,6,-1
 1333 365 l 1,7,-1
 985 708 l 1,8,-1
 1333 1042 l 1,9,-1
 1214 1158 l 1,10,-1
 886 807 l 1,11,-1
 553 1159 l 1,12,-1
 439 1043 l 1,13,-1
 783 705 l 1,14,-1
 440 387 l 1,15,-1
 559 252 l 1,4,-1
EndSplineSet
EndChar

StartChar: numbersign
Encoding: 35 35 4
Width: 1431
Flags: W
LayerCount: 2
Fore
SplineSet
371 365 m 1,0,-1
 150 365 l 1,1,-1
 150 493 l 1,2,-1
 376 493 l 1,3,-1
 409 898 l 1,4,-1
 172 898 l 1,5,-1
 172 1025 l 1,6,-1
 416 1025 l 1,7,-1
 443 1355 l 1,8,-1
 608 1355 l 1,9,-1
 583 1025 l 1,10,-1
 897 1025 l 1,11,-1
 924 1355 l 1,12,-1
 1089 1355 l 1,13,-1
 1064 1025 l 1,14,-1
 1281 1025 l 1,15,-1
 1281 898 l 1,16,-1
 1057 898 l 1,17,-1
 1023 493 l 1,18,-1
 1246 493 l 1,19,20
 1246 461 1246 461 1246.5 429 c 128,-1,21
 1247 397 1247 397 1247 365 c 1,22,-1
 1018 365 l 1,23,-1
 988 0 l 1,24,-1
 828 0 l 1,25,-1
 852 365 l 1,26,-1
 537 365 l 1,27,-1
 505 0 l 1,28,-1
 343 0 l 1,29,-1
 371 365 l 1,0,-1
857 493 m 1,30,-1
 890 898 l 1,31,-1
 576 898 l 1,32,-1
 542 493 l 1,33,-1
 857 493 l 1,30,-1
EndSplineSet
EndChar

StartChar: ampersand
Encoding: 38 38 5
Width: 1569
Flags: W
LayerCount: 2
Fore
SplineSet
187 368 m 0,0,1
 187 439 187 439 210.5 498 c 128,-1,2
 234 557 234 557 276 606.5 c 128,-1,3
 318 656 318 656 376.5 697.5 c 128,-1,4
 435 739 435 739 505 776 c 1,5,6
 474 820 474 820 442.5 867 c 128,-1,7
 411 914 411 914 386 964 c 128,-1,8
 361 1014 361 1014 345 1068 c 128,-1,9
 329 1122 329 1122 329 1180 c 0,10,11
 329 1272 329 1272 358.5 1343.5 c 128,-1,12
 388 1415 388 1415 440 1464 c 128,-1,13
 492 1513 492 1513 562 1538.5 c 128,-1,14
 632 1564 632 1564 712 1564 c 0,15,16
 802 1564 802 1564 866 1536.5 c 128,-1,17
 930 1509 930 1509 971.5 1462.5 c 128,-1,18
 1013 1416 1013 1416 1032.5 1356 c 128,-1,19
 1052 1296 1052 1296 1052 1231 c 0,20,21
 1052 1156 1052 1156 1022.5 1089 c 128,-1,22
 993 1022 993 1022 946 965 c 128,-1,23
 899 908 899 908 841 861.5 c 128,-1,24
 783 815 783 815 727 779 c 1,25,26
 750 749 750 749 783 709 c 128,-1,27
 816 669 816 669 853.5 624.5 c 128,-1,28
 891 580 891 580 931 534 c 128,-1,29
 971 488 971 488 1009.5 445 c 128,-1,30
 1048 402 1048 402 1082.5 365 c 128,-1,31
 1117 328 1117 328 1144 303 c 1,32,33
 1154 328 1154 328 1159 354.5 c 128,-1,34
 1164 381 1164 381 1166.5 406.5 c 128,-1,35
 1169 432 1169 432 1169 455.5 c 128,-1,36
 1169 479 1169 479 1169 499 c 0,37,38
 1169 551 1169 551 1164.5 592.5 c 128,-1,39
 1160 634 1160 634 1154 664.5 c 128,-1,40
 1148 695 1148 695 1141.5 713.5 c 128,-1,41
 1135 732 1135 732 1131 738 c 1,42,-1
 1316 738 l 1,43,44
 1327 700 1327 700 1336 652 c 128,-1,45
 1345 604 1345 604 1345 543 c 0,46,47
 1345 505 1345 505 1340.5 462.5 c 128,-1,48
 1336 420 1336 420 1325.5 376.5 c 128,-1,49
 1315 333 1315 333 1297.5 290.5 c 128,-1,50
 1280 248 1280 248 1253 210 c 1,51,52
 1313 165 1313 165 1369 137 c 128,-1,53
 1425 109 1425 109 1479 101 c 1,54,-1
 1479 16 l 1,55,56
 1415 -4 1415 -4 1336 10 c 0,57,58
 1288 18 1288 18 1237.5 38 c 128,-1,59
 1187 58 1187 58 1133 93 c 1,60,61
 1096 61 1096 61 1048.5 38 c 128,-1,62
 1001 15 1001 15 950 -1 c 128,-1,63
 899 -17 899 -17 846.5 -24.5 c 128,-1,64
 794 -32 794 -32 746 -32 c 0,65,66
 693 -32 693 -32 631.5 -25.5 c 128,-1,67
 570 -19 570 -19 508 -2 c 128,-1,68
 446 15 446 15 388 43.5 c 128,-1,69
 330 72 330 72 285.5 116.5 c 128,-1,70
 241 161 241 161 214 223 c 128,-1,71
 187 285 187 285 187 368 c 0,0,1
664 857 m 1,72,73
 713 883 713 883 754 917 c 128,-1,74
 795 951 795 951 825 993.5 c 128,-1,75
 855 1036 855 1036 871.5 1087.5 c 128,-1,76
 888 1139 888 1139 888 1201 c 0,77,78
 888 1240 888 1240 880 1286 c 128,-1,79
 872 1332 872 1332 850 1371.5 c 128,-1,80
 828 1411 828 1411 789.5 1438 c 128,-1,81
 751 1465 751 1465 691 1465 c 0,82,83
 661 1465 661 1465 627 1454 c 128,-1,84
 593 1443 593 1443 564.5 1417.5 c 128,-1,85
 536 1392 536 1392 517 1350 c 128,-1,86
 498 1308 498 1308 498 1245 c 0,87,88
 498 1175 498 1175 514.5 1116.5 c 128,-1,89
 531 1058 531 1058 556 1010 c 128,-1,90
 581 962 581 962 610 924 c 128,-1,91
 639 886 639 886 664 857 c 1,72,73
369 394 m 0,92,93
 369 320 369 320 400 263 c 128,-1,94
 431 206 431 206 483.5 167 c 128,-1,95
 536 128 536 128 606 107.5 c 128,-1,96
 676 87 676 87 755 87 c 0,97,98
 798 87 798 87 839 90.5 c 128,-1,99
 880 94 880 94 916 102.5 c 128,-1,100
 952 111 952 111 983.5 126 c 128,-1,101
 1015 141 1015 141 1040 164 c 1,102,103
 1005 194 1005 194 963 235 c 128,-1,104
 921 276 921 276 876.5 322.5 c 128,-1,105
 832 369 832 369 787 419 c 128,-1,106
 742 469 742 469 700.5 518 c 128,-1,107
 659 567 659 567 623.5 611.5 c 128,-1,108
 588 656 588 656 562 693 c 1,109,110
 514 661 514 661 477.5 631 c 128,-1,111
 441 601 441 601 417 566.5 c 128,-1,112
 393 532 393 532 381 490.5 c 128,-1,113
 369 449 369 449 369 394 c 0,92,93
EndSplineSet
EndChar

StartChar: quotesingle
Encoding: 39 39 6
Width: 820
Flags: W
LayerCount: 2
Fore
SplineSet
297 1782 m 1,0,-1
 523 1782 l 1,1,-1
 474 966 l 1,2,-1
 346 966 l 1,3,-1
 297 1782 l 1,0,-1
EndSplineSet
EndChar

StartChar: parenleft
Encoding: 40 40 7
Width: 813
Flags: W
LayerCount: 2
Fore
SplineSet
597 -320 m 1,0,1
 574 -306 574 -306 529 -269.5 c 128,-1,2
 484 -233 484 -233 430.5 -172.5 c 128,-1,3
 377 -112 377 -112 321 -26.5 c 128,-1,4
 265 59 265 59 219 170.5 c 128,-1,5
 173 282 173 282 144 420.5 c 128,-1,6
 115 559 115 559 115 725 c 0,7,8
 115 870 115 870 144 998 c 128,-1,9
 173 1126 173 1126 219 1234.5 c 128,-1,10
 265 1343 265 1343 321 1430.5 c 128,-1,11
 377 1518 377 1518 430.5 1582 c 128,-1,12
 484 1646 484 1646 529 1685.5 c 128,-1,13
 574 1725 574 1725 597 1738 c 1,14,-1
 685 1686 l 1,15,16
 664 1672 664 1672 628.5 1636.5 c 128,-1,17
 593 1601 593 1601 551.5 1544.5 c 128,-1,18
 510 1488 510 1488 466.5 1411 c 128,-1,19
 423 1334 423 1334 387.5 1237 c 128,-1,20
 352 1140 352 1140 327.5 1024 c 128,-1,21
 303 908 303 908 299 774 c 0,22,23
 294 625 294 625 315 495.5 c 128,-1,24
 336 366 336 366 372.5 257.5 c 128,-1,25
 409 149 409 149 455 61.5 c 128,-1,26
 501 -26 501 -26 546.5 -91 c 128,-1,27
 592 -156 592 -156 632.5 -198 c 128,-1,28
 673 -240 673 -240 698 -258 c 1,29,-1
 597 -320 l 1,0,1
EndSplineSet
EndChar

StartChar: parenright
Encoding: 41 41 8
Width: 813
Flags: W
LayerCount: 2
Fore
SplineSet
128 -257 m 1,0,1
 149 -243 149 -243 184.5 -207.5 c 128,-1,2
 220 -172 220 -172 261.5 -115.5 c 128,-1,3
 303 -59 303 -59 346.5 18 c 128,-1,4
 390 95 390 95 425.5 192 c 128,-1,5
 461 289 461 289 485.5 404.5 c 128,-1,6
 510 520 510 520 514 655 c 0,7,8
 519 804 519 804 498 933.5 c 128,-1,9
 477 1063 477 1063 440.5 1171.5 c 128,-1,10
 404 1280 404 1280 358 1367.5 c 128,-1,11
 312 1455 312 1455 266.5 1520 c 128,-1,12
 221 1585 221 1585 180.5 1627 c 128,-1,13
 140 1669 140 1669 115 1687 c 1,14,-1
 216 1749 l 1,15,16
 239 1735 239 1735 284 1698.5 c 128,-1,17
 329 1662 329 1662 382.5 1601.5 c 128,-1,18
 436 1541 436 1541 492 1455.5 c 128,-1,19
 548 1370 548 1370 594 1258.5 c 128,-1,20
 640 1147 640 1147 669 1008.5 c 128,-1,21
 698 870 698 870 698 704 c 0,22,23
 698 559 698 559 669 431 c 128,-1,24
 640 303 640 303 594 194.5 c 128,-1,25
 548 86 548 86 492 -1.5 c 128,-1,26
 436 -89 436 -89 382.5 -153 c 128,-1,27
 329 -217 329 -217 284 -256.5 c 128,-1,28
 239 -296 239 -296 216 -309 c 1,29,-1
 128 -257 l 1,0,1
EndSplineSet
EndChar

StartChar: asterisk
Encoding: 42 42 9
Width: 1295
Flags: W
LayerCount: 2
Fore
SplineSet
584 1126 m 1,0,-1
 611 1231 l 1,1,-1
 547 1160 l 1,2,-1
 251 927 l 1,3,-1
 151 1068 l 1,4,-1
 494 1248 l 1,5,-1
 586 1278 l 1,6,-1
 496 1308 l 1,7,-1
 150 1482 l 1,8,-1
 248 1626 l 1,9,-1
 543 1396 l 1,10,-1
 611 1327 l 1,11,-1
 584 1441 l 1,12,-1
 550 1786 l 1,13,14
 596 1786 596 1786 641.5 1785.5 c 128,-1,15
 687 1785 687 1785 733 1785 c 1,16,-1
 702 1441 l 1,17,-1
 670 1327 l 1,18,-1
 756 1409 l 1,19,-1
 1032 1624 l 1,20,-1
 1145 1481 l 1,21,-1
 794 1314 l 1,22,-1
 694 1278 l 1,23,-1
 794 1245 l 1,24,-1
 1144 1066 l 1,25,-1
 1030 929 l 1,26,-1
 741 1162 l 1,27,-1
 671 1231 l 1,28,-1
 699 1126 l 1,29,-1
 733 768 l 1,30,-1
 550 768 l 1,31,-1
 584 1126 l 1,0,-1
EndSplineSet
EndChar

StartChar: plus
Encoding: 43 43 10
Width: 1269
Flags: W
LayerCount: 2
Fore
SplineSet
557 561 m 1,0,-1
 564 727 l 1,1,-1
 398 720 l 1,2,-1
 178 720 l 1,3,-1
 178 875 l 1,4,-1
 398 875 l 1,5,-1
 564 863 l 1,6,-1
 557 1032 l 1,7,-1
 557 1260 l 1,8,-1
 712 1260 l 1,9,-1
 712 1032 l 1,10,-1
 703 863 l 1,11,-1
 840 875 l 1,12,-1
 1091 875 l 1,13,-1
 1091 720 l 1,14,-1
 840 720 l 1,15,-1
 703 727 l 1,16,-1
 712 561 l 1,17,-1
 712 321 l 1,18,-1
 557 321 l 1,19,-1
 557 561 l 1,0,-1
EndSplineSet
EndChar

StartChar: comma
Encoding: 44 44 11
Width: 685
Flags: W
LayerCount: 2
Fore
SplineSet
196 134 m 1,0,-1
 308 279 l 1,1,2
 367 264 367 264 408.5 227 c 128,-1,3
 450 190 450 190 476 143.5 c 128,-1,4
 502 97 502 97 513.5 47 c 128,-1,5
 525 -3 525 -3 525 -43 c 0,6,7
 525 -128 525 -128 497 -201 c 128,-1,8
 469 -274 469 -274 424 -332 c 128,-1,9
 379 -390 379 -390 322 -432 c 128,-1,10
 265 -474 265 -474 207 -498 c 1,11,-1
 160 -438 l 1,12,-1
 160 -412 l 1,13,14
 196 -400 196 -400 228.5 -371 c 128,-1,15
 261 -342 261 -342 285.5 -302 c 128,-1,16
 310 -262 310 -262 324.5 -215 c 128,-1,17
 339 -168 339 -168 339 -120 c 0,18,19
 339 -82 339 -82 327.5 -46 c 128,-1,20
 316 -10 316 -10 296.5 19 c 128,-1,21
 277 48 277 48 251 67 c 128,-1,22
 225 86 225 86 196 89 c 1,23,-1
 196 134 l 1,0,-1
EndSplineSet
EndChar

StartChar: hyphen
Encoding: 45 45 12
Width: 1241
Flags: W
LayerCount: 2
Fore
SplineSet
178 874 m 1,0,-1
 1063 874 l 1,1,-1
 1063 727 l 1,2,-1
 178 727 l 1,3,-1
 178 874 l 1,0,-1
EndSplineSet
EndChar

StartChar: period
Encoding: 46 46 13
Width: 706
Flags: W
LayerCount: 2
Fore
SplineSet
215 101 m 0,0,1
 215 132 215 132 228.5 159 c 128,-1,2
 242 186 242 186 263 205.5 c 128,-1,3
 284 225 284 225 310.5 236 c 128,-1,4
 337 247 337 247 364 247 c 0,5,6
 430 247 430 247 460.5 210.5 c 128,-1,7
 491 174 491 174 491 123 c 0,8,9
 491 90 491 90 478 63 c 128,-1,10
 465 36 465 36 444 17.5 c 128,-1,11
 423 -1 423 -1 396 -11.5 c 128,-1,12
 369 -22 369 -22 341 -22 c 0,13,14
 317 -22 317 -22 294 -13.5 c 128,-1,15
 271 -5 271 -5 253.5 10.5 c 128,-1,16
 236 26 236 26 225.5 49 c 128,-1,17
 215 72 215 72 215 101 c 0,0,1
EndSplineSet
EndChar

StartChar: slash
Encoding: 47 47 14
Width: 816
Flags: W
LayerCount: 2
Fore
SplineSet
603 1599 m 1,0,-1
 786 1599 l 1,1,-1
 213 -363 l 1,2,-1
 30 -363 l 1,3,-1
 603 1599 l 1,0,-1
EndSplineSet
EndChar

StartChar: zero
Encoding: 48 48 15
Width: 1327
Flags: W
LayerCount: 2
Fore
SplineSet
131 632 m 0,0,1
 133 777 133 777 178.5 892 c 128,-1,2
 224 1007 224 1007 300 1086.5 c 128,-1,3
 376 1166 376 1166 474.5 1208.5 c 128,-1,4
 573 1251 573 1251 681 1252 c 0,5,6
 827 1253 827 1253 926 1204.5 c 128,-1,7
 1025 1156 1025 1156 1085.5 1071 c 128,-1,8
 1146 986 1146 986 1171.5 870.5 c 128,-1,9
 1197 755 1197 755 1196 623 c 0,10,11
 1195 479 1195 479 1152.5 359 c 128,-1,12
 1110 239 1110 239 1037 153.5 c 128,-1,13
 964 68 964 68 866 20 c 128,-1,14
 768 -28 768 -28 656 -28 c 0,15,16
 561 -28 561 -28 484.5 -3 c 128,-1,17
 408 22 408 22 349.5 66.5 c 128,-1,18
 291 111 291 111 249 173 c 128,-1,19
 207 235 207 235 180.5 308.5 c 128,-1,20
 154 382 154 382 142 464 c 128,-1,21
 130 546 130 546 131 632 c 0,0,1
664 77 m 0,22,23
 754 75 754 75 816.5 111 c 128,-1,24
 879 147 879 147 917.5 216.5 c 128,-1,25
 956 286 956 286 973.5 386.5 c 128,-1,26
 991 487 991 487 991 614 c 0,27,28
 991 726 991 726 972.5 822.5 c 128,-1,29
 954 919 954 919 914.5 990.5 c 128,-1,30
 875 1062 875 1062 814 1103 c 128,-1,31
 753 1144 753 1144 668 1146 c 1,32,33
 578 1147 578 1147 515 1113 c 128,-1,34
 452 1079 452 1079 412 1014 c 128,-1,35
 372 949 372 949 354 854.5 c 128,-1,36
 336 760 336 760 336 641 c 0,37,38
 336 534 336 534 355.5 433.5 c 128,-1,39
 375 333 375 333 415.5 254.5 c 128,-1,40
 456 176 456 176 517.5 127.5 c 128,-1,41
 579 79 579 79 664 77 c 0,22,23
EndSplineSet
EndChar

StartChar: one
Encoding: 49 49 16
Width: 933
Flags: W
LayerCount: 2
Fore
SplineSet
116 85 m 1,0,-1
 407 112 l 1,1,-1
 407 1024 l 1,2,-1
 135 971 l 1,3,-1
 115 1070 l 1,4,5
 145 1079 145 1079 186 1094 c 128,-1,6
 227 1109 227 1109 271.5 1127 c 128,-1,7
 316 1145 316 1145 361 1165.5 c 128,-1,8
 406 1186 406 1186 444 1204.5 c 128,-1,9
 482 1223 482 1223 510.5 1238.5 c 128,-1,10
 539 1254 539 1254 551 1264 c 1,11,-1
 603 1249 l 1,12,-1
 600 111 l 1,13,-1
 868 85 l 1,14,-1
 868 0 l 1,15,-1
 116 0 l 1,16,-1
 116 85 l 1,0,-1
EndSplineSet
EndChar

StartChar: two
Encoding: 50 50 17
Width: 1221
Flags: W
LayerCount: 2
Fore
SplineSet
131 79 m 1,0,1
 262 161 262 161 382 256 c 128,-1,2
 502 351 502 351 594 451.5 c 128,-1,3
 686 552 686 552 740.5 654 c 128,-1,4
 795 756 795 756 795 852 c 0,5,6
 795 900 795 900 781 949.5 c 128,-1,7
 767 999 767 999 735.5 1039 c 128,-1,8
 704 1079 704 1079 654 1104.5 c 128,-1,9
 604 1130 604 1130 531 1130 c 0,10,11
 480 1130 480 1130 428.5 1115.5 c 128,-1,12
 377 1101 377 1101 330.5 1079 c 128,-1,13
 284 1057 284 1057 246 1031.5 c 128,-1,14
 208 1006 208 1006 183 984 c 1,15,-1
 136 1060 l 1,16,17
 164 1095 164 1095 211.5 1131 c 128,-1,18
 259 1167 259 1167 319.5 1196.5 c 128,-1,19
 380 1226 380 1226 451 1244.5 c 128,-1,20
 522 1263 522 1263 597 1263 c 0,21,22
 700 1263 700 1263 775.5 1233.5 c 128,-1,23
 851 1204 851 1204 900 1155.5 c 128,-1,24
 949 1107 949 1107 972.5 1045 c 128,-1,25
 996 983 996 983 996 918 c 0,26,27
 996 814 996 814 948.5 706 c 128,-1,28
 901 598 901 598 818 494 c 128,-1,29
 735 390 735 390 621 294 c 128,-1,30
 507 198 507 198 375 119 c 1,31,-1
 946 161 l 1,32,-1
 1042 303 l 1,33,-1
 1128 275 l 1,34,-1
 1063 0 l 1,35,-1
 160 0 l 1,36,-1
 131 79 l 1,0,1
EndSplineSet
EndChar

StartChar: three
Encoding: 51 51 18
Width: 1074
Flags: W
LayerCount: 2
Fore
SplineSet
124 -208 m 1,0,1
 209 -223 209 -223 289 -218 c 128,-1,2
 369 -213 369 -213 439.5 -191.5 c 128,-1,3
 510 -170 510 -170 568.5 -133 c 128,-1,4
 627 -96 627 -96 669 -48.5 c 128,-1,5
 711 -1 711 -1 734 55.5 c 128,-1,6
 757 112 757 112 757 174 c 0,7,8
 757 246 757 246 740 302 c 128,-1,9
 723 358 723 358 683 396.5 c 128,-1,10
 643 435 643 435 577 455.5 c 128,-1,11
 511 476 511 476 414 476 c 1,12,-1
 260 442 l 1,13,-1
 260 576 l 1,14,15
 343 592 343 592 417.5 620.5 c 128,-1,16
 492 649 492 649 549 688.5 c 128,-1,17
 606 728 606 728 639.5 776.5 c 128,-1,18
 673 825 673 825 674 882 c 0,19,20
 675 951 675 951 656 999 c 128,-1,21
 637 1047 637 1047 603.5 1077 c 128,-1,22
 570 1107 570 1107 526 1120.5 c 128,-1,23
 482 1134 482 1134 434 1134 c 0,24,25
 377 1134 377 1134 331.5 1124.5 c 128,-1,26
 286 1115 286 1115 248.5 1099 c 128,-1,27
 211 1083 211 1083 179 1063 c 128,-1,28
 147 1043 147 1043 119 1021 c 1,29,-1
 66 1109 l 1,30,31
 89 1133 89 1133 129 1161 c 128,-1,32
 169 1189 169 1189 224 1213 c 128,-1,33
 279 1237 279 1237 348.5 1253 c 128,-1,34
 418 1269 418 1269 499 1269 c 0,35,36
 569 1269 569 1269 637.5 1251 c 128,-1,37
 706 1233 706 1233 759.5 1194 c 128,-1,38
 813 1155 813 1155 846 1092.5 c 128,-1,39
 879 1030 879 1030 879 942 c 0,40,41
 879 882 879 882 850 820 c 128,-1,42
 821 758 821 758 773.5 704 c 128,-1,43
 726 650 726 650 666 608.5 c 128,-1,44
 606 567 606 567 543 548 c 1,45,46
 650 552 650 552 729 527 c 128,-1,47
 808 502 808 502 860.5 456 c 128,-1,48
 913 410 913 410 938.5 347 c 128,-1,49
 964 284 964 284 964 214 c 0,50,51
 964 137 964 137 936.5 62 c 128,-1,52
 909 -13 909 -13 857 -79 c 128,-1,53
 805 -145 805 -145 731 -198.5 c 128,-1,54
 657 -252 657 -252 563.5 -285.5 c 128,-1,55
 470 -319 470 -319 359.5 -329 c 128,-1,56
 249 -339 249 -339 125 -318 c 1,57,58
 125 -290 125 -290 124.5 -263 c 128,-1,59
 124 -236 124 -236 124 -208 c 1,0,1
EndSplineSet
EndChar

StartChar: four
Encoding: 52 52 19
Width: 1253
Flags: W
LayerCount: 2
Fore
SplineSet
75 94 m 1,0,1
 153 236 153 236 231.5 373.5 c 128,-1,2
 310 511 310 511 388.5 654 c 128,-1,3
 467 797 467 797 545.5 949.5 c 128,-1,4
 624 1102 624 1102 702 1273 c 1,5,-1
 765 1273 l 1,6,-1
 883 1185 l 1,7,-1
 318 219 l 1,8,-1
 246 115 l 1,9,-1
 767 146 l 1,10,-1
 770 614 l 1,11,-1
 946 663 l 1,12,-1
 946 157 l 1,13,-1
 1158 170 l 1,14,-1
 1158 0 l 1,15,-1
 946 0 l 1,16,-1
 946 -376 l 1,17,-1
 765 -376 l 1,18,-1
 767 0 l 1,19,-1
 106 0 l 1,20,-1
 75 94 l 1,0,1
EndSplineSet
EndChar

StartChar: five
Encoding: 53 53 20
Width: 1079
Flags: W
LayerCount: 2
Fore
SplineSet
137 -245 m 1,0,1
 209 -253 209 -253 282.5 -241.5 c 128,-1,2
 356 -230 356 -230 425 -201 c 128,-1,3
 494 -172 494 -172 553.5 -128 c 128,-1,4
 613 -84 613 -84 658 -27.5 c 128,-1,5
 703 29 703 29 728.5 95.5 c 128,-1,6
 754 162 754 162 754 236 c 0,7,8
 754 325 754 325 732 389 c 128,-1,9
 710 453 710 453 670 495 c 128,-1,10
 630 537 630 537 575 558.5 c 128,-1,11
 520 580 520 580 454 583.5 c 128,-1,12
 388 587 388 587 314 574.5 c 128,-1,13
 240 562 240 562 163 536 c 1,14,-1
 128 566 l 1,15,-1
 207 1237 l 1,16,-1
 737 1237 l 1,17,-1
 766 1256 l 1,18,-1
 879 1256 l 1,19,-1
 830 1072 l 1,20,-1
 353 1072 l 1,21,-1
 278 645 l 1,22,23
 351 680 351 680 430.5 693.5 c 128,-1,24
 510 707 510 707 585.5 698.5 c 128,-1,25
 661 690 661 690 729 658 c 128,-1,26
 797 626 797 626 848 571.5 c 128,-1,27
 899 517 899 517 929 439 c 128,-1,28
 959 361 959 361 959 259 c 0,29,30
 959 189 959 189 934.5 116.5 c 128,-1,31
 910 44 910 44 864 -24 c 128,-1,32
 818 -92 818 -92 753.5 -151.5 c 128,-1,33
 689 -211 689 -211 609 -255.5 c 128,-1,34
 529 -300 529 -300 435.5 -325.5 c 128,-1,35
 342 -351 342 -351 239 -351 c 0,36,37
 214 -351 214 -351 188 -348 c 128,-1,38
 162 -345 162 -345 136 -337 c 1,39,-1
 137 -245 l 1,0,1
EndSplineSet
EndChar

StartChar: six
Encoding: 54 54 21
Width: 1251
Flags: W
LayerCount: 2
Fore
SplineSet
127 563 m 0,0,1
 127 692 127 692 162.5 808.5 c 128,-1,2
 198 925 198 925 260 1026.5 c 128,-1,3
 322 1128 322 1128 405.5 1213 c 128,-1,4
 489 1298 489 1298 584.5 1363 c 128,-1,5
 680 1428 680 1428 783 1471.5 c 128,-1,6
 886 1515 886 1515 987 1534 c 1,7,-1
 1028 1450 l 1,8,9
 865 1397 865 1397 737.5 1311 c 128,-1,10
 610 1225 610 1225 521.5 1119.5 c 128,-1,11
 433 1014 433 1014 385 897.5 c 128,-1,12
 337 781 337 781 333 667 c 0,13,14
 329 556 329 556 341 451 c 128,-1,15
 353 346 353 346 390.5 264 c 128,-1,16
 428 182 428 182 494.5 132.5 c 128,-1,17
 561 83 561 83 666 83 c 0,18,19
 742 83 742 83 797 116.5 c 128,-1,20
 852 150 852 150 887.5 203 c 128,-1,21
 923 256 923 256 940 321 c 128,-1,22
 957 386 957 386 957 449 c 0,23,24
 957 544 957 544 938 617 c 128,-1,25
 919 690 919 690 886 739 c 128,-1,26
 853 788 853 788 808 813 c 128,-1,27
 763 838 763 838 710 838 c 0,28,29
 669 838 669 838 638 833 c 128,-1,30
 607 828 607 828 584 820 c 128,-1,31
 561 812 561 812 543 801 c 128,-1,32
 525 790 525 790 509 778 c 1,33,-1
 465 857 l 1,34,35
 477 875 477 875 507 895 c 128,-1,36
 537 915 537 915 578 931 c 128,-1,37
 619 947 619 947 666.5 957.5 c 128,-1,38
 714 968 714 968 762 968 c 0,39,40
 858 968 858 968 929.5 929 c 128,-1,41
 1001 890 1001 890 1048.5 828 c 128,-1,42
 1096 766 1096 766 1119.5 687.5 c 128,-1,43
 1143 609 1143 609 1143 530 c 0,44,45
 1143 466 1143 466 1128 400 c 128,-1,46
 1113 334 1113 334 1083 273 c 128,-1,47
 1053 212 1053 212 1009.5 158.5 c 128,-1,48
 966 105 966 105 909.5 65 c 128,-1,49
 853 25 853 25 783.5 2 c 128,-1,50
 714 -21 714 -21 633 -21 c 0,51,52
 514 -21 514 -21 420 26 c 128,-1,53
 326 73 326 73 261 153 c 128,-1,54
 196 233 196 233 161.5 339 c 128,-1,55
 127 445 127 445 127 563 c 0,0,1
EndSplineSet
EndChar

StartChar: seven
Encoding: 55 55 22
Width: 1236
Flags: W
LayerCount: 2
Fore
SplineSet
365 -246 m 1,0,1
 524 79 524 79 667 420 c 128,-1,2
 810 761 810 761 957 1118 c 1,3,-1
 337 1096 l 1,4,-1
 243 917 l 1,5,-1
 144 927 l 1,6,-1
 192 1253 l 1,7,-1
 1085 1253 l 1,8,-1
 1120 1214 l 1,9,-1
 565 -316 l 1,10,-1
 365 -246 l 1,0,1
EndSplineSet
EndChar

StartChar: eight
Encoding: 56 56 23
Width: 1241
Flags: W
LayerCount: 2
Fore
SplineSet
129 373 m 0,0,1
 129 429 129 429 148.5 485.5 c 128,-1,2
 168 542 168 542 207 595 c 128,-1,3
 246 648 246 648 305 696.5 c 128,-1,4
 364 745 364 745 442 784 c 1,5,6
 392 818 392 818 349 857 c 128,-1,7
 306 896 306 896 274.5 942.5 c 128,-1,8
 243 989 243 989 224.5 1044 c 128,-1,9
 206 1099 206 1099 206 1165 c 0,10,11
 206 1264 206 1264 245 1337 c 128,-1,12
 284 1410 284 1410 347.5 1458 c 128,-1,13
 411 1506 411 1506 492 1529.5 c 128,-1,14
 573 1553 573 1553 656 1553 c 0,15,16
 742 1553 742 1553 816.5 1528 c 128,-1,17
 891 1503 891 1503 946.5 1457.5 c 128,-1,18
 1002 1412 1002 1412 1033.5 1348 c 128,-1,19
 1065 1284 1065 1284 1065 1206 c 0,20,21
 1065 1150 1065 1150 1045.5 1089.5 c 128,-1,22
 1026 1029 1026 1029 990 972 c 128,-1,23
 954 915 954 915 903 866.5 c 128,-1,24
 852 818 852 818 789 786 c 1,25,26
 855 746 855 746 916.5 704 c 128,-1,27
 978 662 978 662 1025 615.5 c 128,-1,28
 1072 569 1072 569 1101 516.5 c 128,-1,29
 1130 464 1130 464 1131 403 c 0,30,31
 1132 328 1132 328 1112.5 267 c 128,-1,32
 1093 206 1093 206 1057.5 158 c 128,-1,33
 1022 110 1022 110 973.5 75 c 128,-1,34
 925 40 925 40 869.5 17 c 128,-1,35
 814 -6 814 -6 753 -17 c 128,-1,36
 692 -28 692 -28 632 -28 c 0,37,38
 574 -28 574 -28 514 -17.5 c 128,-1,39
 454 -7 454 -7 398 14 c 128,-1,40
 342 35 342 35 293 67.5 c 128,-1,41
 244 100 244 100 207.5 145 c 128,-1,42
 171 190 171 190 150 246.5 c 128,-1,43
 129 303 129 303 129 373 c 0,0,1
683 850 m 1,44,45
 726 862 726 862 764.5 892 c 128,-1,46
 803 922 803 922 833 962.5 c 128,-1,47
 863 1003 863 1003 881 1050 c 128,-1,48
 899 1097 899 1097 901 1142 c 0,49,50
 904 1212 904 1212 885 1270.5 c 128,-1,51
 866 1329 866 1329 831.5 1370 c 128,-1,52
 797 1411 797 1411 748.5 1434 c 128,-1,53
 700 1457 700 1457 645 1457 c 0,54,55
 592 1457 592 1457 542 1438.5 c 128,-1,56
 492 1420 492 1420 452 1386.5 c 128,-1,57
 412 1353 412 1353 388 1305 c 128,-1,58
 364 1257 364 1257 364 1198 c 0,59,60
 364 1145 364 1145 390 1098 c 128,-1,61
 416 1051 416 1051 460.5 1009 c 128,-1,62
 505 967 505 967 562.5 927.5 c 128,-1,63
 620 888 620 888 683 850 c 1,44,45
313 420 m 0,64,65
 313 349 313 349 337 286 c 128,-1,66
 361 223 361 223 406 176 c 128,-1,67
 451 129 451 129 516 101.5 c 128,-1,68
 581 74 581 74 664 74 c 0,69,70
 716 74 716 74 768.5 92.5 c 128,-1,71
 821 111 821 111 863 144.5 c 128,-1,72
 905 178 905 178 931 226 c 128,-1,73
 957 274 957 274 957 333 c 0,74,75
 957 400 957 400 920 452.5 c 128,-1,76
 883 505 883 505 823 550.5 c 128,-1,77
 763 596 763 596 688 637 c 128,-1,78
 613 678 613 678 537 723 c 1,79,80
 492 702 492 702 451.5 671 c 128,-1,81
 411 640 411 640 380.5 601.5 c 128,-1,82
 350 563 350 563 331.5 517 c 128,-1,83
 313 471 313 471 313 420 c 0,64,65
EndSplineSet
EndChar

StartChar: nine
Encoding: 57 57 24
Width: 1260
Flags: W
LayerCount: 2
Fore
SplineSet
237 -319 m 1,0,1
 346 -284 346 -284 437.5 -227.5 c 128,-1,2
 529 -171 529 -171 603.5 -99.5 c 128,-1,3
 678 -28 678 -28 735 54.5 c 128,-1,4
 792 137 792 137 831 224 c 128,-1,5
 870 311 870 311 891.5 398 c 128,-1,6
 913 485 913 485 916 566 c 0,7,8
 920 677 920 677 910.5 782 c 128,-1,9
 901 887 901 887 866.5 969 c 128,-1,10
 832 1051 832 1051 768 1100.5 c 128,-1,11
 704 1150 704 1150 599 1150 c 0,12,13
 523 1150 523 1150 468 1116.5 c 128,-1,14
 413 1083 413 1083 377.5 1030 c 128,-1,15
 342 977 342 977 325 912 c 128,-1,16
 308 847 308 847 308 784 c 0,17,18
 308 689 308 689 327 616 c 128,-1,19
 346 543 346 543 379 494 c 128,-1,20
 412 445 412 445 457 420 c 128,-1,21
 502 395 502 395 555 395 c 0,22,23
 587 395 587 395 617.5 400.5 c 128,-1,24
 648 406 648 406 674.5 414.5 c 128,-1,25
 701 423 701 423 722 433.5 c 128,-1,26
 743 444 743 444 756 455 c 1,27,-1
 800 376 l 1,28,29
 781 354 781 354 750 334 c 128,-1,30
 719 314 719 314 680 298.5 c 128,-1,31
 641 283 641 283 596 274 c 128,-1,32
 551 265 551 265 503 265 c 0,33,34
 407 265 407 265 335.5 304 c 128,-1,35
 264 343 264 343 216.5 405 c 128,-1,36
 169 467 169 467 145.5 545.5 c 128,-1,37
 122 624 122 624 122 703 c 0,38,39
 122 767 122 767 137 833 c 128,-1,40
 152 899 152 899 182 960 c 128,-1,41
 212 1021 212 1021 255.5 1074.5 c 128,-1,42
 299 1128 299 1128 355.5 1168 c 128,-1,43
 412 1208 412 1208 481.5 1231 c 128,-1,44
 551 1254 551 1254 632 1254 c 0,45,46
 751 1254 751 1254 842.5 1206.5 c 128,-1,47
 934 1159 934 1159 995.5 1078.5 c 128,-1,48
 1057 998 1057 998 1088.5 892.5 c 128,-1,49
 1120 787 1120 787 1120 670 c 0,50,51
 1120 534 1120 534 1085.5 406.5 c 128,-1,52
 1051 279 1051 279 990.5 166 c 128,-1,53
 930 53 930 53 849 -43.5 c 128,-1,54
 768 -140 768 -140 674 -214 c 128,-1,55
 580 -288 580 -288 478 -337 c 128,-1,56
 376 -386 376 -386 275 -405 c 1,57,-1
 237 -319 l 1,0,1
EndSplineSet
EndChar

StartChar: colon
Encoding: 58 58 25
Width: 706
Flags: W
LayerCount: 2
Fore
SplineSet
341 788 m 0,0,1
 317 788 317 788 294 796.5 c 128,-1,2
 271 805 271 805 253.5 820.5 c 128,-1,3
 236 836 236 836 225.5 859 c 128,-1,4
 215 882 215 882 215 911 c 0,5,6
 215 942 215 942 228.5 969 c 128,-1,7
 242 996 242 996 263 1015.5 c 128,-1,8
 284 1035 284 1035 310.5 1046 c 128,-1,9
 337 1057 337 1057 364 1057 c 0,10,11
 430 1057 430 1057 460.5 1020.5 c 128,-1,12
 491 984 491 984 491 933 c 0,13,14
 491 900 491 900 478 873 c 128,-1,15
 465 846 465 846 444 827.5 c 128,-1,16
 423 809 423 809 396 798.5 c 128,-1,17
 369 788 369 788 341 788 c 0,0,1
215 101 m 0,18,19
 215 132 215 132 228.5 159 c 128,-1,20
 242 186 242 186 263 205.5 c 128,-1,21
 284 225 284 225 310.5 236 c 128,-1,22
 337 247 337 247 364 247 c 0,23,24
 430 247 430 247 460.5 210.5 c 128,-1,25
 491 174 491 174 491 123 c 0,26,27
 491 90 491 90 478 63 c 128,-1,28
 465 36 465 36 444 17.5 c 128,-1,29
 423 -1 423 -1 396 -11.5 c 128,-1,30
 369 -22 369 -22 341 -22 c 0,31,32
 317 -22 317 -22 294 -13.5 c 128,-1,33
 271 -5 271 -5 253.5 10.5 c 128,-1,34
 236 26 236 26 225.5 49 c 128,-1,35
 215 72 215 72 215 101 c 0,18,19
EndSplineSet
EndChar

StartChar: semicolon
Encoding: 59 59 26
Width: 706
Flags: W
LayerCount: 2
Fore
SplineSet
341 788 m 0,0,1
 317 788 317 788 294 796.5 c 128,-1,2
 271 805 271 805 253.5 820.5 c 128,-1,3
 236 836 236 836 225.5 859 c 128,-1,4
 215 882 215 882 215 911 c 0,5,6
 215 942 215 942 228.5 969 c 128,-1,7
 242 996 242 996 263 1015.5 c 128,-1,8
 284 1035 284 1035 310.5 1046 c 128,-1,9
 337 1057 337 1057 364 1057 c 0,10,11
 430 1057 430 1057 460.5 1020.5 c 128,-1,12
 491 984 491 984 491 933 c 0,13,14
 491 900 491 900 478 873 c 128,-1,15
 465 846 465 846 444 827.5 c 128,-1,16
 423 809 423 809 396 798.5 c 128,-1,17
 369 788 369 788 341 788 c 0,0,1
235 134 m 1,18,-1
 347 279 l 1,19,20
 406 264 406 264 447.5 227 c 128,-1,21
 489 190 489 190 515 143.5 c 128,-1,22
 541 97 541 97 552.5 47 c 128,-1,23
 564 -3 564 -3 564 -43 c 0,24,25
 564 -128 564 -128 536 -201 c 128,-1,26
 508 -274 508 -274 463 -332 c 128,-1,27
 418 -390 418 -390 361 -432 c 128,-1,28
 304 -474 304 -474 246 -498 c 1,29,-1
 199 -438 l 1,30,-1
 199 -412 l 1,31,32
 235 -400 235 -400 267.5 -371 c 128,-1,33
 300 -342 300 -342 324.5 -302 c 128,-1,34
 349 -262 349 -262 363.5 -215 c 128,-1,35
 378 -168 378 -168 378 -120 c 0,36,37
 378 -82 378 -82 366.5 -46 c 128,-1,38
 355 -10 355 -10 335.5 19 c 128,-1,39
 316 48 316 48 290 67 c 128,-1,40
 264 86 264 86 235 89 c 1,41,-1
 235 134 l 1,18,-1
EndSplineSet
EndChar

StartChar: less
Encoding: 60 60 27
Width: 1325
Flags: W
LayerCount: 2
Fore
SplineSet
128 818 m 1,0,-1
 1097 1313 l 1,1,-1
 1097 1130 l 1,2,-1
 298 751 l 1,3,-1
 1097 374 l 1,4,-1
 1097 190 l 1,5,-1
 128 684 l 1,6,-1
 128 818 l 1,0,-1
EndSplineSet
EndChar

StartChar: equal
Encoding: 61 61 28
Width: 1241
Flags: W
LayerCount: 2
Fore
SplineSet
178 1061 m 1,0,-1
 1063 1061 l 1,1,-1
 1063 914 l 1,2,-1
 178 914 l 1,3,-1
 178 1061 l 1,0,-1
178 672 m 1,4,-1
 1063 672 l 1,5,-1
 1063 525 l 1,6,-1
 178 525 l 1,7,-1
 178 672 l 1,4,-1
EndSplineSet
EndChar

StartChar: greater
Encoding: 62 62 29
Width: 1325
Flags: W
LayerCount: 2
Fore
SplineSet
228 373 m 1,0,-1
 1027 751 l 1,1,-1
 228 1129 l 1,2,-1
 228 1313 l 1,3,-1
 1197 819 l 1,4,-1
 1197 685 l 1,5,-1
 228 190 l 1,6,-1
 228 373 l 1,0,-1
EndSplineSet
EndChar

StartChar: question
Encoding: 63 63 30
Width: 1012
Flags: W
LayerCount: 2
Fore
SplineSet
472 490 m 1,0,1
 448 508 448 508 417.5 548 c 128,-1,2
 387 588 387 588 359 636.5 c 128,-1,3
 331 685 331 685 311 736.5 c 128,-1,4
 291 788 291 788 288 830 c 0,5,6
 286 872 286 872 319.5 906.5 c 128,-1,7
 353 941 353 941 405 970.5 c 128,-1,8
 457 1000 457 1000 518.5 1025.5 c 128,-1,9
 580 1051 580 1051 635 1075 c 128,-1,10
 690 1099 690 1099 729.5 1122 c 128,-1,11
 769 1145 769 1145 777 1169 c 1,12,13
 781 1234 781 1234 764.5 1296 c 128,-1,14
 748 1358 748 1358 716.5 1412.5 c 128,-1,15
 685 1467 685 1467 639.5 1512.5 c 128,-1,16
 594 1558 594 1558 539 1590.5 c 128,-1,17
 484 1623 484 1623 422 1641 c 128,-1,18
 360 1659 360 1659 295 1659 c 0,19,20
 276 1659 276 1659 253 1658 c 128,-1,21
 230 1657 230 1657 207.5 1654.5 c 128,-1,22
 185 1652 185 1652 164.5 1647.5 c 128,-1,23
 144 1643 144 1643 130 1637 c 1,24,-1
 130 1789 l 1,25,26
 138 1799 138 1799 157.5 1807.5 c 128,-1,27
 177 1816 177 1816 203 1822 c 128,-1,28
 229 1828 229 1828 259.5 1831.5 c 128,-1,29
 290 1835 290 1835 320 1835 c 0,30,31
 445 1835 445 1835 541 1805 c 128,-1,32
 637 1775 637 1775 707 1724 c 128,-1,33
 777 1673 777 1673 823 1606.5 c 128,-1,34
 869 1540 869 1540 894.5 1467.5 c 128,-1,35
 920 1395 920 1395 926.5 1321.5 c 128,-1,36
 933 1248 933 1248 924 1183 c 1,37,38
 924 1146 924 1146 894 1115 c 128,-1,39
 864 1084 864 1084 818 1056 c 128,-1,40
 772 1028 772 1028 717.5 1002.5 c 128,-1,41
 663 977 663 977 613.5 951 c 128,-1,42
 564 925 564 925 527.5 897.5 c 128,-1,43
 491 870 491 870 481 839 c 1,44,45
 475 798 475 798 482.5 756 c 128,-1,46
 490 714 490 714 505.5 670 c 128,-1,47
 521 626 521 626 540.5 581 c 128,-1,48
 560 536 560 536 577 490 c 1,49,-1
 472 490 l 1,0,1
406 101 m 0,50,51
 406 132 406 132 419.5 159 c 128,-1,52
 433 186 433 186 454 205.5 c 128,-1,53
 475 225 475 225 501.5 236 c 128,-1,54
 528 247 528 247 555 247 c 0,55,56
 621 247 621 247 651.5 210.5 c 128,-1,57
 682 174 682 174 682 123 c 0,58,59
 682 90 682 90 669 63 c 128,-1,60
 656 36 656 36 635 17.5 c 128,-1,61
 614 -1 614 -1 587 -11.5 c 128,-1,62
 560 -22 560 -22 532 -22 c 0,63,64
 508 -22 508 -22 485 -13.5 c 128,-1,65
 462 -5 462 -5 444.5 10.5 c 128,-1,66
 427 26 427 26 416.5 49 c 128,-1,67
 406 72 406 72 406 101 c 0,50,51
EndSplineSet
EndChar

StartChar: at
Encoding: 64 64 31
Width: 2133
Flags: W
LayerCount: 2
Fore
SplineSet
236 416 m 0,0,1
 236 572 236 572 272.5 708.5 c 128,-1,2
 309 845 309 845 374.5 958.5 c 128,-1,3
 440 1072 440 1072 531 1161 c 128,-1,4
 622 1250 622 1250 731 1311.5 c 128,-1,5
 840 1373 840 1373 963 1405.5 c 128,-1,6
 1086 1438 1086 1438 1216 1438 c 0,7,8
 1360 1438 1360 1438 1485 1395 c 128,-1,9
 1610 1352 1610 1352 1702.5 1271.5 c 128,-1,10
 1795 1191 1795 1191 1848 1075 c 128,-1,11
 1901 959 1901 959 1901 812 c 0,12,13
 1901 675 1901 675 1876.5 564 c 128,-1,14
 1852 453 1852 453 1810 367 c 128,-1,15
 1768 281 1768 281 1713.5 219 c 128,-1,16
 1659 157 1659 157 1599 116.5 c 128,-1,17
 1539 76 1539 76 1477 57 c 128,-1,18
 1415 38 1415 38 1360 38 c 0,19,20
 1337 38 1337 38 1316.5 46.5 c 128,-1,21
 1296 55 1296 55 1280 73.5 c 128,-1,22
 1264 92 1264 92 1253.5 121.5 c 128,-1,23
 1243 151 1243 151 1239 194 c 1,24,25
 1234 234 1234 234 1239 297.5 c 128,-1,26
 1244 361 1244 361 1261 465 c 1,27,28
 1229 384 1229 384 1186 305 c 128,-1,29
 1143 226 1143 226 1092 164 c 128,-1,30
 1041 102 1041 102 985 63.5 c 128,-1,31
 929 25 929 25 871 25 c 0,32,33
 825 25 825 25 779.5 52.5 c 128,-1,34
 734 80 734 80 698 132.5 c 128,-1,35
 662 185 662 185 639.5 260 c 128,-1,36
 617 335 617 335 617 430 c 0,37,38
 617 494 617 494 630.5 565.5 c 128,-1,39
 644 637 644 637 671 706 c 128,-1,40
 698 775 698 775 736.5 838 c 128,-1,41
 775 901 775 901 826 949 c 128,-1,42
 877 997 877 997 938.5 1025.5 c 128,-1,43
 1000 1054 1000 1054 1072 1054 c 0,44,45
 1097 1054 1097 1054 1130.5 1051 c 128,-1,46
 1164 1048 1164 1048 1199 1042 c 128,-1,47
 1234 1036 1234 1036 1268 1026.5 c 128,-1,48
 1302 1017 1302 1017 1328 1003 c 1,49,50
 1334 1021 1334 1021 1344 1037 c 128,-1,51
 1354 1053 1354 1053 1373 1049 c 1,52,53
 1401 1040 1401 1040 1430 1030 c 128,-1,54
 1459 1020 1459 1020 1491 1009 c 1,55,56
 1479 955 1479 955 1467 879 c 128,-1,57
 1455 803 1455 803 1444.5 720 c 128,-1,58
 1434 637 1434 637 1424.5 553 c 128,-1,59
 1415 469 1415 469 1407 398 c 0,60,61
 1401 345 1401 345 1400.5 300.5 c 128,-1,62
 1400 256 1400 256 1404.5 224 c 128,-1,63
 1409 192 1409 192 1417.5 174 c 128,-1,64
 1426 156 1426 156 1438 156 c 0,65,66
 1467 156 1467 156 1502.5 176.5 c 128,-1,67
 1538 197 1538 197 1574 234.5 c 128,-1,68
 1610 272 1610 272 1644 324.5 c 128,-1,69
 1678 377 1678 377 1704 441.5 c 128,-1,70
 1730 506 1730 506 1746 580 c 128,-1,71
 1762 654 1762 654 1762 735 c 0,72,73
 1762 842 1762 842 1737.5 926 c 128,-1,74
 1713 1010 1713 1010 1669.5 1073.5 c 128,-1,75
 1626 1137 1626 1137 1566.5 1181.5 c 128,-1,76
 1507 1226 1507 1226 1437.5 1254 c 128,-1,77
 1368 1282 1368 1282 1291.5 1294.5 c 128,-1,78
 1215 1307 1215 1307 1137 1307 c 0,79,80
 1037 1307 1037 1307 942.5 1283 c 128,-1,81
 848 1259 848 1259 764.5 1212.5 c 128,-1,82
 681 1166 681 1166 611 1096 c 128,-1,83
 541 1026 541 1026 490 934.5 c 128,-1,84
 439 843 439 843 411 729.5 c 128,-1,85
 383 616 383 616 383 482 c 256,86,87
 383 348 383 348 409.5 242 c 128,-1,88
 436 136 436 136 483.5 56 c 128,-1,89
 531 -24 531 -24 597 -80.5 c 128,-1,90
 663 -137 663 -137 743 -172.5 c 128,-1,91
 823 -208 823 -208 913.5 -224.5 c 128,-1,92
 1004 -241 1004 -241 1101 -241 c 0,93,94
 1145 -241 1145 -241 1195.5 -235.5 c 128,-1,95
 1246 -230 1246 -230 1293.5 -221 c 128,-1,96
 1341 -212 1341 -212 1381.5 -200.5 c 128,-1,97
 1422 -189 1422 -189 1447 -177 c 1,98,-1
 1484 -262 l 1,99,100
 1451 -288 1451 -288 1399 -309.5 c 128,-1,101
 1347 -331 1347 -331 1285.5 -346 c 128,-1,102
 1224 -361 1224 -361 1156.5 -369.5 c 128,-1,103
 1089 -378 1089 -378 1025 -378 c 0,104,105
 854 -378 854 -378 709.5 -322.5 c 128,-1,106
 565 -267 565 -267 460 -164 c 128,-1,107
 355 -61 355 -61 295.5 86 c 128,-1,108
 236 233 236 233 236 416 c 0,0,1
774 506 m 0,109,110
 774 481 774 481 776 448 c 128,-1,111
 778 415 778 415 783 380 c 128,-1,112
 788 345 788 345 797.5 311.5 c 128,-1,113
 807 278 807 278 822.5 251.5 c 128,-1,114
 838 225 838 225 860 209 c 128,-1,115
 882 193 882 193 913 193 c 0,116,117
 946 193 946 193 985 225 c 128,-1,118
 1024 257 1024 257 1063.5 310 c 128,-1,119
 1103 363 1103 363 1140 431.5 c 128,-1,120
 1177 500 1177 500 1208 572 c 128,-1,121
 1239 644 1239 644 1260.5 714 c 128,-1,122
 1282 784 1282 784 1289 841 c 1,123,124
 1274 857 1274 857 1247.5 869.5 c 128,-1,125
 1221 882 1221 882 1190.5 890.5 c 128,-1,126
 1160 899 1160 899 1129.5 903 c 128,-1,127
 1099 907 1099 907 1075 907 c 0,128,129
 992 907 992 907 934.5 874.5 c 128,-1,130
 877 842 877 842 841.5 786.5 c 128,-1,131
 806 731 806 731 790 658.5 c 128,-1,132
 774 586 774 586 774 506 c 0,109,110
EndSplineSet
EndChar

StartChar: A
Encoding: 65 65 32
Width: 1493
Flags: W
LayerCount: 2
Fore
SplineSet
2 85 m 1,0,-1
 145 114 l 1,1,-1
 666 1553 l 1,2,-1
 834 1553 l 1,3,-1
 1332 115 l 1,4,-1
 1491 85 l 1,5,-1
 1491 0 l 1,6,-1
 963 0 l 1,7,-1
 963 85 l 1,8,-1
 1129 115 l 1,9,-1
 1021 437 l 1,10,-1
 421 437 l 1,11,-1
 313 115 l 1,12,-1
 480 85 l 1,13,-1
 480 0 l 1,14,-1
 2 0 l 1,15,-1
 2 85 l 1,0,-1
982 554 m 1,16,-1
 819 1042 l 1,17,-1
 724 1343 l 1,18,-1
 460 554 l 1,19,-1
 982 554 l 1,16,-1
EndSplineSet
EndChar

StartChar: B
Encoding: 66 66 33
Width: 1419
Flags: W
LayerCount: 2
Fore
SplineSet
106 85 m 1,0,-1
 275 115 l 1,1,-1
 275 1438 l 1,2,-1
 110 1455 l 1,3,-1
 110 1553 l 1,4,-1
 363 1553 l 1,5,6
 429 1555 429 1555 519.5 1561.5 c 128,-1,7
 610 1568 610 1568 731 1567 c 0,8,9
 851 1566 851 1566 943.5 1541.5 c 128,-1,10
 1036 1517 1036 1517 1098 1471.5 c 128,-1,11
 1160 1426 1160 1426 1192 1361.5 c 128,-1,12
 1224 1297 1224 1297 1224 1217 c 0,13,14
 1224 1148 1224 1148 1206.5 1086 c 128,-1,15
 1189 1024 1189 1024 1153 974 c 128,-1,16
 1117 924 1117 924 1062 888 c 128,-1,17
 1007 852 1007 852 932 835 c 1,18,19
 1014 834 1014 834 1086 806.5 c 128,-1,20
 1158 779 1158 779 1211 729.5 c 128,-1,21
 1264 680 1264 680 1295 610.5 c 128,-1,22
 1326 541 1326 541 1326 456 c 0,23,24
 1326 355 1326 355 1286.5 269 c 128,-1,25
 1247 183 1247 183 1166.5 120 c 128,-1,26
 1086 57 1086 57 964.5 21.5 c 128,-1,27
 843 -14 843 -14 678 -14 c 0,28,29
 635 -14 635 -14 590 -12.5 c 128,-1,30
 545 -11 545 -11 503 -9 c 128,-1,31
 461 -7 461 -7 424 -4.5 c 128,-1,32
 387 -2 387 -2 361 0 c 1,33,-1
 106 0 l 1,34,-1
 106 85 l 1,0,-1
470 879 m 1,35,36
 495 874 495 874 526.5 872.5 c 128,-1,37
 558 871 558 871 590.5 871 c 128,-1,38
 623 871 623 871 654.5 871.5 c 128,-1,39
 686 872 686 872 711 872 c 0,40,41
 787 872 787 872 848 891.5 c 128,-1,42
 909 911 909 911 951.5 950 c 128,-1,43
 994 989 994 989 1017 1046.5 c 128,-1,44
 1040 1104 1040 1104 1040 1180 c 0,45,46
 1040 1250 1040 1250 1013.5 1302.5 c 128,-1,47
 987 1355 987 1355 940 1390 c 128,-1,48
 893 1425 893 1425 829.5 1442.5 c 128,-1,49
 766 1460 766 1460 691 1460 c 0,50,51
 672 1460 672 1460 642 1460.5 c 128,-1,52
 612 1461 612 1461 579.5 1460 c 128,-1,53
 547 1459 547 1459 518 1455.5 c 128,-1,54
 489 1452 489 1452 472 1445 c 1,55,-1
 470 879 l 1,35,36
470 135 m 1,56,57
 483 127 483 127 512.5 119.5 c 128,-1,58
 542 112 542 112 578 107 c 128,-1,59
 614 102 614 102 652.5 99 c 128,-1,60
 691 96 691 96 723 96 c 0,61,62
 805 96 805 96 877 113 c 128,-1,63
 949 130 949 130 1002.5 168 c 128,-1,64
 1056 206 1056 206 1087 267.5 c 128,-1,65
 1118 329 1118 329 1118 418 c 0,66,67
 1118 591 1118 591 1023.5 670.5 c 128,-1,68
 929 750 929 750 741 750 c 0,69,70
 706 750 706 750 669.5 750.5 c 128,-1,71
 633 751 633 751 597.5 750.5 c 128,-1,72
 562 750 562 750 529.5 749 c 128,-1,73
 497 748 497 748 470 745 c 1,74,-1
 470 135 l 1,56,57
EndSplineSet
EndChar

StartChar: C
Encoding: 67 67 34
Width: 1410
Flags: W
LayerCount: 2
Fore
SplineSet
86 724 m 0,0,1
 86 853 86 853 116 965.5 c 128,-1,2
 146 1078 146 1078 200 1172 c 128,-1,3
 254 1266 254 1266 329 1339 c 128,-1,4
 404 1412 404 1412 493.5 1463 c 128,-1,5
 583 1514 583 1514 684 1540.5 c 128,-1,6
 785 1567 785 1567 892 1567 c 0,7,8
 964 1567 964 1567 1026 1558.5 c 128,-1,9
 1088 1550 1088 1550 1140 1538.5 c 128,-1,10
 1192 1527 1192 1527 1234 1515 c 128,-1,11
 1276 1503 1276 1503 1309 1496 c 1,12,-1
 1293 1206 l 1,13,-1
 1187 1206 l 1,14,-1
 1135 1373 l 1,15,16
 1103 1394 1103 1394 1071 1409 c 128,-1,17
 1039 1424 1039 1424 1002.5 1433.5 c 128,-1,18
 966 1443 966 1443 923.5 1447 c 128,-1,19
 881 1451 881 1451 829 1451 c 0,20,21
 722 1451 722 1451 624.5 1407 c 128,-1,22
 527 1363 527 1363 452.5 1278 c 128,-1,23
 378 1193 378 1193 334 1069 c 128,-1,24
 290 945 290 945 290 786 c 0,25,26
 290 644 290 644 325.5 515.5 c 128,-1,27
 361 387 361 387 431.5 289.5 c 128,-1,28
 502 192 502 192 606 134.5 c 128,-1,29
 710 77 710 77 847 77 c 0,30,31
 968 77 968 77 1045 108.5 c 128,-1,32
 1122 140 1122 140 1167 197 c 1,33,-1
 1225 351 l 1,34,35
 1248 351 1248 351 1267.5 350.5 c 128,-1,36
 1287 350 1287 350 1310 350 c 1,37,-1
 1310 63 l 1,38,39
 1274 61 1274 61 1230.5 47 c 128,-1,40
 1187 33 1187 33 1127 16 c 128,-1,41
 1067 -1 1067 -1 987.5 -14.5 c 128,-1,42
 908 -28 908 -28 801 -28 c 0,43,44
 646 -28 646 -28 515 27 c 128,-1,45
 384 82 384 82 288.5 181.5 c 128,-1,46
 193 281 193 281 139.5 419 c 128,-1,47
 86 557 86 557 86 724 c 0,0,1
EndSplineSet
EndChar

StartChar: D
Encoding: 68 68 35
Width: 1593
Flags: W
LayerCount: 2
Fore
SplineSet
106 85 m 1,0,-1
 275 115 l 1,1,-1
 275 1437 l 1,2,-1
 110 1455 l 1,3,-1
 110 1553 l 1,4,-1
 373 1553 l 2,5,6
 440 1553 440 1553 489 1555 c 128,-1,7
 538 1557 538 1557 580 1560 c 128,-1,8
 622 1563 622 1563 662 1565 c 128,-1,9
 702 1567 702 1567 749 1567 c 0,10,11
 943 1568 943 1568 1085 1516.5 c 128,-1,12
 1227 1465 1227 1465 1320 1367.5 c 128,-1,13
 1413 1270 1413 1270 1458 1131 c 128,-1,14
 1503 992 1503 992 1503 817 c 0,15,16
 1503 620 1503 620 1442 465 c 128,-1,17
 1381 310 1381 310 1274.5 203 c 128,-1,18
 1168 96 1168 96 1023.5 41 c 128,-1,19
 879 -14 879 -14 713 -10 c 0,20,21
 639 -8 639 -8 557.5 -3.5 c 128,-1,22
 476 1 476 1 376 1 c 0,23,24
 308 1 308 1 241 0.5 c 128,-1,25
 174 0 174 0 106 0 c 1,26,-1
 106 85 l 1,0,-1
470 132 m 1,27,28
 534 114 534 114 602 106.5 c 128,-1,29
 670 99 670 99 748 101 c 0,30,31
 858 104 858 104 957.5 145 c 128,-1,32
 1057 186 1057 186 1133 267.5 c 128,-1,33
 1209 349 1209 349 1253.5 473.5 c 128,-1,34
 1298 598 1298 598 1298 768 c 0,35,36
 1298 945 1298 945 1255.5 1075.5 c 128,-1,37
 1213 1206 1213 1206 1134 1291.5 c 128,-1,38
 1055 1377 1055 1377 942 1418 c 128,-1,39
 829 1459 829 1459 689 1455 c 0,40,41
 648 1454 648 1454 617 1452 c 128,-1,42
 586 1450 586 1450 561 1448 c 128,-1,43
 536 1446 536 1446 514.5 1442.5 c 128,-1,44
 493 1439 493 1439 470 1435 c 1,45,-1
 470 132 l 1,27,28
EndSplineSet
EndChar

StartChar: E
Encoding: 69 69 36
Width: 1319
Flags: W
LayerCount: 2
Fore
SplineSet
102 85 m 1,0,-1
 271 115 l 1,1,-1
 271 1437 l 1,2,-1
 106 1455 l 1,3,-1
 106 1553 l 1,4,-1
 1144 1553 l 1,5,-1
 1173 1267 l 1,6,-1
 1063 1267 l 1,7,-1
 1017 1435 l 1,8,-1
 465 1448 l 1,9,-1
 465 865 l 1,10,-1
 837 872 l 1,11,-1
 867 1029 l 1,12,-1
 969 1029 l 1,13,-1
 969 599 l 1,14,-1
 867 599 l 1,15,-1
 837 752 l 1,16,-1
 465 758 l 1,17,-1
 465 108 l 1,18,-1
 1059 127 l 1,19,-1
 1159 334 l 1,20,-1
 1256 310 l 1,21,-1
 1211 0 l 1,22,-1
 102 0 l 1,23,-1
 102 85 l 1,0,-1
EndSplineSet
EndChar

StartChar: F
Encoding: 70 70 37
Width: 1238
Flags: W
LayerCount: 2
Fore
SplineSet
104 85 m 1,0,-1
 275 114 l 1,1,-1
 275 1438 l 1,2,-1
 110 1455 l 1,3,-1
 110 1553 l 1,4,-1
 1184 1553 l 1,5,-1
 1203 1268 l 1,6,-1
 1103 1266 l 1,7,-1
 1057 1429 l 1,8,-1
 469 1443 l 1,9,-1
 469 847 l 1,10,-1
 909 856 l 1,11,-1
 949 1001 l 1,12,-1
 1047 1001 l 1,13,-1
 1047 581 l 1,14,-1
 936 581 l 1,15,-1
 910 732 l 1,16,-1
 469 740 l 1,17,-1
 469 115 l 1,18,-1
 758 95 l 1,19,-1
 758 0 l 1,20,-1
 104 0 l 1,21,-1
 104 85 l 1,0,-1
EndSplineSet
EndChar

StartChar: G
Encoding: 71 71 38
Width: 1536
Flags: W
LayerCount: 2
Fore
SplineSet
86 724 m 0,0,1
 86 853 86 853 115 965.5 c 128,-1,2
 144 1078 144 1078 197 1172 c 128,-1,3
 250 1266 250 1266 323.5 1339 c 128,-1,4
 397 1412 397 1412 486 1463 c 128,-1,5
 575 1514 575 1514 677 1540.5 c 128,-1,6
 779 1567 779 1567 888 1567 c 0,7,8
 982 1567 982 1567 1055.5 1559.5 c 128,-1,9
 1129 1552 1129 1552 1185 1541.5 c 128,-1,10
 1241 1531 1241 1531 1281 1520 c 128,-1,11
 1321 1509 1321 1509 1347 1503 c 1,12,-1
 1331 1213 l 1,13,-1
 1225 1213 l 1,14,-1
 1173 1380 l 1,15,16
 1165 1390 1165 1390 1139.5 1402.5 c 128,-1,17
 1114 1415 1114 1415 1071 1426.5 c 128,-1,18
 1028 1438 1028 1438 966.5 1445 c 128,-1,19
 905 1452 905 1452 825 1451 c 0,20,21
 718 1449 718 1449 621 1403.5 c 128,-1,22
 524 1358 524 1358 450.5 1273 c 128,-1,23
 377 1188 377 1188 333.5 1065 c 128,-1,24
 290 942 290 942 290 786 c 0,25,26
 290 695 290 695 304.5 607.5 c 128,-1,27
 319 520 319 520 348 441.5 c 128,-1,28
 377 363 377 363 421.5 296 c 128,-1,29
 466 229 466 229 525.5 180.5 c 128,-1,30
 585 132 585 132 660.5 104.5 c 128,-1,31
 736 77 736 77 827 77 c 0,32,33
 870 77 870 77 916 81.5 c 128,-1,34
 962 86 962 86 1006 97.5 c 128,-1,35
 1050 109 1050 109 1089 129.5 c 128,-1,36
 1128 150 1128 150 1158 183 c 1,37,-1
 1158 593 l 1,38,-1
 915 610 l 1,39,-1
 915 708 l 1,40,-1
 1476 708 l 1,41,-1
 1476 610 l 1,42,-1
 1353 592 l 1,43,-1
 1353 81 l 1,44,45
 1320 79 1320 79 1260.5 62 c 128,-1,46
 1201 45 1201 45 1124.5 25 c 128,-1,47
 1048 5 1048 5 960 -11.5 c 128,-1,48
 872 -28 872 -28 781 -28 c 0,49,50
 626 -28 626 -28 498 28.5 c 128,-1,51
 370 85 370 85 278.5 185.5 c 128,-1,52
 187 286 187 286 136.5 423.5 c 128,-1,53
 86 561 86 561 86 724 c 0,0,1
EndSplineSet
EndChar

StartChar: H
Encoding: 72 72 39
Width: 1706
Flags: W
LayerCount: 2
Fore
SplineSet
106 85 m 1,0,-1
 275 115 l 1,1,-1
 275 1437 l 1,2,-1
 110 1455 l 1,3,-1
 110 1553 l 1,4,-1
 633 1553 l 1,5,-1
 633 1455 l 1,6,-1
 470 1438 l 1,7,-1
 470 814 l 1,8,-1
 1237 814 l 1,9,-1
 1237 1438 l 1,10,-1
 1072 1455 l 1,11,-1
 1072 1553 l 1,12,-1
 1592 1553 l 1,13,-1
 1592 1455 l 1,14,-1
 1431 1438 l 1,15,-1
 1431 115 l 1,16,-1
 1603 85 l 1,17,-1
 1603 0 l 1,18,-1
 1065 0 l 1,19,-1
 1065 85 l 1,20,-1
 1237 114 l 1,21,-1
 1237 696 l 1,22,-1
 470 696 l 1,23,-1
 470 115 l 1,24,-1
 642 85 l 1,25,-1
 642 0 l 1,26,-1
 106 0 l 1,27,-1
 106 85 l 1,0,-1
EndSplineSet
EndChar

StartChar: I
Encoding: 73 73 40
Width: 763
Flags: W
LayerCount: 2
Fore
SplineSet
105 85 m 1,0,-1
 284 114 l 1,1,-1
 284 1438 l 1,2,-1
 109 1455 l 1,3,-1
 109 1553 l 1,4,-1
 652 1553 l 1,5,-1
 652 1455 l 1,6,-1
 479 1437 l 1,7,-1
 479 115 l 1,8,-1
 661 85 l 1,9,-1
 661 0 l 1,10,-1
 105 0 l 1,11,-1
 105 85 l 1,0,-1
EndSplineSet
EndChar

StartChar: J
Encoding: 74 74 41
Width: 720
Flags: W
LayerCount: 2
Fore
SplineSet
238 -59 m 1,0,1
 253 -15 253 -15 262 33.5 c 128,-1,2
 271 82 271 82 276 138.5 c 128,-1,3
 281 195 281 195 282.5 259.5 c 128,-1,4
 284 324 284 324 284 401 c 2,5,-1
 284 1438 l 1,6,-1
 119 1455 l 1,7,-1
 119 1553 l 1,8,-1
 642 1553 l 1,9,-1
 642 1455 l 1,10,-1
 479 1437 l 1,11,-1
 479 550 l 2,12,13
 479 479 479 479 479.5 411.5 c 128,-1,14
 480 344 480 344 479 280.5 c 128,-1,15
 478 217 478 217 474 159 c 128,-1,16
 470 101 470 101 460 49 c 0,17,18
 440 -50 440 -50 390 -126 c 128,-1,19
 340 -202 340 -202 272 -257 c 128,-1,20
 204 -312 204 -312 124.5 -345 c 128,-1,21
 45 -378 45 -378 -34 -390 c 1,22,-1
 -86 -319 l 1,23,24
 -30 -301 -30 -301 20.5 -276 c 128,-1,25
 71 -251 71 -251 113 -219 c 128,-1,26
 155 -187 155 -187 187 -147 c 128,-1,27
 219 -107 219 -107 238 -59 c 1,0,1
EndSplineSet
EndChar

StartChar: K
Encoding: 75 75 42
Width: 1419
Flags: W
LayerCount: 2
Fore
SplineSet
106 85 m 1,0,-1
 275 114 l 1,1,-1
 275 1438 l 1,2,-1
 110 1455 l 1,3,-1
 110 1553 l 1,4,-1
 633 1553 l 1,5,-1
 633 1455 l 1,6,-1
 470 1437 l 1,7,-1
 470 748 l 1,8,-1
 1039 1437 l 1,9,-1
 884 1455 l 1,10,11
 884 1480 884 1480 883.5 1504 c 128,-1,12
 883 1528 883 1528 883 1553 c 1,13,-1
 1382 1553 l 1,14,-1
 1382 1455 l 1,15,-1
 1219 1437 l 1,16,-1
 750 897 l 1,17,18
 775 869 775 869 808 820.5 c 128,-1,19
 841 772 841 772 879 712.5 c 128,-1,20
 917 653 917 653 958.5 586 c 128,-1,21
 1000 519 1000 519 1041 453 c 128,-1,22
 1082 387 1082 387 1120 327 c 128,-1,23
 1158 267 1158 267 1190 221.5 c 128,-1,24
 1222 176 1222 176 1246.5 149 c 128,-1,25
 1271 122 1271 122 1283 122 c 1,26,-1
 1443 85 l 1,27,-1
 1443 0 l 1,28,-1
 1134 0 l 2,29,30
 1121 0 1121 0 1098.5 27 c 128,-1,31
 1076 54 1076 54 1047 99.5 c 128,-1,32
 1018 145 1018 145 983.5 204.5 c 128,-1,33
 949 264 949 264 912.5 329 c 128,-1,34
 876 394 876 394 838.5 460 c 128,-1,35
 801 526 801 526 765 585 c 128,-1,36
 729 644 729 644 696 691.5 c 128,-1,37
 663 739 663 739 636 766 c 1,38,-1
 470 574 l 1,39,-1
 470 113 l 1,40,-1
 653 85 l 1,41,-1
 653 0 l 1,42,-1
 106 0 l 1,43,-1
 106 85 l 1,0,-1
EndSplineSet
EndChar

StartChar: L
Encoding: 76 76 43
Width: 1244
Flags: W
LayerCount: 2
Fore
SplineSet
106 85 m 1,0,-1
 275 115 l 1,1,-1
 275 1427 l 1,2,-1
 110 1444 l 1,3,-1
 110 1553 l 1,4,-1
 648 1553 l 1,5,-1
 648 1444 l 1,6,-1
 471 1427 l 1,7,-1
 469 112 l 1,8,-1
 1004 136 l 1,9,-1
 1127 374 l 1,10,-1
 1214 331 l 1,11,-1
 1149 0 l 1,12,-1
 106 0 l 1,13,-1
 106 85 l 1,0,-1
EndSplineSet
EndChar

StartChar: M
Encoding: 77 77 44
Width: 1977
Flags: W
LayerCount: 2
Fore
SplineSet
77 85 m 1,0,-1
 249 114 l 1,1,-1
 349 1427 l 1,2,-1
 154 1444 l 1,3,-1
 154 1553 l 1,4,-1
 615 1553 l 1,5,-1
 975 463 l 1,6,-1
 1021 316 l 1,7,-1
 1067 467 l 1,8,-1
 1411 1553 l 1,9,-1
 1836 1553 l 1,10,-1
 1836 1444 l 1,11,-1
 1649 1427 l 1,12,-1
 1762 115 l 1,13,-1
 1934 85 l 1,14,-1
 1934 0 l 1,15,-1
 1414 0 l 1,16,-1
 1414 85 l 1,17,-1
 1578 114 l 1,18,-1
 1496 1050 l 1,19,-1
 1486 1396 l 1,20,-1
 1445 1233 l 1,21,-1
 1024 -15 l 1,22,-1
 957 -15 l 1,23,-1
 573 1079 l 2,24,25
 544 1160 544 1160 517 1242 c 128,-1,26
 490 1324 490 1324 462 1406 c 1,27,-1
 454 1064 l 1,28,-1
 405 115 l 1,29,-1
 595 85 l 1,30,-1
 595 0 l 1,31,-1
 77 0 l 1,32,-1
 77 85 l 1,0,-1
EndSplineSet
EndChar

StartChar: N
Encoding: 78 78 45
Width: 1662
Flags: W
LayerCount: 2
Fore
SplineSet
104 85 m 1,0,-1
 275 115 l 1,1,-1
 275 1427 l 1,2,-1
 110 1444 l 1,3,-1
 110 1553 l 1,4,-1
 465 1553 l 1,5,-1
 1134 458 l 1,6,-1
 1276 184 l 1,7,-1
 1276 1428 l 1,8,-1
 1112 1445 l 1,9,-1
 1112 1553 l 1,10,-1
 1585 1553 l 1,11,-1
 1585 1445 l 1,12,-1
 1419 1428 l 1,13,-1
 1419 0 l 1,14,-1
 1214 0 l 1,15,-1
 554 1040 l 1,16,-1
 418 1318 l 1,17,-1
 418 115 l 1,18,-1
 612 85 l 1,19,-1
 612 0 l 1,20,-1
 104 0 l 1,21,-1
 104 85 l 1,0,-1
EndSplineSet
EndChar

StartChar: O
Encoding: 79 79 46
Width: 1554
Flags: W
LayerCount: 2
Fore
SplineSet
87 752 m 0,0,1
 91 943 91 943 148.5 1093 c 128,-1,2
 206 1243 206 1243 303 1347 c 128,-1,3
 400 1451 400 1451 528 1507 c 128,-1,4
 656 1563 656 1563 801 1567 c 0,5,6
 957 1571 957 1571 1082 1513.5 c 128,-1,7
 1207 1456 1207 1456 1293.5 1351.5 c 128,-1,8
 1380 1247 1380 1247 1425 1102.5 c 128,-1,9
 1470 958 1470 958 1467 788 c 0,10,11
 1463 597 1463 597 1407.5 446.5 c 128,-1,12
 1352 296 1352 296 1258 191.5 c 128,-1,13
 1164 87 1164 87 1038.5 31 c 128,-1,14
 913 -25 913 -25 771 -28 c 0,15,16
 613 -31 613 -31 485 26.5 c 128,-1,17
 357 84 357 84 267.5 189 c 128,-1,18
 178 294 178 294 131 438 c 128,-1,19
 84 582 84 582 87 752 c 0,0,1
788 77 m 0,20,21
 898 77 898 77 984 125.5 c 128,-1,22
 1070 174 1070 174 1129.5 265.5 c 128,-1,23
 1189 357 1189 357 1220 488.5 c 128,-1,24
 1251 620 1251 620 1251 787 c 0,25,26
 1251 874 1251 874 1237.5 958 c 128,-1,27
 1224 1042 1224 1042 1197.5 1116.5 c 128,-1,28
 1171 1191 1171 1191 1132 1254.5 c 128,-1,29
 1093 1318 1093 1318 1041 1363.5 c 128,-1,30
 989 1409 989 1409 924.5 1435 c 128,-1,31
 860 1461 860 1461 784 1461 c 0,32,33
 674 1461 674 1461 585 1413 c 128,-1,34
 496 1365 496 1365 433.5 1274 c 128,-1,35
 371 1183 371 1183 337 1051.5 c 128,-1,36
 303 920 303 920 303 753 c 0,37,38
 303 622 303 622 335.5 500.5 c 128,-1,39
 368 379 368 379 430 284.5 c 128,-1,40
 492 190 492 190 582 133.5 c 128,-1,41
 672 77 672 77 788 77 c 0,20,21
EndSplineSet
EndChar

StartChar: P
Encoding: 80 80 47
Width: 1296
Flags: W
LayerCount: 2
Fore
SplineSet
86 85 m 1,0,-1
 275 115 l 1,1,-1
 275 1427 l 1,2,-1
 110 1444 l 1,3,-1
 110 1553 l 1,4,-1
 373 1553 l 2,5,6
 397 1553 397 1553 437 1555 c 128,-1,7
 477 1557 477 1557 525.5 1560 c 128,-1,8
 574 1563 574 1563 626.5 1565 c 128,-1,9
 679 1567 679 1567 729 1567 c 0,10,11
 844 1567 844 1567 940 1545 c 128,-1,12
 1036 1523 1036 1523 1105 1469.5 c 128,-1,13
 1174 1416 1174 1416 1212.5 1327 c 128,-1,14
 1251 1238 1251 1238 1251 1103 c 0,15,16
 1251 1022 1251 1022 1228.5 952 c 128,-1,17
 1206 882 1206 882 1166 825 c 128,-1,18
 1126 768 1126 768 1071 724 c 128,-1,19
 1016 680 1016 680 952 651 c 128,-1,20
 888 622 888 622 816.5 607.5 c 128,-1,21
 745 593 745 593 672 595 c 0,22,23
 596 597 596 597 549 596 c 128,-1,24
 502 595 502 595 470 590 c 1,25,-1
 470 115 l 1,26,-1
 737 85 l 1,27,-1
 737 0 l 1,28,-1
 86 0 l 1,29,-1
 86 85 l 1,0,-1
470 708 m 1,30,31
 527 700 527 700 575.5 698.5 c 128,-1,32
 624 697 624 697 669 697 c 0,33,34
 717 697 717 697 764.5 703.5 c 128,-1,35
 812 710 812 710 854.5 726.5 c 128,-1,36
 897 743 897 743 933.5 771.5 c 128,-1,37
 970 800 970 800 996.5 845 c 128,-1,38
 1023 890 1023 890 1038 952.5 c 128,-1,39
 1053 1015 1053 1015 1053 1100 c 0,40,41
 1053 1284 1053 1284 949.5 1373 c 128,-1,42
 846 1462 846 1462 653 1456 c 0,43,44
 604 1454 604 1454 559.5 1450.5 c 128,-1,45
 515 1447 515 1447 470 1436 c 1,46,-1
 470 708 l 1,30,31
EndSplineSet
EndChar

StartChar: Q
Encoding: 81 81 48
Width: 1554
Flags: W
LayerCount: 2
Fore
SplineSet
87 752 m 0,0,1
 91 943 91 943 148.5 1093 c 128,-1,2
 206 1243 206 1243 303 1347 c 128,-1,3
 400 1451 400 1451 528 1507 c 128,-1,4
 656 1563 656 1563 801 1567 c 0,5,6
 957 1571 957 1571 1082 1513.5 c 128,-1,7
 1207 1456 1207 1456 1293.5 1351.5 c 128,-1,8
 1380 1247 1380 1247 1425 1102.5 c 128,-1,9
 1470 958 1470 958 1467 788 c 0,10,11
 1464 620 1464 620 1420 483 c 128,-1,12
 1376 346 1376 346 1301 244.5 c 128,-1,13
 1226 143 1226 143 1124.5 78 c 128,-1,14
 1023 13 1023 13 905 -12 c 1,15,16
 929 -71 929 -71 974.5 -106 c 128,-1,17
 1020 -141 1020 -141 1075.5 -160 c 128,-1,18
 1131 -179 1131 -179 1190 -184.5 c 128,-1,19
 1249 -190 1249 -190 1300 -190 c 0,20,21
 1337 -190 1337 -190 1375 -182 c 128,-1,22
 1413 -174 1413 -174 1439 -157 c 1,23,-1
 1457 -280 l 1,24,25
 1437 -310 1437 -310 1378 -333 c 128,-1,26
 1319 -356 1319 -356 1234 -356 c 0,27,28
 1162 -356 1162 -356 1094 -341.5 c 128,-1,29
 1026 -327 1026 -327 967.5 -290.5 c 128,-1,30
 909 -254 909 -254 864 -190 c 128,-1,31
 819 -126 819 -126 793 -27 c 1,32,33
 788 -27 788 -27 782 -27.5 c 128,-1,34
 776 -28 776 -28 771 -28 c 0,35,36
 613 -31 613 -31 485 26.5 c 128,-1,37
 357 84 357 84 267.5 189 c 128,-1,38
 178 294 178 294 131 438 c 128,-1,39
 84 582 84 582 87 752 c 0,0,1
788 77 m 0,40,41
 898 77 898 77 984 125.5 c 128,-1,42
 1070 174 1070 174 1129.5 265.5 c 128,-1,43
 1189 357 1189 357 1220 488.5 c 128,-1,44
 1251 620 1251 620 1251 787 c 0,45,46
 1251 874 1251 874 1237.5 958 c 128,-1,47
 1224 1042 1224 1042 1197.5 1116.5 c 128,-1,48
 1171 1191 1171 1191 1132 1254.5 c 128,-1,49
 1093 1318 1093 1318 1041 1363.5 c 128,-1,50
 989 1409 989 1409 924.5 1435 c 128,-1,51
 860 1461 860 1461 784 1461 c 0,52,53
 674 1461 674 1461 585 1413 c 128,-1,54
 496 1365 496 1365 433.5 1274 c 128,-1,55
 371 1183 371 1183 337 1051.5 c 128,-1,56
 303 920 303 920 303 753 c 0,57,58
 303 622 303 622 335.5 500.5 c 128,-1,59
 368 379 368 379 430 284.5 c 128,-1,60
 492 190 492 190 582 133.5 c 128,-1,61
 672 77 672 77 788 77 c 0,40,41
EndSplineSet
EndChar

StartChar: R
Encoding: 82 82 49
Width: 1419
Flags: W
LayerCount: 2
Fore
SplineSet
86 85 m 1,0,-1
 275 115 l 1,1,-1
 275 1427 l 1,2,-1
 110 1444 l 1,3,-1
 110 1553 l 1,4,-1
 373 1553 l 2,5,6
 421 1553 421 1553 497 1560 c 128,-1,7
 573 1567 573 1567 673 1567 c 0,8,9
 788 1567 788 1567 884.5 1548 c 128,-1,10
 981 1529 981 1529 1051 1481.5 c 128,-1,11
 1121 1434 1121 1434 1160 1354 c 128,-1,12
 1199 1274 1199 1274 1199 1153 c 0,13,14
 1199 1075 1199 1075 1174.5 1006 c 128,-1,15
 1150 937 1150 937 1106 880.5 c 128,-1,16
 1062 824 1062 824 1000.5 781 c 128,-1,17
 939 738 939 738 864 712 c 1,18,19
 869 710 869 710 874 708 c 128,-1,20
 879 706 879 706 884 704 c 0,21,22
 931 680 931 680 975 629.5 c 128,-1,23
 1019 579 1019 579 1059.5 516 c 128,-1,24
 1100 453 1100 453 1137 385 c 128,-1,25
 1174 317 1174 317 1207.5 259.5 c 128,-1,26
 1241 202 1241 202 1270.5 162 c 128,-1,27
 1300 122 1300 122 1326 115 c 2,28,-1
 1433 85 l 1,29,-1
 1433 0 l 1,30,-1
 1144 0 l 2,31,32
 1125 0 1125 0 1102.5 30 c 128,-1,33
 1080 60 1080 60 1054 108.5 c 128,-1,34
 1028 157 1028 157 998.5 219.5 c 128,-1,35
 969 282 969 282 936.5 346 c 128,-1,36
 904 410 904 410 868.5 471 c 128,-1,37
 833 532 833 532 794.5 578.5 c 128,-1,38
 756 625 756 625 715 651.5 c 128,-1,39
 674 678 674 678 630 674 c 1,40,41
 595 672 595 672 555.5 672 c 128,-1,42
 516 672 516 672 470 672 c 1,43,-1
 470 114 l 1,44,-1
 677 85 l 1,45,-1
 677 0 l 1,46,-1
 86 0 l 1,47,-1
 86 85 l 1,0,-1
470 785 m 1,48,49
 482 783 482 783 505.5 782 c 128,-1,50
 529 781 529 781 555 780.5 c 128,-1,51
 581 780 581 780 606 779.5 c 128,-1,52
 631 779 631 779 647 779 c 0,53,54
 727 779 727 779 791.5 799 c 128,-1,55
 856 819 856 819 901 861.5 c 128,-1,56
 946 904 946 904 970.5 970.5 c 128,-1,57
 995 1037 995 1037 995 1130 c 0,58,59
 995 1207 995 1207 978 1269.5 c 128,-1,60
 961 1332 961 1332 921 1375.5 c 128,-1,61
 881 1419 881 1419 814 1441.5 c 128,-1,62
 747 1464 747 1464 647 1460 c 0,63,64
 598 1458 598 1458 553 1456.5 c 128,-1,65
 508 1455 508 1455 470 1444 c 1,66,-1
 470 785 l 1,48,49
EndSplineSet
EndChar

StartChar: S
Encoding: 83 83 50
Width: 1229
Flags: W
LayerCount: 2
Fore
SplineSet
154 383 m 1,0,-1
 242 383 l 1,1,-1
 305 184 l 1,2,3
 335 153 335 153 374 132.5 c 128,-1,4
 413 112 413 112 456.5 100 c 128,-1,5
 500 88 500 88 546.5 83 c 128,-1,6
 593 78 593 78 637 78 c 0,7,8
 692 78 692 78 746.5 93 c 128,-1,9
 801 108 801 108 844.5 140.5 c 128,-1,10
 888 173 888 173 915 223 c 128,-1,11
 942 273 942 273 942 343 c 0,12,13
 942 407 942 407 911 459 c 128,-1,14
 880 511 880 511 829 556 c 128,-1,15
 778 601 778 601 711.5 641 c 128,-1,16
 645 681 645 681 575 720 c 0,17,18
 499 762 499 762 425.5 808 c 128,-1,19
 352 854 352 854 294 908.5 c 128,-1,20
 236 963 236 963 200 1030 c 128,-1,21
 164 1097 164 1097 164 1181 c 0,22,23
 164 1251 164 1251 186 1307 c 128,-1,24
 208 1363 208 1363 244.5 1405.5 c 128,-1,25
 281 1448 281 1448 329.5 1479 c 128,-1,26
 378 1510 378 1510 431.5 1529.5 c 128,-1,27
 485 1549 485 1549 540 1558 c 128,-1,28
 595 1567 595 1567 645 1567 c 0,29,30
 718 1567 718 1567 779.5 1560 c 128,-1,31
 841 1553 841 1553 890 1541.5 c 128,-1,32
 939 1530 939 1530 974.5 1516.5 c 128,-1,33
 1010 1503 1010 1503 1032 1490 c 1,34,-1
 1032 1213 l 1,35,-1
 947 1213 l 1,36,-1
 869 1405 l 1,37,38
 851 1421 851 1421 825.5 1433 c 128,-1,39
 800 1445 800 1445 768.5 1453 c 128,-1,40
 737 1461 737 1461 701.5 1464.5 c 128,-1,41
 666 1468 666 1468 630 1468 c 0,42,43
 589 1468 589 1468 539.5 1455.5 c 128,-1,44
 490 1443 490 1443 447 1413.5 c 128,-1,45
 404 1384 404 1384 374.5 1335.5 c 128,-1,46
 345 1287 345 1287 345 1214 c 0,47,48
 345 1157 345 1157 372.5 1109 c 128,-1,49
 400 1061 400 1061 446.5 1020 c 128,-1,50
 493 979 493 979 553.5 942 c 128,-1,51
 614 905 614 905 680 870 c 0,52,53
 759 827 759 827 839 781 c 128,-1,54
 919 735 919 735 982.5 678.5 c 128,-1,55
 1046 622 1046 622 1086 553.5 c 128,-1,56
 1126 485 1126 485 1126 397 c 0,57,58
 1126 285 1126 285 1084 205.5 c 128,-1,59
 1042 126 1042 126 971 75 c 128,-1,60
 900 24 900 24 806.5 0.5 c 128,-1,61
 713 -23 713 -23 610 -23 c 0,62,63
 535 -23 535 -23 462.5 -15 c 128,-1,64
 390 -7 390 -7 328.5 5.5 c 128,-1,65
 267 18 267 18 221 33 c 128,-1,66
 175 48 175 48 154 61 c 1,67,-1
 154 383 l 1,0,-1
EndSplineSet
EndChar

StartChar: T
Encoding: 84 84 51
Width: 1270
Flags: W
LayerCount: 2
Fore
SplineSet
309 85 m 1,0,-1
 554 115 l 1,1,-1
 554 1442 l 1,2,-1
 191 1422 l 1,3,-1
 121 1251 l 1,4,-1
 30 1249 l 1,5,-1
 55 1553 l 1,6,-1
 1246 1553 l 1,7,-1
 1244 1246 l 1,8,-1
 1162 1237 l 1,9,-1
 1110 1423 l 1,10,-1
 749 1442 l 1,11,-1
 749 115 l 1,12,-1
 1010 85 l 1,13,-1
 1010 0 l 1,14,-1
 309 0 l 1,15,-1
 309 85 l 1,0,-1
EndSplineSet
EndChar

StartChar: U
Encoding: 85 85 52
Width: 1576
Flags: W
LayerCount: 2
Fore
SplineSet
191 661 m 0,0,1
 191 856 191 856 191.5 1049 c 128,-1,2
 192 1242 192 1242 192 1437 c 1,3,-1
 33 1455 l 1,4,-1
 33 1553 l 1,5,-1
 566 1553 l 1,6,-1
 566 1455 l 1,7,-1
 387 1436 l 1,8,-1
 387 656 l 2,9,10
 387 487 387 487 421 375 c 128,-1,11
 455 263 455 263 515.5 196.5 c 128,-1,12
 576 130 576 130 658.5 102.5 c 128,-1,13
 741 75 741 75 839 75 c 0,14,15
 944 75 944 75 1019.5 117.5 c 128,-1,16
 1095 160 1095 160 1143 239 c 128,-1,17
 1191 318 1191 318 1214 431 c 128,-1,18
 1237 544 1237 544 1237 686 c 2,19,-1
 1237 1436 l 1,20,-1
 1055 1455 l 1,21,-1
 1055 1553 l 1,22,-1
 1545 1553 l 1,23,-1
 1545 1455 l 1,24,-1
 1387 1436 l 1,25,-1
 1387 687 l 2,26,27
 1387 499 1387 499 1344.5 364 c 128,-1,28
 1302 229 1302 229 1225 142 c 128,-1,29
 1148 55 1148 55 1041 13.5 c 128,-1,30
 934 -28 934 -28 806 -28 c 0,31,32
 636 -28 636 -28 518.5 16.5 c 128,-1,33
 401 61 401 61 328 148 c 128,-1,34
 255 235 255 235 223 363.5 c 128,-1,35
 191 492 191 492 191 661 c 0,0,1
EndSplineSet
EndChar

StartChar: V
Encoding: 86 86 53
Width: 1425
Flags: W
LayerCount: 2
Fore
SplineSet
137 1439 m 1,0,-1
 5 1455 l 1,1,-1
 5 1553 l 1,2,-1
 542 1553 l 1,3,-1
 542 1455 l 1,4,-1
 362 1437 l 1,5,-1
 701 413 l 1,6,-1
 770 195 l 1,7,-1
 830 415 l 1,8,-1
 1129 1438 l 1,9,-1
 964 1455 l 1,10,-1
 964 1552 l 1,11,-1
 1420 1552 l 1,12,-1
 1420 1455 l 1,13,-1
 1299 1439 l 1,14,-1
 813 -20 l 1,15,-1
 663 -20 l 1,16,-1
 137 1439 l 1,0,-1
EndSplineSet
EndChar

StartChar: W
Encoding: 87 87 54
Width: 2101
Flags: W
LayerCount: 2
Fore
SplineSet
135 1438 m 1,0,-1
 5 1454 l 1,1,-1
 5 1553 l 1,2,-1
 540 1553 l 1,3,-1
 540 1454 l 1,4,-1
 351 1437 l 1,5,-1
 664 408 l 2,6,7
 679 359 679 359 694 311 c 128,-1,8
 709 263 709 263 725 214 c 1,9,-1
 787 396 l 1,10,-1
 999 1258 l 1,11,-1
 943 1438 l 1,12,-1
 781 1454 l 1,13,-1
 781 1553 l 1,14,-1
 1326 1553 l 1,15,-1
 1326 1454 l 1,16,-1
 1152 1438 l 1,17,-1
 1424 388 l 1,18,-1
 1473 197 l 1,19,-1
 1524 426 l 1,20,-1
 1785 1438 l 1,21,-1
 1612 1454 l 1,22,-1
 1612 1553 l 1,23,-1
 2096 1553 l 1,24,-1
 2096 1454 l 1,25,-1
 1948 1438 l 1,26,-1
 1521 -20 l 1,27,-1
 1360 -20 l 1,28,-1
 1073 995 l 1,29,-1
 789 -20 l 1,30,-1
 625 -20 l 1,31,-1
 135 1438 l 1,0,-1
EndSplineSet
EndChar

StartChar: X
Encoding: 88 88 55
Width: 1420
Flags: W
LayerCount: 2
Fore
SplineSet
15 85 m 1,0,-1
 192 114 l 1,1,-1
 620 781 l 1,2,-1
 200 1438 l 1,3,-1
 51 1455 l 1,4,-1
 51 1553 l 1,5,-1
 612 1553 l 1,6,-1
 612 1455 l 1,7,-1
 435 1438 l 1,8,-1
 748 899 l 1,9,-1
 1057 1438 l 1,10,-1
 903 1455 l 1,11,-1
 903 1553 l 1,12,-1
 1380 1553 l 1,13,-1
 1380 1455 l 1,14,-1
 1236 1439 l 1,15,-1
 820 820 l 1,16,-1
 1260 115 l 1,17,-1
 1425 85 l 1,18,-1
 1425 0 l 1,19,-1
 850 0 l 1,20,-1
 850 85 l 1,21,-1
 1036 114 l 1,22,-1
 686 683 l 1,23,-1
 372 115 l 1,24,-1
 564 85 l 1,25,-1
 564 0 l 1,26,-1
 15 0 l 1,27,-1
 15 85 l 1,0,-1
EndSplineSet
EndChar

StartChar: Y
Encoding: 89 89 56
Width: 1352
Flags: W
LayerCount: 2
Fore
SplineSet
402 85 m 1,0,-1
 606 116 l 1,1,-1
 606 638 l 1,2,-1
 126 1438 l 1,3,-1
 12 1455 l 1,4,-1
 12 1553 l 1,5,-1
 504 1553 l 1,6,-1
 504 1455 l 1,7,-1
 350 1437 l 1,8,-1
 668 845 l 1,9,-1
 716 744 l 1,10,-1
 761 847 l 1,11,-1
 1049 1436 l 1,12,-1
 879 1455 l 1,13,-1
 879 1553 l 1,14,-1
 1339 1553 l 1,15,-1
 1339 1455 l 1,16,-1
 1209 1428 l 1,17,-1
 801 637 l 1,18,-1
 801 116 l 1,19,-1
 1015 85 l 1,20,-1
 1015 0 l 1,21,-1
 402 0 l 1,22,-1
 402 85 l 1,0,-1
EndSplineSet
EndChar

StartChar: Z
Encoding: 90 90 57
Width: 1352
Flags: W
LayerCount: 2
Fore
SplineSet
92 89 m 1,0,-1
 960 1324 l 1,1,-1
 1063 1444 l 1,2,-1
 351 1421 l 1,3,-1
 256 1193 l 1,4,-1
 149 1212 l 1,5,-1
 181 1553 l 1,6,-1
 1254 1553 l 1,7,-1
 1282 1467 l 1,8,-1
 419 232 l 1,9,-1
 322 111 l 1,10,-1
 1071 149 l 1,11,-1
 1201 404 l 1,12,-1
 1300 380 l 1,13,-1
 1229 0 l 1,14,-1
 118 0 l 1,15,-1
 92 89 l 1,0,-1
EndSplineSet
EndChar

StartChar: bracketleft
Encoding: 91 91 58
Width: 855
Flags: W
LayerCount: 2
Fore
SplineSet
200 1486 m 2,0,1
 200 1560 200 1560 208 1608.5 c 128,-1,2
 216 1657 216 1657 237 1685.5 c 128,-1,3
 258 1714 258 1714 295 1725.5 c 128,-1,4
 332 1737 332 1737 390 1737 c 0,5,6
 431 1737 431 1737 465.5 1733 c 128,-1,7
 500 1729 500 1729 531.5 1723 c 128,-1,8
 563 1717 563 1717 593 1709 c 128,-1,9
 623 1701 623 1701 655 1693 c 1,10,11
 655 1671 655 1671 654.5 1650 c 128,-1,12
 654 1629 654 1629 654 1607 c 1,13,-1
 363 1607 l 1,14,-1
 363 -59 l 1,15,-1
 654 -61 l 1,16,17
 654 -83 654 -83 654.5 -104 c 128,-1,18
 655 -125 655 -125 655 -147 c 1,19,20
 623 -156 623 -156 593 -164 c 128,-1,21
 563 -172 563 -172 531.5 -178 c 128,-1,22
 500 -184 500 -184 465.5 -187.5 c 128,-1,23
 431 -191 431 -191 390 -191 c 0,24,25
 332 -191 332 -191 295 -179.5 c 128,-1,26
 258 -168 258 -168 237 -139.5 c 128,-1,27
 216 -111 216 -111 208 -62.5 c 128,-1,28
 200 -14 200 -14 200 60 c 2,29,-1
 200 1486 l 2,0,1
EndSplineSet
EndChar

StartChar: backslash
Encoding: 92 92 59
Width: 816
Flags: W
LayerCount: 2
Fore
SplineSet
603 -363 m 1,0,-1
 30 1599 l 1,1,-1
 213 1599 l 1,2,-1
 786 -363 l 1,3,-1
 603 -363 l 1,0,-1
EndSplineSet
EndChar

StartChar: bracketright
Encoding: 93 93 60
Width: 855
Flags: W
LayerCount: 2
Fore
SplineSet
201 -61 m 1,0,-1
 492 -59 l 1,1,-1
 492 1607 l 1,2,-1
 201 1607 l 1,3,4
 201 1629 201 1629 200.5 1650 c 128,-1,5
 200 1671 200 1671 200 1693 c 1,6,7
 232 1701 232 1701 262 1709 c 128,-1,8
 292 1717 292 1717 323.5 1723 c 128,-1,9
 355 1729 355 1729 389.5 1733 c 128,-1,10
 424 1737 424 1737 465 1737 c 0,11,12
 523 1737 523 1737 560 1725.5 c 128,-1,13
 597 1714 597 1714 618 1685.5 c 128,-1,14
 639 1657 639 1657 647 1608.5 c 128,-1,15
 655 1560 655 1560 655 1486 c 2,16,-1
 655 60 l 2,17,18
 655 -14 655 -14 647 -62.5 c 128,-1,19
 639 -111 639 -111 618 -139.5 c 128,-1,20
 597 -168 597 -168 560 -179.5 c 128,-1,21
 523 -191 523 -191 465 -191 c 0,22,23
 424 -191 424 -191 389.5 -187.5 c 128,-1,24
 355 -184 355 -184 323.5 -178 c 128,-1,25
 292 -172 292 -172 262 -164 c 128,-1,26
 232 -156 232 -156 200 -147 c 1,27,28
 200 -125 200 -125 200.5 -104 c 128,-1,29
 201 -83 201 -83 201 -61 c 1,0,-1
EndSplineSet
EndChar

StartChar: asciicircum
Encoding: 94 94 61
Width: 1320
Flags: W
LayerCount: 2
Fore
SplineSet
561 1531 m 1,0,-1
 758 1531 l 1,1,-1
 1142 564 l 1,2,3
 1098 564 1098 564 1054.5 563.5 c 128,-1,4
 1011 563 1011 563 967 563 c 1,5,-1
 650 1326 l 1,6,-1
 333 563 l 1,7,8
 294 563 294 563 255.5 563.5 c 128,-1,9
 217 564 217 564 178 564 c 1,10,-1
 561 1531 l 1,0,-1
EndSplineSet
EndChar

StartChar: underscore
Encoding: 95 95 62
Width: 1415
Flags: W
LayerCount: 2
Fore
SplineSet
1435 -192 m 1,0,-1
 1435 -339 l 1,1,-1
 -20 -339 l 1,2,-1
 -20 -192 l 1,3,-1
 1435 -192 l 1,0,-1
EndSplineSet
EndChar

StartChar: grave
Encoding: 96 96 63
Width: 884
Flags: W
LayerCount: 2
Fore
SplineSet
609 1340 m 1,0,1
 568 1359 568 1359 513.5 1389.5 c 128,-1,2
 459 1420 459 1420 404.5 1458.5 c 128,-1,3
 350 1497 350 1497 301 1541 c 128,-1,4
 252 1585 252 1585 222 1631 c 1,5,-1
 368 1780 l 1,6,-1
 662 1394 l 1,7,-1
 609 1340 l 1,0,1
EndSplineSet
EndChar

StartChar: a
Encoding: 97 97 64
Width: 1145
Flags: W
LayerCount: 2
Fore
SplineSet
110 322 m 0,0,1
 117 392 117 392 155 444.5 c 128,-1,2
 193 497 193 497 249 535 c 128,-1,3
 305 573 305 573 373.5 598 c 128,-1,4
 442 623 442 623 511 638 c 128,-1,5
 580 653 580 653 644 659 c 128,-1,6
 708 665 708 665 755 665 c 1,7,-1
 755 752 l 2,8,9
 755 831 755 831 734 880.5 c 128,-1,10
 713 930 713 930 676 958 c 128,-1,11
 639 986 639 986 589 996 c 128,-1,12
 539 1006 539 1006 481 1006 c 0,13,14
 452 1006 452 1006 416 1000.5 c 128,-1,15
 380 995 380 995 341.5 985 c 128,-1,16
 303 975 303 975 264 961 c 128,-1,17
 225 947 225 947 190 930 c 1,18,-1
 153 1020 l 1,19,20
 190 1050 190 1050 243.5 1072.5 c 128,-1,21
 297 1095 297 1095 353.5 1110 c 128,-1,22
 410 1125 410 1125 463.5 1132 c 128,-1,23
 517 1139 517 1139 555 1139 c 0,24,25
 634 1139 634 1139 705.5 1122.5 c 128,-1,26
 777 1106 777 1106 831 1064.5 c 128,-1,27
 885 1023 885 1023 916.5 952.5 c 128,-1,28
 948 882 948 882 948 773 c 2,29,-1
 946 85 l 1,30,-1
 1074 85 l 1,31,-1
 1074 19 l 1,32,33
 1039 0 1039 0 987.5 -12 c 128,-1,34
 936 -24 936 -24 884 -24 c 0,35,36
 866 -24 866 -24 845 -21.5 c 128,-1,37
 824 -19 824 -19 806.5 -9 c 128,-1,38
 789 1 789 1 777.5 22 c 128,-1,39
 766 43 766 43 766 80 c 2,40,-1
 766 108 l 1,41,42
 743 80 743 80 711.5 56 c 128,-1,43
 680 32 680 32 639.5 14 c 128,-1,44
 599 -4 599 -4 547.5 -14 c 128,-1,45
 496 -24 496 -24 433 -24 c 0,46,47
 355 -24 355 -24 291.5 4 c 128,-1,48
 228 32 228 32 185.5 79.5 c 128,-1,49
 143 127 143 127 122.5 189.5 c 128,-1,50
 102 252 102 252 110 322 c 0,0,1
304 318 m 0,51,52
 304 259 304 259 320 218 c 128,-1,53
 336 177 336 177 366.5 151.5 c 128,-1,54
 397 126 397 126 441 114.5 c 128,-1,55
 485 103 485 103 540 103 c 0,56,57
 570 103 570 103 601 111 c 128,-1,58
 632 119 632 119 660.5 131 c 128,-1,59
 689 143 689 143 713.5 158.5 c 128,-1,60
 738 174 738 174 753 189 c 1,61,62
 753 283 753 283 753.5 375.5 c 128,-1,63
 754 468 754 468 755 562 c 1,64,65
 713 562 713 562 663 557.5 c 128,-1,66
 613 553 613 553 563 542 c 128,-1,67
 513 531 513 531 466 513 c 128,-1,68
 419 495 419 495 383 467.5 c 128,-1,69
 347 440 347 440 325.5 403 c 128,-1,70
 304 366 304 366 304 318 c 0,51,52
EndSplineSet
EndChar

StartChar: b
Encoding: 98 98 65
Width: 1264
Flags: W
LayerCount: 2
Fore
SplineSet
203 1466 m 1,0,-1
 32 1502 l 1,1,-1
 32 1589 l 1,2,-1
 355 1625 l 1,3,-1
 395 1608 l 1,4,-1
 395 1024 l 1,5,6
 422 1047 422 1047 454.5 1070 c 128,-1,7
 487 1093 487 1093 526.5 1111.5 c 128,-1,8
 566 1130 566 1130 614 1141.5 c 128,-1,9
 662 1153 662 1153 720 1153 c 0,10,11
 804 1153 804 1153 884 1123.5 c 128,-1,12
 964 1094 964 1094 1026 1028.5 c 128,-1,13
 1088 963 1088 963 1126 859 c 128,-1,14
 1164 755 1164 755 1164 605 c 0,15,16
 1164 477 1164 477 1123 362 c 128,-1,17
 1082 247 1082 247 1007.5 160.5 c 128,-1,18
 933 74 933 74 828.5 23 c 128,-1,19
 724 -28 724 -28 598 -28 c 0,20,21
 527 -28 527 -28 460.5 -20 c 128,-1,22
 394 -12 394 -12 340.5 0 c 128,-1,23
 287 12 287 12 250 25.5 c 128,-1,24
 213 39 213 39 203 50 c 1,25,-1
 203 1466 l 1,0,-1
395 158 m 1,26,27
 411 116 411 116 472.5 96.5 c 128,-1,28
 534 77 534 77 621 77 c 0,29,30
 686 77 686 77 748.5 106 c 128,-1,31
 811 135 811 135 860.5 195 c 128,-1,32
 910 255 910 255 940.5 348 c 128,-1,33
 971 441 971 441 973 569 c 0,34,35
 975 689 975 689 946.5 774 c 128,-1,36
 918 859 918 859 871 912 c 128,-1,37
 824 965 824 965 763.5 989.5 c 128,-1,38
 703 1014 703 1014 640 1014 c 0,39,40
 596 1014 596 1014 558.5 1005 c 128,-1,41
 521 996 521 996 490.5 982 c 128,-1,42
 460 968 460 968 435.5 951.5 c 128,-1,43
 411 935 411 935 395 920 c 1,44,-1
 395 158 l 1,26,27
EndSplineSet
EndChar

StartChar: c
Encoding: 99 99 66
Width: 1045
Flags: W
LayerCount: 2
Fore
SplineSet
104 538 m 0,0,1
 103 676 103 676 145 787 c 128,-1,2
 187 898 187 898 260.5 977 c 128,-1,3
 334 1056 334 1056 433.5 1100 c 128,-1,4
 533 1144 533 1144 648 1149 c 0,5,6
 690 1150 690 1150 733.5 1147.5 c 128,-1,7
 777 1145 777 1145 815.5 1138.5 c 128,-1,8
 854 1132 854 1132 886 1122 c 128,-1,9
 918 1112 918 1112 938 1099 c 1,10,-1
 938 859 l 1,11,-1
 843 859 l 1,12,-1
 792 985 l 1,13,14
 776 998 776 998 755 1007 c 128,-1,15
 734 1016 734 1016 712 1022 c 128,-1,16
 690 1028 690 1028 668 1030.5 c 128,-1,17
 646 1033 646 1033 628 1033 c 0,18,19
 561 1033 561 1033 500 1008 c 128,-1,20
 439 983 439 983 392 932.5 c 128,-1,21
 345 882 345 882 317 805.5 c 128,-1,22
 289 729 289 729 288 626 c 0,23,24
 287 490 287 490 320 393 c 128,-1,25
 353 296 353 296 406 234.5 c 128,-1,26
 459 173 459 173 524 144.5 c 128,-1,27
 589 116 589 116 652 116 c 0,28,29
 691 116 691 116 733 121 c 128,-1,30
 775 126 775 126 814 134 c 128,-1,31
 853 142 853 142 886 153.5 c 128,-1,32
 919 165 919 165 940 177 c 1,33,-1
 974 88 l 1,34,35
 945 62 945 62 902 42 c 128,-1,36
 859 22 859 22 807.5 8 c 128,-1,37
 756 -6 756 -6 699.5 -13.5 c 128,-1,38
 643 -21 643 -21 586 -21 c 0,39,40
 470 -21 470 -21 381 21 c 128,-1,41
 292 63 292 63 230.5 138 c 128,-1,42
 169 213 169 213 137 315.5 c 128,-1,43
 105 418 105 418 104 538 c 0,0,1
EndSplineSet
EndChar

StartChar: d
Encoding: 100 100 67
Width: 1269
Flags: W
LayerCount: 2
Fore
SplineSet
537 -24 m 0,0,1
 453 -24 453 -24 374 9.5 c 128,-1,2
 295 43 295 43 234.5 112.5 c 128,-1,3
 174 182 174 182 137 288.5 c 128,-1,4
 100 395 100 395 100 541 c 0,5,6
 100 675 100 675 145 787.5 c 128,-1,7
 190 900 190 900 268 981 c 128,-1,8
 346 1062 346 1062 451.5 1107.5 c 128,-1,9
 557 1153 557 1153 678 1153 c 0,10,11
 731 1153 731 1153 781 1146 c 128,-1,12
 831 1139 831 1139 867 1127 c 1,13,-1
 867 1460 l 1,14,-1
 654 1496 l 1,15,-1
 654 1583 l 1,16,-1
 1014 1625 l 1,17,-1
 1059 1602 l 1,18,-1
 1059 85 l 1,19,-1
 1194 85 l 1,20,-1
 1194 10 l 1,21,22
 1177 1 1177 1 1151.5 -7 c 128,-1,23
 1126 -15 1126 -15 1097.5 -21 c 128,-1,24
 1069 -27 1069 -27 1039.5 -30 c 128,-1,25
 1010 -33 1010 -33 984 -33 c 0,26,27
 966 -33 966 -33 946.5 -30.5 c 128,-1,28
 927 -28 927 -28 911 -18 c 128,-1,29
 895 -8 895 -8 884.5 13 c 128,-1,30
 874 34 874 34 874 71 c 2,31,-1
 874 96 l 1,32,33
 859 79 859 79 830 58 c 128,-1,34
 801 37 801 37 758 19 c 128,-1,35
 715 1 715 1 659.5 -11.5 c 128,-1,36
 604 -24 604 -24 537 -24 c 0,0,1
614 113 m 0,37,38
 646 113 646 113 673.5 116.5 c 128,-1,39
 701 120 701 120 725 126 c 0,40,41
 774 138 774 138 809 158 c 128,-1,42
 844 178 844 178 867 201 c 1,43,-1
 867 966 l 1,44,45
 856 979 856 979 840 993 c 128,-1,46
 824 1007 824 1007 798.5 1019 c 128,-1,47
 773 1031 773 1031 737.5 1038.5 c 128,-1,48
 702 1046 702 1046 654 1046 c 0,49,50
 616 1046 616 1046 575 1036.5 c 128,-1,51
 534 1027 534 1027 494 1005 c 128,-1,52
 454 983 454 983 418 948 c 128,-1,53
 382 913 382 913 354 862.5 c 128,-1,54
 326 812 326 812 309 744.5 c 128,-1,55
 292 677 292 677 291 590 c 0,56,57
 289 467 289 467 316 377 c 128,-1,58
 343 287 343 287 388.5 228.5 c 128,-1,59
 434 170 434 170 493 141.5 c 128,-1,60
 552 113 552 113 614 113 c 0,37,38
EndSplineSet
EndChar

StartChar: e
Encoding: 101 101 68
Width: 1145
Flags: W
LayerCount: 2
Fore
SplineSet
100 556 m 0,0,1
 100 684 100 684 140.5 792 c 128,-1,2
 181 900 181 900 253.5 979 c 128,-1,3
 326 1058 326 1058 428 1103.5 c 128,-1,4
 530 1149 530 1149 653 1152 c 0,5,6
 741 1154 741 1154 812 1126.5 c 128,-1,7
 883 1099 883 1099 933 1045 c 128,-1,8
 983 991 983 991 1011.5 913 c 128,-1,9
 1040 835 1040 835 1044 736 c 0,10,11
 1046 673 1046 673 1041.5 627 c 128,-1,12
 1037 581 1037 581 1032 545 c 1,13,-1
 291 545 l 1,14,15
 291 539 291 539 291 533.5 c 128,-1,16
 291 528 291 528 292 522 c 0,17,18
 296 401 296 401 333 322 c 128,-1,19
 370 243 370 243 425.5 196.5 c 128,-1,20
 481 150 481 150 548 131.5 c 128,-1,21
 615 113 615 113 679 113 c 0,22,23
 718 113 718 113 761 117.5 c 128,-1,24
 804 122 804 122 844.5 130.5 c 128,-1,25
 885 139 885 139 919.5 150 c 128,-1,26
 954 161 954 161 975 173 c 1,27,-1
 1012 88 l 1,28,29
 983 62 983 62 936.5 41 c 128,-1,30
 890 20 890 20 835 5.5 c 128,-1,31
 780 -9 780 -9 720 -16.5 c 128,-1,32
 660 -24 660 -24 603 -24 c 0,33,34
 482 -24 482 -24 388.5 17.5 c 128,-1,35
 295 59 295 59 231 134.5 c 128,-1,36
 167 210 167 210 133.5 317 c 128,-1,37
 100 424 100 424 100 556 c 0,0,1
840 663 m 1,38,39
 843 714 843 714 841.5 765.5 c 128,-1,40
 840 817 840 817 829 863.5 c 128,-1,41
 818 910 818 910 795.5 948.5 c 128,-1,42
 773 987 773 987 735 1011 c 0,43,44
 709 1028 709 1028 676 1036.5 c 128,-1,45
 643 1045 643 1045 601 1045 c 0,46,47
 545 1045 545 1045 492.5 1024 c 128,-1,48
 440 1003 440 1003 398.5 957 c 128,-1,49
 357 911 357 911 329 838.5 c 128,-1,50
 301 766 301 766 293 663 c 1,51,-1
 840 663 l 1,38,39
EndSplineSet
EndChar

StartChar: f
Encoding: 102 102 69
Width: 837
Flags: W
LayerCount: 2
Fore
SplineSet
110 85 m 1,0,-1
 311 107 l 1,1,-1
 311 984 l 1,2,-1
 91 984 l 1,3,-1
 91 1060 l 1,4,-1
 311 1119 l 1,5,-1
 311 1202 l 2,6,7
 311 1276 311 1276 329.5 1341.5 c 128,-1,8
 348 1407 348 1407 379.5 1461 c 128,-1,9
 411 1515 411 1515 452.5 1557.5 c 128,-1,10
 494 1600 494 1600 539.5 1629 c 128,-1,11
 585 1658 585 1658 632 1673.5 c 128,-1,12
 679 1689 679 1689 721 1689 c 0,13,14
 789 1689 789 1689 821 1683 c 128,-1,15
 853 1677 853 1677 864 1672 c 1,16,-1
 864 1502 l 1,17,18
 850 1510 850 1510 801.5 1521.5 c 128,-1,19
 753 1533 753 1533 681 1533 c 0,20,21
 640 1533 640 1533 607.5 1526 c 128,-1,22
 575 1519 575 1519 551.5 1493.5 c 128,-1,23
 528 1468 528 1468 515.5 1418.5 c 128,-1,24
 503 1369 503 1369 503 1284 c 2,25,-1
 503 1119 l 1,26,-1
 805 1119 l 1,27,-1
 805 984 l 1,28,-1
 503 984 l 1,29,-1
 503 105 l 1,30,-1
 733 85 l 1,31,-1
 733 0 l 1,32,-1
 110 0 l 1,33,-1
 110 85 l 1,0,-1
EndSplineSet
EndChar

StartChar: g
Encoding: 103 103 70
Width: 1203
Flags: W
LayerCount: 2
Fore
SplineSet
127 -233 m 0,0,1
 127 -187 127 -187 143.5 -145 c 128,-1,2
 160 -103 160 -103 185 -68 c 128,-1,3
 210 -33 210 -33 239.5 -5.5 c 128,-1,4
 269 22 269 22 296 39 c 1,5,6
 251 55 251 55 228 76 c 128,-1,7
 205 97 205 97 195.5 120 c 128,-1,8
 186 143 186 143 185 167 c 128,-1,9
 184 191 184 191 184 212 c 0,10,11
 184 230 184 230 192 259 c 128,-1,12
 200 288 200 288 215.5 321 c 128,-1,13
 231 354 231 354 254.5 388 c 128,-1,14
 278 422 278 422 308 449 c 1,15,16
 233 494 233 494 189.5 569.5 c 128,-1,17
 146 645 146 645 146 754 c 0,18,19
 146 857 146 857 185.5 933 c 128,-1,20
 225 1009 225 1009 289.5 1059 c 128,-1,21
 354 1109 354 1109 436 1134 c 128,-1,22
 518 1159 518 1159 602 1161 c 0,23,24
 687 1163 687 1163 761.5 1143.5 c 128,-1,25
 836 1124 836 1124 893 1081 c 1,26,27
 913 1104 913 1104 951.5 1118.5 c 128,-1,28
 990 1133 990 1133 1054 1133 c 2,29,-1
 1175 1133 l 1,30,-1
 1175 982 l 1,31,-1
 979 982 l 1,32,33
 1000 944 1000 944 1011.5 896 c 128,-1,34
 1023 848 1023 848 1023 791 c 0,35,36
 1023 692 1023 692 986.5 615.5 c 128,-1,37
 950 539 950 539 888.5 487 c 128,-1,38
 827 435 827 435 746.5 408 c 128,-1,39
 666 381 666 381 578 381 c 0,40,41
 460 381 460 381 367 418 c 1,42,43
 361 402 361 402 358.5 383.5 c 128,-1,44
 356 365 356 365 355.5 347.5 c 128,-1,45
 355 330 355 330 355.5 314.5 c 128,-1,46
 356 299 356 299 356 289 c 0,47,48
 356 235 356 235 384.5 205 c 128,-1,49
 413 175 413 175 484 169 c 0,50,51
 529 165 529 165 592 164.5 c 128,-1,52
 655 164 655 164 742 164 c 0,53,54
 835 164 835 164 901 149.5 c 128,-1,55
 967 135 967 135 1010.5 111 c 128,-1,56
 1054 87 1054 87 1079 55 c 128,-1,57
 1104 23 1104 23 1117 -12 c 128,-1,58
 1130 -47 1130 -47 1133 -82.5 c 128,-1,59
 1136 -118 1136 -118 1136 -150 c 0,60,61
 1136 -236 1136 -236 1100 -306 c 128,-1,62
 1064 -376 1064 -376 996.5 -426 c 128,-1,63
 929 -476 929 -476 831.5 -503.5 c 128,-1,64
 734 -531 734 -531 610 -531 c 0,65,66
 520 -531 520 -531 433.5 -517 c 128,-1,67
 347 -503 347 -503 279 -468.5 c 128,-1,68
 211 -434 211 -434 169 -376.5 c 128,-1,69
 127 -319 127 -319 127 -233 c 0,0,1
607 488 m 0,70,71
 669 488 669 488 712 505 c 128,-1,72
 755 522 755 522 781.5 556.5 c 128,-1,73
 808 591 808 591 820 642.5 c 128,-1,74
 832 694 832 694 832 763 c 0,75,76
 832 912 832 912 768 984 c 128,-1,77
 704 1056 704 1056 576 1056 c 0,78,79
 526 1056 526 1056 482.5 1043 c 128,-1,80
 439 1030 439 1030 406.5 999.5 c 128,-1,81
 374 969 374 969 355.5 918.5 c 128,-1,82
 337 868 337 868 337 792 c 0,83,84
 337 730 337 730 352 674.5 c 128,-1,85
 367 619 367 619 399.5 577.5 c 128,-1,86
 432 536 432 536 483.5 512 c 128,-1,87
 535 488 535 488 607 488 c 0,70,71
313 -169 m 0,88,89
 313 -237 313 -237 339 -284.5 c 128,-1,90
 365 -332 365 -332 409 -361.5 c 128,-1,91
 453 -391 453 -391 511 -404.5 c 128,-1,92
 569 -418 569 -418 634 -418 c 0,93,94
 715 -418 715 -418 779.5 -404.5 c 128,-1,95
 844 -391 844 -391 889 -364 c 128,-1,96
 934 -337 934 -337 958 -295.5 c 128,-1,97
 982 -254 982 -254 982 -198 c 0,98,99
 982 -150 982 -150 971 -112.5 c 128,-1,100
 960 -75 960 -75 928 -49 c 128,-1,101
 896 -23 896 -23 838.5 -9.5 c 128,-1,102
 781 4 781 4 688 4 c 1,103,-1
 562 6 l 2,104,105
 503 6 503 6 456.5 9.5 c 128,-1,106
 410 13 410 13 373 19 c 1,107,108
 361 5 361 5 350.5 -12.5 c 128,-1,109
 340 -30 340 -30 331.5 -52.5 c 128,-1,110
 323 -75 323 -75 318 -103.5 c 128,-1,111
 313 -132 313 -132 313 -169 c 0,88,89
EndSplineSet
EndChar

StartChar: h
Encoding: 104 104 71
Width: 1404
Flags: W
LayerCount: 2
Fore
SplineSet
124 85 m 1,0,-1
 274 106 l 1,1,-1
 274 1460 l 1,2,-1
 103 1496 l 1,3,-1
 103 1583 l 1,4,-1
 419 1625 l 1,5,-1
 466 1602 l 1,6,-1
 464 1160 l 1,7,-1
 461 987 l 1,8,9
 505 1023 505 1023 556.5 1051 c 128,-1,10
 608 1079 608 1079 660 1098.5 c 128,-1,11
 712 1118 712 1118 761.5 1128.5 c 128,-1,12
 811 1139 811 1139 851 1139 c 0,13,14
 953 1139 953 1139 1018 1108 c 128,-1,15
 1083 1077 1083 1077 1120.5 1012.5 c 128,-1,16
 1158 948 1158 948 1172 847 c 128,-1,17
 1186 746 1186 746 1185 607 c 1,18,-1
 1185 106 l 1,19,-1
 1335 85 l 1,20,-1
 1335 0 l 1,21,-1
 825 0 l 1,22,-1
 825 85 l 1,23,-1
 993 106 l 1,24,-1
 993 522 l 2,25,26
 993 638 993 638 987.5 726 c 128,-1,27
 982 814 982 814 958.5 873.5 c 128,-1,28
 935 933 935 933 888 963 c 128,-1,29
 841 993 841 993 758 993 c 0,30,31
 725 993 725 993 688 989 c 128,-1,32
 651 985 651 985 613.5 975.5 c 128,-1,33
 576 966 576 966 538.5 950 c 128,-1,34
 501 934 501 934 466 909 c 1,35,-1
 466 106 l 1,36,-1
 613 85 l 1,37,-1
 613 0 l 1,38,-1
 124 0 l 1,39,-1
 124 85 l 1,0,-1
EndSplineSet
EndChar

StartChar: i
Encoding: 105 105 72
Width: 683
Flags: W
LayerCount: 2
Fore
SplineSet
333 1375 m 0,0,1
 309 1375 309 1375 286 1383.5 c 128,-1,2
 263 1392 263 1392 245.5 1407.5 c 128,-1,3
 228 1423 228 1423 217.5 1446 c 128,-1,4
 207 1469 207 1469 207 1498 c 0,5,6
 207 1529 207 1529 220.5 1556 c 128,-1,7
 234 1583 234 1583 255 1602.5 c 128,-1,8
 276 1622 276 1622 302.5 1633 c 128,-1,9
 329 1644 329 1644 356 1644 c 0,10,11
 422 1644 422 1644 452.5 1607.5 c 128,-1,12
 483 1571 483 1571 483 1520 c 0,13,14
 483 1487 483 1487 470 1460 c 128,-1,15
 457 1433 457 1433 436 1414.5 c 128,-1,16
 415 1396 415 1396 388 1385.5 c 128,-1,17
 361 1375 361 1375 333 1375 c 0,0,1
112 85 m 1,18,-1
 282 106 l 1,19,-1
 282 925 l 1,20,-1
 144 998 l 1,21,-1
 144 1060 l 1,22,-1
 421 1139 l 1,23,-1
 466 1119 l 1,24,-1
 466 106 l 1,25,-1
 628 85 l 1,26,-1
 628 0 l 1,27,-1
 112 0 l 1,28,-1
 112 85 l 1,18,-1
EndSplineSet
EndChar

StartChar: j
Encoding: 106 106 73
Width: 650
Flags: W
LayerCount: 2
Fore
SplineSet
326 1404 m 0,0,1
 302 1404 302 1404 279 1412.5 c 128,-1,2
 256 1421 256 1421 238.5 1436.5 c 128,-1,3
 221 1452 221 1452 210.5 1475 c 128,-1,4
 200 1498 200 1498 200 1527 c 0,5,6
 200 1558 200 1558 213.5 1585 c 128,-1,7
 227 1612 227 1612 248 1631.5 c 128,-1,8
 269 1651 269 1651 295.5 1662 c 128,-1,9
 322 1673 322 1673 349 1673 c 0,10,11
 415 1673 415 1673 445.5 1636.5 c 128,-1,12
 476 1600 476 1600 476 1549 c 0,13,14
 476 1516 476 1516 463 1489 c 128,-1,15
 450 1462 450 1462 429 1443.5 c 128,-1,16
 408 1425 408 1425 381 1414.5 c 128,-1,17
 354 1404 354 1404 326 1404 c 0,0,1
275 925 m 1,18,-1
 136 999 l 1,19,-1
 136 1059 l 1,20,-1
 417 1139 l 1,21,-1
 463 1119 l 1,22,-1
 463 -16 l 2,23,24
 463 -133 463 -133 437.5 -225.5 c 128,-1,25
 412 -318 412 -318 364.5 -382.5 c 128,-1,26
 317 -447 317 -447 250 -481 c 128,-1,27
 183 -515 183 -515 100 -515 c 0,28,29
 90 -515 90 -515 73 -514 c 128,-1,30
 56 -513 56 -513 39.5 -511 c 128,-1,31
 23 -509 23 -509 9 -506 c 128,-1,32
 -5 -503 -5 -503 -9 -500 c 1,33,-1
 -9 -362 l 1,34,35
 -1 -365 -1 -365 14 -367 c 128,-1,36
 29 -369 29 -369 45.5 -370.5 c 128,-1,37
 62 -372 62 -372 77 -372.5 c 128,-1,38
 92 -373 92 -373 101 -373 c 0,39,40
 149 -373 149 -373 182.5 -354.5 c 128,-1,41
 216 -336 216 -336 236.5 -292.5 c 128,-1,42
 257 -249 257 -249 266 -178 c 128,-1,43
 275 -107 275 -107 275 -2 c 2,44,-1
 275 925 l 1,18,-1
EndSplineSet
EndChar

StartChar: k
Encoding: 107 107 74
Width: 1274
Flags: W
LayerCount: 2
Fore
SplineSet
110 85 m 1,0,-1
 274 107 l 1,1,-1
 274 1460 l 1,2,-1
 94 1496 l 1,3,-1
 94 1583 l 1,4,-1
 426 1625 l 1,5,-1
 466 1602 l 1,6,-1
 466 704 l 1,7,-1
 461 550 l 1,8,-1
 906 1009 l 1,9,-1
 755 1023 l 1,10,-1
 755 1129 l 1,11,-1
 1227 1129 l 1,12,-1
 1227 1023 l 1,13,-1
 1075 1007 l 1,14,-1
 735 665 l 1,15,-1
 1158 106 l 1,16,-1
 1294 85 l 1,17,-1
 1294 0 l 1,18,-1
 809 0 l 1,19,-1
 809 85 l 1,20,-1
 948 108 l 1,21,-1
 619 569 l 1,22,-1
 460 411 l 1,23,-1
 466 217 l 1,24,-1
 466 105 l 1,25,-1
 610 85 l 1,26,-1
 610 0 l 1,27,-1
 110 0 l 1,28,-1
 110 85 l 1,0,-1
EndSplineSet
EndChar

StartChar: l
Encoding: 108 108 75
Width: 698
Flags: W
LayerCount: 2
Fore
SplineSet
108 85 m 1,0,-1
 278 106 l 1,1,-1
 278 1460 l 1,2,-1
 118 1496 l 1,3,-1
 118 1583 l 1,4,-1
 431 1625 l 1,5,-1
 471 1602 l 1,6,-1
 471 106 l 1,7,-1
 649 85 l 1,8,-1
 649 0 l 1,9,-1
 108 0 l 1,10,-1
 108 85 l 1,0,-1
EndSplineSet
EndChar

StartChar: m
Encoding: 109 109 76
Width: 2070
Flags: W
LayerCount: 2
Fore
SplineSet
138 85 m 1,0,-1
 274 107 l 1,1,-1
 274 920 l 1,2,-1
 132 998 l 1,3,-1
 132 1060 l 1,4,-1
 398 1139 l 1,5,-1
 443 1119 l 1,6,-1
 443 976 l 1,7,8
 476 1005 476 1005 523 1033.5 c 128,-1,9
 570 1062 570 1062 623.5 1085 c 128,-1,10
 677 1108 677 1108 733 1122.5 c 128,-1,11
 789 1137 789 1137 840 1139 c 0,12,13
 948 1143 948 1143 1014.5 1110.5 c 128,-1,14
 1081 1078 1081 1078 1118 997 c 1,15,16
 1154 1024 1154 1024 1203 1049 c 128,-1,17
 1252 1074 1252 1074 1306 1093.5 c 128,-1,18
 1360 1113 1360 1113 1415 1125 c 128,-1,19
 1470 1137 1470 1137 1518 1139 c 0,20,21
 1611 1142 1611 1142 1675 1116 c 128,-1,22
 1739 1090 1739 1090 1778 1032 c 128,-1,23
 1817 974 1817 974 1834 882 c 128,-1,24
 1851 790 1851 790 1851 661 c 2,25,-1
 1851 106 l 1,26,-1
 2020 85 l 1,27,-1
 2020 0 l 1,28,-1
 1523 0 l 1,29,-1
 1523 85 l 1,30,-1
 1659 106 l 1,31,-1
 1659 626 l 2,32,33
 1659 722 1659 722 1650 792.5 c 128,-1,34
 1641 863 1641 863 1614.5 908.5 c 128,-1,35
 1588 954 1588 954 1541 975 c 128,-1,36
 1494 996 1494 996 1418 993 c 0,37,38
 1350 990 1350 990 1283 967.5 c 128,-1,39
 1216 945 1216 945 1151 908 c 1,40,41
 1162 860 1162 860 1168 798.5 c 128,-1,42
 1174 737 1174 737 1174 671 c 2,43,-1
 1174 105 l 1,44,-1
 1327 85 l 1,45,-1
 1327 0 l 1,46,-1
 832 0 l 1,47,-1
 832 85 l 1,48,-1
 982 107 l 1,49,-1
 982 642 l 2,50,51
 982 737 982 737 972.5 805 c 128,-1,52
 963 873 963 873 936 916 c 128,-1,53
 909 959 909 959 861.5 977.5 c 128,-1,54
 814 996 814 996 738 993 c 0,55,56
 684 990 684 990 614.5 965.5 c 128,-1,57
 545 941 545 941 469 889 c 1,58,-1
 469 706 l 2,59,60
 469 555 469 555 468 406 c 128,-1,61
 467 257 467 257 468 106 c 1,62,-1
 617 85 l 1,63,-1
 617 0 l 1,64,-1
 138 0 l 1,65,-1
 138 85 l 1,0,-1
EndSplineSet
EndChar

StartChar: n
Encoding: 110 110 77
Width: 1396
Flags: W
LayerCount: 2
Fore
SplineSet
138 85 m 1,0,-1
 274 105 l 1,1,-1
 274 920 l 1,2,-1
 132 998 l 1,3,-1
 132 1060 l 1,4,-1
 398 1139 l 1,5,-1
 443 1119 l 1,6,-1
 443 976 l 1,7,8
 477 1005 477 1005 525 1033.5 c 128,-1,9
 573 1062 573 1062 627 1085 c 128,-1,10
 681 1108 681 1108 738 1122.5 c 128,-1,11
 795 1137 795 1137 846 1139 c 0,12,13
 939 1142 939 1142 1002 1116.5 c 128,-1,14
 1065 1091 1065 1091 1104 1033.5 c 128,-1,15
 1143 976 1143 976 1160 886 c 128,-1,16
 1177 796 1177 796 1177 670 c 2,17,-1
 1177 105 l 1,18,-1
 1338 85 l 1,19,-1
 1338 0 l 1,20,-1
 834 0 l 1,21,-1
 834 85 l 1,22,-1
 985 106 l 1,23,-1
 985 635 l 2,24,25
 985 726 985 726 976 795 c 128,-1,26
 967 864 967 864 940.5 909 c 128,-1,27
 914 954 914 954 867 975 c 128,-1,28
 820 996 820 996 744 993 c 0,29,30
 682 990 682 990 613 965.5 c 128,-1,31
 544 941 544 941 468 889 c 1,32,-1
 468 106 l 1,33,-1
 617 85 l 1,34,-1
 617 0 l 1,35,-1
 138 0 l 1,36,-1
 138 85 l 1,0,-1
EndSplineSet
EndChar

StartChar: o
Encoding: 111 111 78
Width: 1231
Flags: W
LayerCount: 2
Fore
SplineSet
101 582 m 0,0,1
 103 716 103 716 147.5 821.5 c 128,-1,2
 192 927 192 927 265 1000 c 128,-1,3
 338 1073 338 1073 433.5 1112 c 128,-1,4
 529 1151 529 1151 633 1152 c 0,5,6
 760 1153 760 1153 854 1108 c 128,-1,7
 948 1063 948 1063 1009.5 984.5 c 128,-1,8
 1071 906 1071 906 1101 800 c 128,-1,9
 1131 694 1131 694 1130 573 c 0,10,11
 1129 440 1129 440 1087.5 330 c 128,-1,12
 1046 220 1046 220 975.5 141.5 c 128,-1,13
 905 63 905 63 810.5 19.5 c 128,-1,14
 716 -24 716 -24 608 -24 c 0,15,16
 470 -24 470 -24 373 26 c 128,-1,17
 276 76 276 76 215 160 c 128,-1,18
 154 244 154 244 126.5 353.5 c 128,-1,19
 99 463 99 463 101 582 c 0,0,1
617 88 m 0,20,21
 702 86 702 86 760.5 117 c 128,-1,22
 819 148 819 148 855.5 208.5 c 128,-1,23
 892 269 892 269 908.5 358.5 c 128,-1,24
 925 448 925 448 925 564 c 0,25,26
 925 665 925 665 907.5 752.5 c 128,-1,27
 890 840 890 840 852.5 905 c 128,-1,28
 815 970 815 970 757.5 1007.5 c 128,-1,29
 700 1045 700 1045 621 1047 c 1,30,31
 536 1048 536 1048 476.5 1017.5 c 128,-1,32
 417 987 417 987 379 928 c 128,-1,33
 341 869 341 869 323.5 784 c 128,-1,34
 306 699 306 699 306 591 c 0,35,36
 306 494 306 494 325 404 c 128,-1,37
 344 314 344 314 382 244.5 c 128,-1,38
 420 175 420 175 478.5 132.5 c 128,-1,39
 537 90 537 90 617 88 c 0,20,21
EndSplineSet
EndChar

StartChar: p
Encoding: 112 112 79
Width: 1324
Flags: W
LayerCount: 2
Fore
SplineSet
264 -404 m 1,0,-1
 264 920 l 1,1,-1
 122 998 l 1,2,-1
 122 1060 l 1,3,-1
 387 1139 l 1,4,-1
 433 1118 l 1,5,-1
 433 1002 l 1,6,7
 454 1026 454 1026 488.5 1052.5 c 128,-1,8
 523 1079 523 1079 568 1101 c 128,-1,9
 613 1123 613 1123 668 1137.5 c 128,-1,10
 723 1152 723 1152 785 1152 c 0,11,12
 869 1152 869 1152 948 1122.5 c 128,-1,13
 1027 1093 1027 1093 1088.5 1027 c 128,-1,14
 1150 961 1150 961 1187 854.5 c 128,-1,15
 1224 748 1224 748 1224 595 c 0,16,17
 1224 467 1224 467 1182.5 354.5 c 128,-1,18
 1141 242 1141 242 1065.5 158 c 128,-1,19
 990 74 990 74 885 25.5 c 128,-1,20
 780 -23 780 -23 654 -23 c 0,21,22
 598 -23 598 -23 548 -13.5 c 128,-1,23
 498 -4 498 -4 450 9 c 1,24,-1
 456 -260 l 1,25,-1
 456 -405 l 1,26,-1
 652 -426 l 1,27,-1
 652 -511 l 1,28,-1
 124 -511 l 1,29,-1
 124 -426 l 1,30,-1
 264 -404 l 1,0,-1
456 170 m 1,31,32
 479 130 479 130 534.5 106 c 128,-1,33
 590 82 590 82 677 82 c 0,34,35
 742 82 742 82 805 108.5 c 128,-1,36
 868 135 868 135 918 193.5 c 128,-1,37
 968 252 968 252 999.5 344.5 c 128,-1,38
 1031 437 1031 437 1033 569 c 0,39,40
 1035 695 1035 695 1007.5 781.5 c 128,-1,41
 980 868 980 868 933.5 922 c 128,-1,42
 887 976 887 976 827.5 999.5 c 128,-1,43
 768 1023 768 1023 705 1023 c 0,44,45
 657 1023 657 1023 618.5 1012 c 128,-1,46
 580 1001 580 1001 549 985 c 128,-1,47
 518 969 518 969 494.5 951 c 128,-1,48
 471 933 471 933 455 919 c 1,49,-1
 456 530 l 1,50,-1
 456 170 l 1,31,32
EndSplineSet
EndChar

StartChar: q
Encoding: 113 113 80
Width: 1242
Flags: W
LayerCount: 2
Fore
SplineSet
536 -28 m 0,0,1
 500 -28 500 -28 454 -20 c 128,-1,2
 408 -12 408 -12 359.5 10 c 128,-1,3
 311 32 311 32 264.5 72 c 128,-1,4
 218 112 218 112 181.5 175.5 c 128,-1,5
 145 239 145 239 122.5 330 c 128,-1,6
 100 421 100 421 100 546 c 0,7,8
 100 673 100 673 143.5 784 c 128,-1,9
 187 895 187 895 265.5 977 c 128,-1,10
 344 1059 344 1059 453 1106 c 128,-1,11
 562 1153 562 1153 692 1153 c 0,12,13
 752 1153 752 1153 809 1142 c 128,-1,14
 866 1131 866 1131 901 1117 c 1,15,-1
 1021 1140 l 1,16,-1
 1061 1120 l 1,17,-1
 1061 -395 l 1,18,-1
 1197 -416 l 1,19,-1
 1197 -511 l 1,20,-1
 663 -511 l 1,21,-1
 663 -416 l 1,22,-1
 869 -395 l 1,23,-1
 869 -47 l 1,24,-1
 875 106 l 1,25,26
 858 89 858 89 828.5 66 c 128,-1,27
 799 43 799 43 757 22 c 128,-1,28
 715 1 715 1 660 -13.5 c 128,-1,29
 605 -28 605 -28 536 -28 c 0,0,1
606 111 m 0,30,31
 653 111 653 111 694 119 c 128,-1,32
 735 127 735 127 768.5 140.5 c 128,-1,33
 802 154 802 154 827 171 c 128,-1,34
 852 188 852 188 869 205 c 1,35,-1
 869 966 l 1,36,37
 834 1011 834 1011 780 1028.5 c 128,-1,38
 726 1046 726 1046 660 1046 c 0,39,40
 583 1046 583 1046 516.5 1017 c 128,-1,41
 450 988 450 988 400.5 929.5 c 128,-1,42
 351 871 351 871 322 783.5 c 128,-1,43
 293 696 293 696 291 579 c 0,44,45
 289 463 289 463 311 375.5 c 128,-1,46
 333 288 333 288 374 229.5 c 128,-1,47
 415 171 415 171 474 141 c 128,-1,48
 533 111 533 111 606 111 c 0,30,31
EndSplineSet
EndChar

StartChar: r
Encoding: 114 114 81
Width: 923
Flags: W
LayerCount: 2
Fore
SplineSet
112 85 m 1,0,-1
 274 106 l 1,1,-1
 274 920 l 1,2,-1
 132 998 l 1,3,-1
 132 1060 l 1,4,-1
 396 1139 l 1,5,-1
 443 1119 l 1,6,-1
 443 965 l 1,7,8
 462 993 462 993 500.5 1024 c 128,-1,9
 539 1055 539 1055 587 1080.5 c 128,-1,10
 635 1106 635 1106 687 1122.5 c 128,-1,11
 739 1139 739 1139 785 1139 c 0,12,13
 818 1139 818 1139 844.5 1137.5 c 128,-1,14
 871 1136 871 1136 882 1132 c 1,15,-1
 882 927 l 1,16,17
 866 933 866 933 849 939.5 c 128,-1,18
 832 946 832 946 811.5 950.5 c 128,-1,19
 791 955 791 955 765 958 c 128,-1,20
 739 961 739 961 705 961 c 0,21,22
 624 961 624 961 569 940.5 c 128,-1,23
 514 920 514 920 468 891 c 1,24,-1
 468 109 l 1,25,-1
 753 85 l 1,26,-1
 753 0 l 1,27,-1
 112 0 l 1,28,-1
 112 85 l 1,0,-1
EndSplineSet
EndChar

StartChar: s
Encoding: 115 115 82
Width: 1048
Flags: W
LayerCount: 2
Fore
SplineSet
168 290 m 1,0,-1
 257 290 l 1,1,-1
 296 168 l 1,2,3
 321 147 321 147 345.5 131.5 c 128,-1,4
 370 116 370 116 395.5 106 c 128,-1,5
 421 96 421 96 450 90.5 c 128,-1,6
 479 85 479 85 514 84 c 0,7,8
 570 82 570 82 617 92.5 c 128,-1,9
 664 103 664 103 698 126.5 c 128,-1,10
 732 150 732 150 751 186 c 128,-1,11
 770 222 770 222 770 272 c 0,12,13
 770 317 770 317 745.5 349 c 128,-1,14
 721 381 721 381 681 406.5 c 128,-1,15
 641 432 641 432 590 453.5 c 128,-1,16
 539 475 539 475 486 501 c 0,17,18
 427 529 427 529 370.5 562.5 c 128,-1,19
 314 596 314 596 270.5 637.5 c 128,-1,20
 227 679 227 679 201 731 c 128,-1,21
 175 783 175 783 176 850 c 0,22,23
 177 902 177 902 194.5 944 c 128,-1,24
 212 986 212 986 241.5 1019 c 128,-1,25
 271 1052 271 1052 310 1076.5 c 128,-1,26
 349 1101 349 1101 393 1117.5 c 128,-1,27
 437 1134 437 1134 483.5 1142.5 c 128,-1,28
 530 1151 530 1151 575 1152 c 0,29,30
 625 1153 625 1153 671.5 1147.5 c 128,-1,31
 718 1142 718 1142 758.5 1132 c 128,-1,32
 799 1122 799 1122 831.5 1109 c 128,-1,33
 864 1096 864 1096 887 1083 c 1,34,-1
 887 869 l 1,35,-1
 802 869 l 1,36,-1
 759 981 l 1,37,38
 745 996 745 996 728.5 1008.5 c 128,-1,39
 712 1021 712 1021 691.5 1030.5 c 128,-1,40
 671 1040 671 1040 645 1046 c 128,-1,41
 619 1052 619 1052 586 1052 c 0,42,43
 538 1052 538 1052 497.5 1042.5 c 128,-1,44
 457 1033 457 1033 427 1013 c 128,-1,45
 397 993 397 993 379.5 961 c 128,-1,46
 362 929 362 929 361 884 c 0,47,48
 359 839 359 839 383 805.5 c 128,-1,49
 407 772 407 772 446 745 c 128,-1,50
 485 718 485 718 535.5 694.5 c 128,-1,51
 586 671 586 671 639 645 c 0,52,53
 694 619 694 619 750.5 591.5 c 128,-1,54
 807 564 807 564 852 526.5 c 128,-1,55
 897 489 897 489 925.5 438.5 c 128,-1,56
 954 388 954 388 954 318 c 0,57,58
 954 233 954 233 920 169 c 128,-1,59
 886 105 886 105 826.5 62 c 128,-1,60
 767 19 767 19 687.5 -2.5 c 128,-1,61
 608 -24 608 -24 517 -24 c 256,62,63
 426 -24 426 -24 335 -2.5 c 128,-1,64
 244 19 244 19 168 61 c 1,65,-1
 168 290 l 1,0,-1
EndSplineSet
EndChar

StartChar: t
Encoding: 116 116 83
Width: 862
Flags: W
LayerCount: 2
Fore
SplineSet
264 262 m 0,0,1
 264 446 264 446 264.5 627.5 c 128,-1,2
 265 809 265 809 265 993 c 1,3,-1
 112 993 l 1,4,-1
 112 1068 l 1,5,6
 156 1079 156 1079 185.5 1085.5 c 128,-1,7
 215 1092 215 1092 234.5 1100.5 c 128,-1,8
 254 1109 254 1109 267 1122 c 128,-1,9
 280 1135 280 1135 291 1160 c 0,10,11
 298 1177 298 1177 308.5 1210 c 128,-1,12
 319 1243 319 1243 328.5 1277.5 c 128,-1,13
 338 1312 338 1312 345 1342.5 c 128,-1,14
 352 1373 352 1373 354 1386 c 1,15,-1
 453 1386 l 1,16,-1
 453 1119 l 1,17,-1
 789 1119 l 1,18,-1
 789 993 l 1,19,-1
 453 993 l 1,20,-1
 453 489 l 2,21,22
 453 373 453 373 456 300.5 c 128,-1,23
 459 228 459 228 471 187 c 128,-1,24
 483 146 483 146 506 131.5 c 128,-1,25
 529 117 529 117 570 117 c 0,26,27
 595 117 595 117 625.5 122 c 128,-1,28
 656 127 656 127 684.5 134 c 128,-1,29
 713 141 713 141 737 149.5 c 128,-1,30
 761 158 761 158 773 166 c 1,31,-1
 804 78 l 1,32,33
 781 53 781 53 743 34 c 128,-1,34
 705 15 705 15 660.5 2 c 128,-1,35
 616 -11 616 -11 571.5 -17.5 c 128,-1,36
 527 -24 527 -24 493 -24 c 0,37,38
 384 -24 384 -24 324 43 c 128,-1,39
 264 110 264 110 264 262 c 0,0,1
EndSplineSet
EndChar

StartChar: u
Encoding: 117 117 84
Width: 1292
Flags: W
LayerCount: 2
Fore
SplineSet
214 977 m 1,0,-1
 111 1007 l 1,1,-1
 111 1084 l 1,2,-1
 368 1139 l 1,3,-1
 403 1121 l 1,4,-1
 403 432 l 2,5,6
 403 349 403 349 412 289.5 c 128,-1,7
 421 230 421 230 445 191.5 c 128,-1,8
 469 153 469 153 511 134.5 c 128,-1,9
 553 116 553 116 619 116 c 0,10,11
 664 116 664 116 707.5 128.5 c 128,-1,12
 751 141 751 141 788.5 158.5 c 128,-1,13
 826 176 826 176 854 195.5 c 128,-1,14
 882 215 882 215 895 229 c 1,15,-1
 895 968 l 1,16,-1
 770 1000 l 1,17,-1
 770 1082 l 1,18,-1
 1056 1139 l 1,19,-1
 1084 1122 l 1,20,-1
 1084 85 l 1,21,-1
 1204 85 l 1,22,-1
 1204 9 l 1,23,24
 1189 1 1189 1 1167 -6.5 c 128,-1,25
 1145 -14 1145 -14 1119.5 -20 c 128,-1,26
 1094 -26 1094 -26 1067.5 -30 c 128,-1,27
 1041 -34 1041 -34 1017 -34 c 0,28,29
 969 -34 969 -34 941.5 -13.5 c 128,-1,30
 914 7 914 7 914 52 c 2,31,-1
 914 134 l 1,32,33
 827 58 827 58 731.5 18.5 c 128,-1,34
 636 -21 636 -21 545 -21 c 0,35,36
 427 -21 427 -21 361 15.5 c 128,-1,37
 295 52 295 52 262.5 116.5 c 128,-1,38
 230 181 230 181 222.5 269 c 128,-1,39
 215 357 215 357 214 461 c 1,40,-1
 214 977 l 1,0,-1
EndSplineSet
EndChar

StartChar: v
Encoding: 118 118 85
Width: 1188
Flags: W
LayerCount: 2
Fore
SplineSet
99 995 m 1,0,-1
 2 1014 l 1,1,-1
 2 1119 l 1,2,-1
 442 1119 l 1,3,-1
 442 1014 l 1,4,-1
 319 993 l 1,5,-1
 538 459 l 1,6,-1
 632 173 l 1,7,-1
 724 447 l 1,8,-1
 915 993 l 1,9,-1
 787 1013 l 1,10,-1
 787 1119 l 1,11,-1
 1186 1119 l 1,12,-1
 1186 1014 l 1,13,-1
 1080 992 l 1,14,-1
 673 -24 l 1,15,-1
 538 -24 l 1,16,-1
 99 995 l 1,0,-1
EndSplineSet
EndChar

StartChar: w
Encoding: 119 119 86
Width: 1692
Flags: W
LayerCount: 2
Fore
SplineSet
104 995 m 1,0,-1
 2 1013 l 1,1,-1
 2 1119 l 1,2,-1
 438 1119 l 1,3,-1
 438 1013 l 1,4,-1
 300 992 l 1,5,-1
 488 382 l 1,6,-1
 542 165 l 1,7,-1
 587 381 l 1,8,-1
 777 1119 l 1,9,-1
 949 1119 l 1,10,-1
 1142 382 l 1,11,-1
 1199 165 l 1,12,-1
 1254 374 l 1,13,-1
 1410 994 l 1,14,-1
 1286 1013 l 1,15,-1
 1286 1119 l 1,16,-1
 1690 1119 l 1,17,-1
 1690 1014 l 1,18,-1
 1565 991 l 1,19,-1
 1267 -25 l 1,20,-1
 1091 -25 l 1,21,-1
 875 737 l 1,22,-1
 849 886 l 1,23,-1
 811 737 l 1,24,-1
 610 -25 l 1,25,-1
 444 -25 l 1,26,-1
 104 995 l 1,0,-1
EndSplineSet
EndChar

StartChar: x
Encoding: 120 120 87
Width: 1168
Flags: W
LayerCount: 2
Fore
SplineSet
6 85 m 1,0,-1
 156 107 l 1,1,-1
 489 542 l 1,2,-1
 141 995 l 1,3,-1
 4 1013 l 1,4,-1
 4 1119 l 1,5,-1
 505 1119 l 1,6,-1
 505 1013 l 1,7,-1
 366 995 l 1,8,-1
 561 708 l 1,9,-1
 609 635 l 1,10,-1
 649 705 l 1,11,-1
 847 998 l 1,12,-1
 705 1013 l 1,13,-1
 705 1119 l 1,14,-1
 1156 1119 l 1,15,-1
 1156 1013 l 1,16,-1
 1001 994 l 1,17,-1
 675 567 l 1,18,-1
 1033 105 l 1,19,-1
 1164 85 l 1,20,-1
 1164 0 l 1,21,-1
 669 0 l 1,22,-1
 669 85 l 1,23,-1
 807 106 l 1,24,25
 769 163 769 163 741 203 c 128,-1,26
 713 243 713 243 693.5 270.5 c 128,-1,27
 674 298 674 298 661.5 314.5 c 128,-1,28
 649 331 649 331 641.5 341 c 128,-1,29
 634 351 634 351 630 355.5 c 128,-1,30
 626 360 626 360 624 364 c 2,31,-1
 554 463 l 1,32,-1
 512 387 l 1,33,-1
 316 106 l 1,34,-1
 497 85 l 1,35,-1
 497 0 l 1,36,-1
 6 0 l 1,37,-1
 6 85 l 1,0,-1
EndSplineSet
EndChar

StartChar: y
Encoding: 121 121 88
Width: 1150
Flags: W
LayerCount: 2
Fore
SplineSet
150 -339 m 1,0,1
 167 -344 167 -344 189.5 -347 c 128,-1,2
 212 -350 212 -350 230 -350 c 0,3,4
 266 -350 266 -350 308 -337 c 128,-1,5
 350 -324 350 -324 393 -286.5 c 128,-1,6
 436 -249 436 -249 476.5 -180 c 128,-1,7
 517 -111 517 -111 550 0 c 1,8,-1
 507 0 l 1,9,-1
 106 995 l 1,10,-1
 2 1013 l 1,11,-1
 2 1119 l 1,12,-1
 465 1119 l 1,13,-1
 465 1013 l 1,14,-1
 321 993 l 1,15,-1
 556 322 l 1,16,-1
 623 118 l 1,17,-1
 681 322 l 1,18,-1
 884 996 l 1,19,-1
 728 1013 l 1,20,-1
 728 1119 l 1,21,-1
 1160 1119 l 1,22,-1
 1160 1013 l 1,23,-1
 1048 997 l 1,24,25
 981 803 981 803 930.5 656 c 128,-1,26
 880 509 880 509 842.5 401 c 128,-1,27
 805 293 805 293 778.5 218 c 128,-1,28
 752 143 752 143 734 93 c 128,-1,29
 716 43 716 43 705 12.5 c 128,-1,30
 694 -18 694 -18 686 -38 c 0,31,32
 647 -138 647 -138 607.5 -218 c 128,-1,33
 568 -298 568 -298 524 -356.5 c 128,-1,34
 480 -415 480 -415 429.5 -452.5 c 128,-1,35
 379 -490 379 -490 317 -505 c 0,36,37
 277 -515 277 -515 229 -515 c 0,38,39
 219 -515 219 -515 207 -514 c 128,-1,40
 195 -513 195 -513 183.5 -511 c 128,-1,41
 172 -509 172 -509 163 -506 c 128,-1,42
 154 -503 154 -503 150 -500 c 1,43,-1
 150 -339 l 1,0,1
EndSplineSet
EndChar

StartChar: z
Encoding: 122 122 89
Width: 1078
Flags: W
LayerCount: 2
Fore
SplineSet
88 82 m 1,0,-1
 157 177 l 1,1,-1
 696 927 l 1,2,-1
 778 1025 l 1,3,-1
 288 1009 l 1,4,-1
 228 825 l 1,5,-1
 135 825 l 1,6,-1
 135 1119 l 1,7,-1
 984 1119 l 1,8,-1
 1009 1037 l 1,9,-1
 423 228 l 1,10,-1
 323 98 l 1,11,-1
 853 120 l 1,12,-1
 917 289 l 1,13,14
 943 289 943 289 968.5 288.5 c 128,-1,15
 994 288 994 288 1020 288 c 1,16,-1
 1003 0 l 1,17,-1
 120 0 l 1,18,-1
 88 82 l 1,0,-1
EndSplineSet
EndChar

StartChar: braceleft
Encoding: 123 123 90
Width: 1035
Flags: W
LayerCount: 2
Fore
SplineSet
330 579 m 2,0,1
 330 599 330 599 307 619 c 128,-1,2
 284 639 284 639 248 657 c 128,-1,3
 212 675 212 675 167.5 689.5 c 128,-1,4
 123 704 123 704 80 714 c 1,5,-1
 80 840 l 1,6,7
 122 850 122 850 166.5 863.5 c 128,-1,8
 211 877 211 877 247 893 c 128,-1,9
 283 909 283 909 306.5 927.5 c 128,-1,10
 330 946 330 946 330 967 c 2,11,-1
 330 1486 l 2,12,13
 330 1560 330 1560 338 1608.5 c 128,-1,14
 346 1657 346 1657 367 1685.5 c 128,-1,15
 388 1714 388 1714 425 1725.5 c 128,-1,16
 462 1737 462 1737 520 1737 c 0,17,18
 561 1737 561 1737 595.5 1733 c 128,-1,19
 630 1729 630 1729 661.5 1723 c 128,-1,20
 693 1717 693 1717 723 1709 c 128,-1,21
 753 1701 753 1701 785 1693 c 1,22,23
 785 1671 785 1671 784.5 1650 c 128,-1,24
 784 1629 784 1629 784 1607 c 1,25,-1
 493 1607 l 1,26,-1
 493 971 l 2,27,28
 493 929 493 929 472.5 900.5 c 128,-1,29
 452 872 452 872 418 849 c 0,30,31
 387 829 387 829 349.5 812 c 128,-1,32
 312 795 312 795 272 776 c 1,33,34
 320 755 320 755 363.5 733 c 128,-1,35
 407 711 407 711 439 683 c 0,36,37
 464 661 464 661 478.5 634.5 c 128,-1,38
 493 608 493 608 493 575 c 2,39,-1
 493 -59 l 1,40,-1
 784 -59 l 1,41,42
 784 -81 784 -81 784.5 -103 c 128,-1,43
 785 -125 785 -125 785 -147 c 1,44,45
 753 -156 753 -156 723 -164 c 128,-1,46
 693 -172 693 -172 661.5 -178 c 128,-1,47
 630 -184 630 -184 595.5 -187.5 c 128,-1,48
 561 -191 561 -191 520 -191 c 0,49,50
 462 -191 462 -191 425 -179.5 c 128,-1,51
 388 -168 388 -168 367 -139.5 c 128,-1,52
 346 -111 346 -111 338 -62.5 c 128,-1,53
 330 -14 330 -14 330 60 c 2,54,-1
 330 579 l 2,0,1
EndSplineSet
EndChar

StartChar: bar
Encoding: 124 124 91
Width: 873
Flags: W
LayerCount: 2
Fore
SplineSet
358 1780 m 1,0,-1
 531 1780 l 1,1,-1
 531 -186 l 1,2,-1
 358 -186 l 1,3,-1
 358 1780 l 1,0,-1
EndSplineSet
EndChar

StartChar: braceright
Encoding: 125 125 92
Width: 958
Flags: W
LayerCount: 2
Fore
SplineSet
174 -59 m 1,0,-1
 465 -59 l 1,1,-1
 465 575 l 2,2,3
 465 608 465 608 479.5 634.5 c 128,-1,4
 494 661 494 661 519 683 c 0,5,6
 551 711 551 711 594 733 c 128,-1,7
 637 755 637 755 685 776 c 1,8,9
 645 795 645 795 607.5 812 c 128,-1,10
 570 829 570 829 540 849 c 0,11,12
 506 872 506 872 485.5 900.5 c 128,-1,13
 465 929 465 929 465 971 c 2,14,-1
 465 1607 l 1,15,-1
 174 1607 l 1,16,17
 174 1629 174 1629 173.5 1650 c 128,-1,18
 173 1671 173 1671 173 1693 c 1,19,20
 205 1701 205 1701 235 1709 c 128,-1,21
 265 1717 265 1717 296.5 1723 c 128,-1,22
 328 1729 328 1729 362.5 1733 c 128,-1,23
 397 1737 397 1737 438 1737 c 0,24,25
 496 1737 496 1737 533 1725.5 c 128,-1,26
 570 1714 570 1714 591 1685.5 c 128,-1,27
 612 1657 612 1657 620 1608.5 c 128,-1,28
 628 1560 628 1560 628 1486 c 2,29,-1
 628 967 l 2,30,31
 628 946 628 946 651.5 927.5 c 128,-1,32
 675 909 675 909 711 893 c 128,-1,33
 747 877 747 877 791.5 863.5 c 128,-1,34
 836 850 836 850 878 840 c 1,35,-1
 878 714 l 1,36,37
 835 704 835 704 790.5 689.5 c 128,-1,38
 746 675 746 675 710 657 c 128,-1,39
 674 639 674 639 651 619 c 128,-1,40
 628 599 628 599 628 579 c 2,41,-1
 628 60 l 2,42,43
 628 -14 628 -14 620 -62.5 c 128,-1,44
 612 -111 612 -111 591 -139.5 c 128,-1,45
 570 -168 570 -168 533 -179.5 c 128,-1,46
 496 -191 496 -191 438 -191 c 0,47,48
 397 -191 397 -191 362.5 -187.5 c 128,-1,49
 328 -184 328 -184 296.5 -178 c 128,-1,50
 265 -172 265 -172 235 -164 c 128,-1,51
 205 -156 205 -156 173 -147 c 1,52,53
 173 -125 173 -125 173.5 -103 c 128,-1,54
 174 -81 174 -81 174 -59 c 1,0,-1
EndSplineSet
EndChar

StartChar: asciitilde
Encoding: 126 126 93
Width: 1257
Flags: W
LayerCount: 2
Fore
SplineSet
149 868 m 1,0,1
 171 906 171 906 207 940.5 c 128,-1,2
 243 975 243 975 288 1001 c 128,-1,3
 333 1027 333 1027 384.5 1042.5 c 128,-1,4
 436 1058 436 1058 491 1058 c 0,5,6
 530 1058 530 1058 562 1045.5 c 128,-1,7
 594 1033 594 1033 621 1014.5 c 128,-1,8
 648 996 648 996 672 974.5 c 128,-1,9
 696 953 696 953 720 934.5 c 128,-1,10
 744 916 744 916 769 903.5 c 128,-1,11
 794 891 794 891 823 891 c 0,12,13
 857 891 857 891 888 901 c 128,-1,14
 919 911 919 911 945.5 926 c 128,-1,15
 972 941 972 941 994.5 959 c 128,-1,16
 1017 977 1017 977 1035 994 c 1,17,-1
 1107 905 l 1,18,19
 1084 867 1084 867 1048.5 832.5 c 128,-1,20
 1013 798 1013 798 968 771.5 c 128,-1,21
 923 745 923 745 871.5 729.5 c 128,-1,22
 820 714 820 714 765 714 c 0,23,24
 726 714 726 714 694 726.5 c 128,-1,25
 662 739 662 739 635 757.5 c 128,-1,26
 608 776 608 776 584 798 c 128,-1,27
 560 820 560 820 536.5 838.5 c 128,-1,28
 513 857 513 857 487.5 869.5 c 128,-1,29
 462 882 462 882 433 882 c 0,30,31
 398 882 398 882 367.5 872 c 128,-1,32
 337 862 337 862 310.5 847 c 128,-1,33
 284 832 284 832 261.5 813.5 c 128,-1,34
 239 795 239 795 221 779 c 1,35,-1
 149 868 l 1,0,1
EndSplineSet
EndChar

StartChar: exclamdown
Encoding: 161 161 94
Width: 713
Flags: W
LayerCount: 2
Fore
SplineSet
348 1169 m 0,0,1
 324 1169 324 1169 301 1177.5 c 128,-1,2
 278 1186 278 1186 260.5 1201.5 c 128,-1,3
 243 1217 243 1217 232.5 1240 c 128,-1,4
 222 1263 222 1263 222 1292 c 0,5,6
 222 1323 222 1323 235.5 1350 c 128,-1,7
 249 1377 249 1377 270 1396.5 c 128,-1,8
 291 1416 291 1416 317.5 1427 c 128,-1,9
 344 1438 344 1438 371 1438 c 0,10,11
 437 1438 437 1438 467.5 1401.5 c 128,-1,12
 498 1365 498 1365 498 1314 c 0,13,14
 498 1281 498 1281 485 1254 c 128,-1,15
 472 1227 472 1227 451 1208.5 c 128,-1,16
 430 1190 430 1190 403 1179.5 c 128,-1,17
 376 1169 376 1169 348 1169 c 0,0,1
288 922 m 1,18,-1
 406 922 l 1,19,-1
 471 -408 l 1,20,-1
 215 -408 l 1,21,-1
 288 922 l 1,18,-1
EndSplineSet
EndChar

StartChar: sterling
Encoding: 163 163 95
Width: 1441
Flags: W
LayerCount: 2
Fore
SplineSet
89 61 m 0,0,1
 89 88 89 88 109.5 117 c 128,-1,2
 130 146 130 146 168 169.5 c 128,-1,3
 206 193 206 193 261 207 c 128,-1,4
 316 221 316 221 384 218 c 1,5,6
 394 240 394 240 400.5 272 c 128,-1,7
 407 304 407 304 411 339.5 c 128,-1,8
 415 375 415 375 416.5 410.5 c 128,-1,9
 418 446 418 446 418 475 c 2,10,-1
 418 727 l 1,11,-1
 238 727 l 1,12,-1
 238 874 l 1,13,-1
 418 874 l 1,14,-1
 418 987 l 2,15,16
 418 1099 418 1099 453.5 1203.5 c 128,-1,17
 489 1308 489 1308 554.5 1389 c 128,-1,18
 620 1470 620 1470 711.5 1518.5 c 128,-1,19
 803 1567 803 1567 915 1567 c 0,20,21
 957 1567 957 1567 993.5 1564 c 128,-1,22
 1030 1561 1030 1561 1063.5 1552 c 128,-1,23
 1097 1543 1097 1543 1127.5 1527 c 128,-1,24
 1158 1511 1158 1511 1187 1486 c 1,25,-1
 1091 1303 l 1,26,27
 1087 1310 1087 1310 1066 1333 c 128,-1,28
 1045 1356 1045 1356 1009.5 1380.5 c 128,-1,29
 974 1405 974 1405 926 1424 c 128,-1,30
 878 1443 878 1443 820 1443 c 0,31,32
 777 1443 777 1443 739 1423 c 128,-1,33
 701 1403 701 1403 672 1352 c 128,-1,34
 643 1301 643 1301 626 1213 c 128,-1,35
 609 1125 609 1125 609 989 c 2,36,-1
 609 874 l 1,37,-1
 935 874 l 1,38,-1
 935 727 l 1,39,-1
 610 727 l 1,40,-1
 610 696 l 2,41,42
 610 627 610 627 607.5 571.5 c 128,-1,43
 605 516 605 516 599 471.5 c 128,-1,44
 593 427 593 427 584 390 c 128,-1,45
 575 353 575 353 562.5 319.5 c 128,-1,46
 550 286 550 286 534 254 c 128,-1,47
 518 222 518 222 498 187 c 1,48,49
 532 185 532 185 570.5 170.5 c 128,-1,50
 609 156 609 156 652 138.5 c 128,-1,51
 695 121 695 121 740.5 103.5 c 128,-1,52
 786 86 786 86 833 78 c 0,53,54
 928 61 928 61 991.5 74 c 128,-1,55
 1055 87 1055 87 1093.5 118 c 128,-1,56
 1132 149 1132 149 1148 193.5 c 128,-1,57
 1164 238 1164 238 1164 284 c 0,58,59
 1164 303 1164 303 1160 323.5 c 128,-1,60
 1156 344 1156 344 1147 364 c 128,-1,61
 1138 384 1138 384 1124 402 c 128,-1,62
 1110 420 1110 420 1091 435 c 1,63,-1
 1183 610 l 1,64,65
 1252 581 1252 581 1293.5 518.5 c 128,-1,66
 1335 456 1335 456 1346 372 c 0,67,68
 1350 341 1350 341 1349.5 300.5 c 128,-1,69
 1349 260 1349 260 1339 217.5 c 128,-1,70
 1329 175 1329 175 1306 133 c 128,-1,71
 1283 91 1283 91 1243 56 c 128,-1,72
 1203 21 1203 21 1143 -3.5 c 128,-1,73
 1083 -28 1083 -28 998 -35 c 0,74,75
 913 -43 913 -43 841.5 -34.5 c 128,-1,76
 770 -26 770 -26 710.5 -9.5 c 128,-1,77
 651 7 651 7 603 27.5 c 128,-1,78
 555 48 555 48 517 65.5 c 128,-1,79
 479 83 479 83 449.5 93.5 c 128,-1,80
 420 104 420 104 398 100 c 1,81,82
 379 74 379 74 356 50 c 128,-1,83
 333 26 333 26 306.5 8 c 128,-1,84
 280 -10 280 -10 250 -20.5 c 128,-1,85
 220 -31 220 -31 187 -31 c 0,86,87
 173 -31 173 -31 156 -28 c 128,-1,88
 139 -25 139 -25 124 -15 c 128,-1,89
 109 -5 109 -5 99 13 c 128,-1,90
 89 31 89 31 89 61 c 0,0,1
EndSplineSet
EndChar

StartChar: dieresis
Encoding: 168 168 96
Width: 1062
Flags: W
LayerCount: 2
Fore
SplineSet
752 1382 m 0,0,1
 728 1382 728 1382 705.5 1390 c 128,-1,2
 683 1398 683 1398 665.5 1413 c 128,-1,3
 648 1428 648 1428 638 1450.5 c 128,-1,4
 628 1473 628 1473 628 1502 c 0,5,6
 628 1533 628 1533 641 1559.5 c 128,-1,7
 654 1586 654 1586 675 1605 c 128,-1,8
 696 1624 696 1624 722 1635 c 128,-1,9
 748 1646 748 1646 775 1646 c 0,10,11
 841 1646 841 1646 871.5 1610.5 c 128,-1,12
 902 1575 902 1575 902 1524 c 0,13,14
 902 1491 902 1491 889 1464.5 c 128,-1,15
 876 1438 876 1438 855 1420 c 128,-1,16
 834 1402 834 1402 807 1392 c 128,-1,17
 780 1382 780 1382 752 1382 c 0,0,1
286 1382 m 0,18,19
 262 1382 262 1382 239.5 1390 c 128,-1,20
 217 1398 217 1398 199.5 1413 c 128,-1,21
 182 1428 182 1428 172 1450.5 c 128,-1,22
 162 1473 162 1473 162 1502 c 0,23,24
 162 1533 162 1533 175 1559.5 c 128,-1,25
 188 1586 188 1586 209 1605 c 128,-1,26
 230 1624 230 1624 256 1635 c 128,-1,27
 282 1646 282 1646 309 1646 c 0,28,29
 375 1646 375 1646 405.5 1610.5 c 128,-1,30
 436 1575 436 1575 436 1524 c 0,31,32
 436 1491 436 1491 423 1464.5 c 128,-1,33
 410 1438 410 1438 389 1420 c 128,-1,34
 368 1402 368 1402 341 1392 c 128,-1,35
 314 1382 314 1382 286 1382 c 0,18,19
EndSplineSet
EndChar

StartChar: copyright
Encoding: 169 169 97
Width: 2041
Flags: W
LayerCount: 2
Fore
SplineSet
1021 219 m 256,0,1
 906 219 906 219 798.5 250 c 128,-1,2
 691 281 691 281 597 337.5 c 128,-1,3
 503 394 503 394 426 472 c 128,-1,4
 349 550 349 550 294 644.5 c 128,-1,5
 239 739 239 739 208.5 846.5 c 128,-1,6
 178 954 178 954 178 1069 c 256,7,8
 178 1184 178 1184 208.5 1292 c 128,-1,9
 239 1400 239 1400 294 1495 c 128,-1,10
 349 1590 349 1590 426 1668 c 128,-1,11
 503 1746 503 1746 597 1802 c 128,-1,12
 691 1858 691 1858 798 1889 c 128,-1,13
 905 1920 905 1920 1021 1920 c 0,14,15
 1136 1920 1136 1920 1243 1889 c 128,-1,16
 1350 1858 1350 1858 1443.5 1802 c 128,-1,17
 1537 1746 1537 1746 1614.5 1668 c 128,-1,18
 1692 1590 1692 1590 1747 1495 c 128,-1,19
 1802 1400 1802 1400 1832.5 1292 c 128,-1,20
 1863 1184 1863 1184 1863 1069 c 256,21,22
 1863 954 1863 954 1832.5 846.5 c 128,-1,23
 1802 739 1802 739 1747 644.5 c 128,-1,24
 1692 550 1692 550 1614.5 472 c 128,-1,25
 1537 394 1537 394 1443.5 337.5 c 128,-1,26
 1350 281 1350 281 1243 250 c 128,-1,27
 1136 219 1136 219 1021 219 c 256,0,1
1021 339 m 256,28,29
 1120 339 1120 339 1211 365.5 c 128,-1,30
 1302 392 1302 392 1381 440.5 c 128,-1,31
 1460 489 1460 489 1525 556.5 c 128,-1,32
 1590 624 1590 624 1636 705 c 128,-1,33
 1682 786 1682 786 1707.5 878 c 128,-1,34
 1733 970 1733 970 1733 1069 c 256,35,36
 1733 1168 1733 1168 1707.5 1261 c 128,-1,37
 1682 1354 1682 1354 1636 1435 c 128,-1,38
 1590 1516 1590 1516 1525 1583.5 c 128,-1,39
 1460 1651 1460 1651 1381 1699 c 128,-1,40
 1302 1747 1302 1747 1210.5 1773.5 c 128,-1,41
 1119 1800 1119 1800 1021 1800 c 0,42,43
 922 1800 922 1800 830.5 1773.5 c 128,-1,44
 739 1747 739 1747 660 1699 c 128,-1,45
 581 1651 581 1651 516 1583.5 c 128,-1,46
 451 1516 451 1516 405 1435 c 128,-1,47
 359 1354 359 1354 333.5 1261 c 128,-1,48
 308 1168 308 1168 308 1069 c 0,49,50
 308 971 308 971 333.5 878.5 c 128,-1,51
 359 786 359 786 405 705 c 128,-1,52
 451 624 451 624 516 556.5 c 128,-1,53
 581 489 581 489 660 440.5 c 128,-1,54
 739 392 739 392 830.5 365.5 c 128,-1,55
 922 339 922 339 1021 339 c 256,28,29
1030 584 m 0,56,57
 919 584 919 584 835.5 619.5 c 128,-1,58
 752 655 752 655 696 718.5 c 128,-1,59
 640 782 640 782 611.5 869.5 c 128,-1,60
 583 957 583 957 583 1061 c 0,61,62
 583 1166 583 1166 623.5 1257 c 128,-1,63
 664 1348 664 1348 728 1416.5 c 128,-1,64
 792 1485 792 1485 872 1526 c 128,-1,65
 952 1567 952 1567 1030 1573 c 0,66,67
 1057 1575 1057 1575 1102.5 1575 c 128,-1,68
 1148 1575 1148 1575 1195.5 1569.5 c 128,-1,69
 1243 1564 1243 1564 1284 1551 c 128,-1,70
 1325 1538 1325 1538 1344 1515 c 1,71,-1
 1344 1305 l 1,72,-1
 1228 1305 l 1,73,-1
 1179 1431 l 1,74,75
 1168 1438 1168 1438 1156 1444.5 c 128,-1,76
 1144 1451 1144 1451 1125.5 1455 c 128,-1,77
 1107 1459 1107 1459 1080 1461.5 c 128,-1,78
 1053 1464 1053 1464 1012 1464 c 0,79,80
 953 1464 953 1464 907.5 1437 c 128,-1,81
 862 1410 862 1410 830.5 1361.5 c 128,-1,82
 799 1313 799 1313 783 1246.5 c 128,-1,83
 767 1180 767 1180 767 1101 c 0,84,85
 767 1017 767 1017 792.5 947 c 128,-1,86
 818 877 818 877 863 826.5 c 128,-1,87
 908 776 908 776 969 748 c 128,-1,88
 1030 720 1030 720 1102 720 c 0,89,90
 1133 720 1133 720 1167.5 725 c 128,-1,91
 1202 730 1202 730 1233.5 738 c 128,-1,92
 1265 746 1265 746 1289.5 757 c 128,-1,93
 1314 768 1314 768 1326 779 c 1,94,-1
 1354 706 l 1,95,96
 1333 682 1333 682 1299.5 659.5 c 128,-1,97
 1266 637 1266 637 1224 620.5 c 128,-1,98
 1182 604 1182 604 1132.5 594 c 128,-1,99
 1083 584 1083 584 1030 584 c 0,56,57
EndSplineSet
EndChar

StartChar: guillemotleft
Encoding: 171 171 98
Width: 1897
Flags: W
LayerCount: 2
Fore
SplineSet
953 693 m 1,0,-1
 1601 1075 l 1,1,-1
 1652 990 l 1,2,-1
 1138 614 l 1,3,-1
 1652 254 l 1,4,-1
 1601 163 l 1,5,-1
 953 528 l 1,6,-1
 953 693 l 1,0,-1
245 693 m 1,7,-1
 893 1075 l 1,8,-1
 944 990 l 1,9,-1
 430 614 l 1,10,-1
 944 254 l 1,11,-1
 893 163 l 1,12,-1
 245 528 l 1,13,-1
 245 693 l 1,7,-1
EndSplineSet
EndChar

StartChar: guilsinglleft
Encoding: 8249 8249 99
Width: 1189
Flags: W
LayerCount: 2
Fore
SplineSet
245 693 m 1,0,-1
 893 1075 l 1,1,-1
 944 990 l 1,2,-1
 430 614 l 1,3,-1
 944 254 l 1,4,-1
 893 163 l 1,5,-1
 245 528 l 1,6,-1
 245 693 l 1,0,-1
EndSplineSet
EndChar

StartChar: registered
Encoding: 174 174 100
Width: 2041
Flags: W
LayerCount: 2
Fore
SplineSet
1021 219 m 256,0,1
 906 219 906 219 798.5 250 c 128,-1,2
 691 281 691 281 597 337.5 c 128,-1,3
 503 394 503 394 426 472 c 128,-1,4
 349 550 349 550 294 644.5 c 128,-1,5
 239 739 239 739 208.5 846.5 c 128,-1,6
 178 954 178 954 178 1069 c 256,7,8
 178 1184 178 1184 208.5 1292 c 128,-1,9
 239 1400 239 1400 294 1495 c 128,-1,10
 349 1590 349 1590 426 1668 c 128,-1,11
 503 1746 503 1746 597 1802 c 128,-1,12
 691 1858 691 1858 798 1889 c 128,-1,13
 905 1920 905 1920 1021 1920 c 0,14,15
 1136 1920 1136 1920 1243 1889 c 128,-1,16
 1350 1858 1350 1858 1443.5 1802 c 128,-1,17
 1537 1746 1537 1746 1614.5 1668 c 128,-1,18
 1692 1590 1692 1590 1747 1495 c 128,-1,19
 1802 1400 1802 1400 1832.5 1292 c 128,-1,20
 1863 1184 1863 1184 1863 1069 c 256,21,22
 1863 954 1863 954 1832.5 846.5 c 128,-1,23
 1802 739 1802 739 1747 644.5 c 128,-1,24
 1692 550 1692 550 1614.5 472 c 128,-1,25
 1537 394 1537 394 1443.5 337.5 c 128,-1,26
 1350 281 1350 281 1243 250 c 128,-1,27
 1136 219 1136 219 1021 219 c 256,0,1
1021 339 m 256,28,29
 1120 339 1120 339 1211 365.5 c 128,-1,30
 1302 392 1302 392 1381 440.5 c 128,-1,31
 1460 489 1460 489 1525 556.5 c 128,-1,32
 1590 624 1590 624 1636 705 c 128,-1,33
 1682 786 1682 786 1707.5 878 c 128,-1,34
 1733 970 1733 970 1733 1069 c 256,35,36
 1733 1168 1733 1168 1707.5 1261 c 128,-1,37
 1682 1354 1682 1354 1636 1435 c 128,-1,38
 1590 1516 1590 1516 1525 1583.5 c 128,-1,39
 1460 1651 1460 1651 1381 1699 c 128,-1,40
 1302 1747 1302 1747 1210.5 1773.5 c 128,-1,41
 1119 1800 1119 1800 1021 1800 c 0,42,43
 922 1800 922 1800 830.5 1773.5 c 128,-1,44
 739 1747 739 1747 660 1699 c 128,-1,45
 581 1651 581 1651 516 1583.5 c 128,-1,46
 451 1516 451 1516 405 1435 c 128,-1,47
 359 1354 359 1354 333.5 1261 c 128,-1,48
 308 1168 308 1168 308 1069 c 0,49,50
 308 971 308 971 333.5 878.5 c 128,-1,51
 359 786 359 786 405 705 c 128,-1,52
 451 624 451 624 516 556.5 c 128,-1,53
 581 489 581 489 660 440.5 c 128,-1,54
 739 392 739 392 830.5 365.5 c 128,-1,55
 922 339 922 339 1021 339 c 256,28,29
626 679 m 1,56,-1
 718 707 l 1,57,-1
 718 1435 l 1,58,-1
 626 1459 l 1,59,-1
 626 1556 l 1,60,-1
 786 1556 l 1,61,62
 816 1555 816 1555 837.5 1555 c 128,-1,63
 859 1555 859 1555 885.5 1556 c 128,-1,64
 912 1557 912 1557 949.5 1558.5 c 128,-1,65
 987 1560 987 1560 1050 1561 c 1,66,67
 1222 1561 1222 1561 1310 1500.5 c 128,-1,68
 1398 1440 1398 1440 1401 1325 c 1,69,70
 1401 1280 1401 1280 1390.5 1233.5 c 128,-1,71
 1380 1187 1380 1187 1351.5 1146.5 c 128,-1,72
 1323 1106 1323 1106 1272 1074.5 c 128,-1,73
 1221 1043 1221 1043 1140 1029 c 1,74,75
 1185 1004 1185 1004 1216 969 c 128,-1,76
 1247 934 1247 934 1271 896 c 128,-1,77
 1295 858 1295 858 1315 820.5 c 128,-1,78
 1335 783 1335 783 1357.5 753.5 c 128,-1,79
 1380 724 1380 724 1408 705.5 c 128,-1,80
 1436 687 1436 687 1477 687 c 1,81,-1
 1477 594 l 1,82,-1
 1319 594 l 2,83,84
 1272 594 1272 594 1242 619 c 128,-1,85
 1212 644 1212 644 1190 683 c 128,-1,86
 1168 722 1168 722 1149.5 770.5 c 128,-1,87
 1131 819 1131 819 1108 865 c 128,-1,88
 1085 911 1085 911 1053 950 c 128,-1,89
 1021 989 1021 989 971 1010 c 1,90,-1
 897 1010 l 1,91,-1
 897 701 l 1,92,-1
 988 679 l 1,93,-1
 988 594 l 1,94,-1
 626 594 l 1,95,-1
 626 679 l 1,56,-1
897 1108 m 1,96,97
 927 1102 927 1102 957 1100.5 c 128,-1,98
 987 1099 987 1099 1031 1099 c 0,99,100
 1073 1099 1073 1099 1108 1114 c 128,-1,101
 1143 1129 1143 1129 1168 1154 c 128,-1,102
 1193 1179 1193 1179 1207 1212 c 128,-1,103
 1221 1245 1221 1245 1221 1281 c 0,104,105
 1221 1329 1221 1329 1206 1363 c 128,-1,106
 1191 1397 1191 1397 1163.5 1419 c 128,-1,107
 1136 1441 1136 1441 1098 1451 c 128,-1,108
 1060 1461 1060 1461 1014 1461 c 0,109,110
 997 1461 997 1461 984.5 1461 c 128,-1,111
 972 1461 972 1461 959.5 1460.5 c 128,-1,112
 947 1460 947 1460 932.5 1457.5 c 128,-1,113
 918 1455 918 1455 897 1450 c 1,114,-1
 897 1108 l 1,96,97
EndSplineSet
EndChar

StartChar: macron
Encoding: 175 175 101
Width: 885
Flags: W
LayerCount: 2
Fore
SplineSet
195 1591 m 1,0,-1
 726 1591 l 1,1,-1
 726 1443 l 1,2,-1
 195 1443 l 1,3,-1
 195 1591 l 1,0,-1
EndSplineSet
EndChar

StartChar: degree
Encoding: 176 176 102
Width: 677
Flags: W
LayerCount: 2
Fore
SplineSet
338 961 m 0,0,1
 273 961 273 961 215 986 c 128,-1,2
 157 1011 157 1011 113.5 1054 c 128,-1,3
 70 1097 70 1097 45 1154.5 c 128,-1,4
 20 1212 20 1212 20 1277 c 256,5,6
 20 1342 20 1342 45 1399.5 c 128,-1,7
 70 1457 70 1457 113.5 1500 c 128,-1,8
 157 1543 157 1543 215 1568 c 128,-1,9
 273 1593 273 1593 338 1593 c 0,10,11
 404 1593 404 1593 462 1568 c 128,-1,12
 520 1543 520 1543 563.5 1500 c 128,-1,13
 607 1457 607 1457 632 1399.5 c 128,-1,14
 657 1342 657 1342 657 1277 c 256,15,16
 657 1212 657 1212 632 1154.5 c 128,-1,17
 607 1097 607 1097 563.5 1054 c 128,-1,18
 520 1011 520 1011 462 986 c 128,-1,19
 404 961 404 961 338 961 c 0,0,1
338 1075 m 0,20,21
 382 1075 382 1075 418.5 1090.5 c 128,-1,22
 455 1106 455 1106 481.5 1133 c 128,-1,23
 508 1160 508 1160 523 1197 c 128,-1,24
 538 1234 538 1234 538 1278 c 0,25,26
 538 1320 538 1320 522.5 1356.5 c 128,-1,27
 507 1393 507 1393 480 1420.5 c 128,-1,28
 453 1448 453 1448 416.5 1464 c 128,-1,29
 380 1480 380 1480 338 1480 c 0,30,31
 294 1480 294 1480 257.5 1464.5 c 128,-1,32
 221 1449 221 1449 194.5 1422 c 128,-1,33
 168 1395 168 1395 153 1358 c 128,-1,34
 138 1321 138 1321 138 1278 c 0,35,36
 138 1236 138 1236 153.5 1199.5 c 128,-1,37
 169 1163 169 1163 196 1135 c 128,-1,38
 223 1107 223 1107 259.5 1091 c 128,-1,39
 296 1075 296 1075 338 1075 c 0,20,21
EndSplineSet
EndChar

StartChar: plusminus
Encoding: 177 177 103
Width: 1269
Flags: W
LayerCount: 2
Fore
SplineSet
557 561 m 1,0,-1
 564 727 l 1,1,-1
 398 720 l 1,2,-1
 178 720 l 1,3,-1
 178 875 l 1,4,-1
 398 875 l 1,5,-1
 564 863 l 1,6,-1
 557 1032 l 1,7,-1
 557 1260 l 1,8,-1
 712 1260 l 1,9,-1
 712 1032 l 1,10,-1
 703 863 l 1,11,-1
 840 875 l 1,12,-1
 1091 875 l 1,13,-1
 1091 720 l 1,14,-1
 840 720 l 1,15,-1
 703 727 l 1,16,-1
 712 561 l 1,17,-1
 712 321 l 1,18,-1
 557 321 l 1,19,-1
 557 561 l 1,0,-1
191 177 m 1,20,-1
 1076 177 l 1,21,-1
 1076 30 l 1,22,-1
 191 30 l 1,23,-1
 191 177 l 1,20,-1
EndSplineSet
EndChar

StartChar: acute
Encoding: 180 180 104
Width: 884
Flags: W
LayerCount: 2
Fore
SplineSet
222 1394 m 1,0,-1
 516 1780 l 1,1,-1
 662 1631 l 1,2,3
 632 1585 632 1585 583 1541 c 128,-1,4
 534 1497 534 1497 479.5 1458.5 c 128,-1,5
 425 1420 425 1420 370.5 1389.5 c 128,-1,6
 316 1359 316 1359 275 1340 c 1,7,-1
 222 1394 l 1,0,-1
EndSplineSet
EndChar

StartChar: paragraph
Encoding: 182 182 105
Width: 1346
Flags: W
LayerCount: 2
Fore
SplineSet
343 85 m 1,0,-1
 542 115 l 1,1,-1
 542 676 l 1,2,3
 329 676 329 676 223.5 784.5 c 128,-1,4
 118 893 118 893 118 1127 c 0,5,6
 118 1225 118 1225 148.5 1307 c 128,-1,7
 179 1389 179 1389 242.5 1448 c 128,-1,8
 306 1507 306 1507 403.5 1540 c 128,-1,9
 501 1573 501 1573 634 1573 c 0,10,11
 668 1573 668 1573 725.5 1570.5 c 128,-1,12
 783 1568 783 1568 847 1564.5 c 128,-1,13
 911 1561 911 1561 972.5 1557.5 c 128,-1,14
 1034 1554 1034 1554 1076 1553 c 1,15,-1
 1247 1553 l 1,16,-1
 1247 1452 l 1,17,-1
 1075 1419 l 1,18,-1
 1075 115 l 1,19,-1
 1223 85 l 1,20,-1
 1223 0 l 1,21,-1
 906 0 l 1,22,-1
 904 1419 l 1,23,-1
 708 1419 l 1,24,-1
 708 0 l 1,25,-1
 343 0 l 1,26,-1
 343 85 l 1,0,-1
EndSplineSet
EndChar

StartChar: periodcentered
Encoding: 183 183 106
Width: 706
Flags: W
LayerCount: 2
Fore
SplineSet
341 712 m 0,0,1
 317 712 317 712 294 720.5 c 128,-1,2
 271 729 271 729 253.5 744.5 c 128,-1,3
 236 760 236 760 225.5 783 c 128,-1,4
 215 806 215 806 215 835 c 0,5,6
 215 866 215 866 228.5 893 c 128,-1,7
 242 920 242 920 263 939.5 c 128,-1,8
 284 959 284 959 310.5 970 c 128,-1,9
 337 981 337 981 364 981 c 0,10,11
 430 981 430 981 460.5 944.5 c 128,-1,12
 491 908 491 908 491 857 c 0,13,14
 491 824 491 824 478 797 c 128,-1,15
 465 770 465 770 444 751.5 c 128,-1,16
 423 733 423 733 396 722.5 c 128,-1,17
 369 712 369 712 341 712 c 0,0,1
EndSplineSet
EndChar

StartChar: cedilla
Encoding: 184 184 107
Width: 615
Flags: W
LayerCount: 2
Fore
SplineSet
333 0 m 1,0,1
 329 -25 329 -25 327.5 -59.5 c 128,-1,2
 326 -94 326 -94 329 -125 c 1,3,4
 398 -125 398 -125 446.5 -142.5 c 128,-1,5
 495 -160 495 -160 525.5 -187 c 128,-1,6
 556 -214 556 -214 570 -247.5 c 128,-1,7
 584 -281 584 -281 584 -314 c 0,8,9
 584 -364 584 -364 565 -402 c 128,-1,10
 546 -440 546 -440 512 -467 c 128,-1,11
 478 -494 478 -494 432 -509 c 128,-1,12
 386 -524 386 -524 331 -527 c 0,13,14
 287 -529 287 -529 256.5 -527.5 c 128,-1,15
 226 -526 226 -526 204 -522.5 c 128,-1,16
 182 -519 182 -519 165.5 -514.5 c 128,-1,17
 149 -510 149 -510 134 -506 c 1,18,19
 134 -480 134 -480 134.5 -455.5 c 128,-1,20
 135 -431 135 -431 135 -405 c 1,21,22
 147 -408 147 -408 162.5 -410.5 c 128,-1,23
 178 -413 178 -413 194 -415.5 c 128,-1,24
 210 -418 210 -418 224.5 -419 c 128,-1,25
 239 -420 239 -420 248 -420 c 0,26,27
 276 -420 276 -420 301 -417 c 128,-1,28
 326 -414 326 -414 345.5 -402.5 c 128,-1,29
 365 -391 365 -391 376.5 -369 c 128,-1,30
 388 -347 388 -347 388 -309 c 0,31,32
 388 -265 388 -265 350 -237 c 128,-1,33
 312 -209 312 -209 231 -209 c 0,34,35
 225 -209 225 -209 217.5 -209.5 c 128,-1,36
 210 -210 210 -210 202.5 -210.5 c 128,-1,37
 195 -211 195 -211 189 -212 c 128,-1,38
 183 -213 183 -213 182 -213 c 1,39,40
 183 -164 183 -164 192 -112.5 c 128,-1,41
 201 -61 201 -61 218 0 c 1,42,-1
 333 0 l 1,0,1
EndSplineSet
EndChar

StartChar: guillemotright
Encoding: 187 187 108
Width: 1897
Flags: W
LayerCount: 2
Fore
SplineSet
1467 623 m 1,0,-1
 954 984 l 1,1,-1
 1005 1075 l 1,2,-1
 1653 710 l 1,3,-1
 1653 545 l 1,4,-1
 1005 163 l 1,5,-1
 954 248 l 1,6,-1
 1467 623 l 1,0,-1
245 248 m 1,7,-1
 758 623 l 1,8,-1
 245 984 l 1,9,-1
 296 1075 l 1,10,-1
 944 710 l 1,11,-1
 944 545 l 1,12,-1
 296 163 l 1,13,-1
 245 248 l 1,7,-1
EndSplineSet
EndChar

StartChar: questiondown
Encoding: 191 191 109
Width: 1012
Flags: W
LayerCount: 2
Fore
SplineSet
439 1171 m 0,0,1
 415 1171 415 1171 392 1179.5 c 128,-1,2
 369 1188 369 1188 351.5 1203.5 c 128,-1,3
 334 1219 334 1219 323.5 1242 c 128,-1,4
 313 1265 313 1265 313 1294 c 0,5,6
 313 1325 313 1325 326.5 1352 c 128,-1,7
 340 1379 340 1379 361 1398.5 c 128,-1,8
 382 1418 382 1418 408.5 1429 c 128,-1,9
 435 1440 435 1440 462 1440 c 0,10,11
 528 1440 528 1440 558.5 1403.5 c 128,-1,12
 589 1367 589 1367 589 1316 c 0,13,14
 589 1283 589 1283 576 1256 c 128,-1,15
 563 1229 563 1229 542 1210.5 c 128,-1,16
 521 1192 521 1192 494 1181.5 c 128,-1,17
 467 1171 467 1171 439 1171 c 0,0,1
88 235 m 1,18,19
 88 272 88 272 118 303 c 128,-1,20
 148 334 148 334 194 362 c 128,-1,21
 240 390 240 390 294.5 415.5 c 128,-1,22
 349 441 349 441 398.5 467 c 128,-1,23
 448 493 448 493 484.5 520 c 128,-1,24
 521 547 521 547 531 579 c 1,25,26
 537 619 537 619 529.5 661.5 c 128,-1,27
 522 704 522 704 506.5 748 c 128,-1,28
 491 792 491 792 471.5 837 c 128,-1,29
 452 882 452 882 435 928 c 1,30,-1
 540 928 l 1,31,32
 564 910 564 910 594.5 870 c 128,-1,33
 625 830 625 830 653 781.5 c 128,-1,34
 681 733 681 733 701 681.5 c 128,-1,35
 721 630 721 630 724 588 c 0,36,37
 726 546 726 546 692.5 511.5 c 128,-1,38
 659 477 659 477 607 447.5 c 128,-1,39
 555 418 555 418 493.5 392.5 c 128,-1,40
 432 367 432 367 377 343 c 128,-1,41
 322 319 322 319 282 296 c 128,-1,42
 242 273 242 273 235 249 c 1,43,44
 231 184 231 184 247.5 122 c 128,-1,45
 264 60 264 60 295.5 5.5 c 128,-1,46
 327 -49 327 -49 372.5 -94.5 c 128,-1,47
 418 -140 418 -140 473 -172.5 c 128,-1,48
 528 -205 528 -205 590 -223 c 128,-1,49
 652 -241 652 -241 717 -241 c 0,50,51
 736 -241 736 -241 759 -240 c 128,-1,52
 782 -239 782 -239 804.5 -236.5 c 128,-1,53
 827 -234 827 -234 847.5 -229.5 c 128,-1,54
 868 -225 868 -225 882 -219 c 1,55,-1
 882 -371 l 1,56,57
 874 -381 874 -381 854.5 -389.5 c 128,-1,58
 835 -398 835 -398 809 -404 c 128,-1,59
 783 -410 783 -410 752.5 -413.5 c 128,-1,60
 722 -417 722 -417 692 -417 c 0,61,62
 567 -417 567 -417 471 -387 c 128,-1,63
 375 -357 375 -357 305 -306 c 128,-1,64
 235 -255 235 -255 189 -188.5 c 128,-1,65
 143 -122 143 -122 117.5 -49.5 c 128,-1,66
 92 23 92 23 85.5 96.5 c 128,-1,67
 79 170 79 170 88 235 c 1,18,19
EndSplineSet
EndChar

StartChar: germandbls
Encoding: 223 223 110
Width: 1334
Flags: W
LayerCount: 2
Fore
SplineSet
67 86 m 1,0,-1
 227 117 l 1,1,-1
 227 878 l 2,2,3
 227 1061 227 1061 272 1195 c 128,-1,4
 317 1329 317 1329 391.5 1416 c 128,-1,5
 466 1503 466 1503 563.5 1545 c 128,-1,6
 661 1587 661 1587 766 1587 c 0,7,8
 823 1587 823 1587 879 1573.5 c 128,-1,9
 935 1560 935 1560 979.5 1526 c 128,-1,10
 1024 1492 1024 1492 1051 1435.5 c 128,-1,11
 1078 1379 1078 1379 1078 1293 c 0,12,13
 1078 1232 1078 1232 1063 1184.5 c 128,-1,14
 1048 1137 1048 1137 1026 1098 c 128,-1,15
 1004 1059 1004 1059 978 1025.5 c 128,-1,16
 952 992 952 992 930 958 c 128,-1,17
 908 924 908 924 893 887 c 128,-1,18
 878 850 878 850 878 804 c 0,19,20
 878 765 878 765 896.5 736.5 c 128,-1,21
 915 708 915 708 945 684.5 c 128,-1,22
 975 661 975 661 1014 641 c 128,-1,23
 1053 621 1053 621 1093 599 c 128,-1,24
 1133 577 1133 577 1172 551.5 c 128,-1,25
 1211 526 1211 526 1241 492.5 c 128,-1,26
 1271 459 1271 459 1289.5 414.5 c 128,-1,27
 1308 370 1308 370 1308 310 c 0,28,29
 1308 222 1308 222 1274 159.5 c 128,-1,30
 1240 97 1240 97 1183 57 c 128,-1,31
 1126 17 1126 17 1051 -2 c 128,-1,32
 976 -21 976 -21 894 -21 c 0,33,34
 850 -21 850 -21 791.5 -18.5 c 128,-1,35
 733 -16 733 -16 673 -2 c 1,36,-1
 673 171 l 1,37,38
 692 161 692 161 720.5 147 c 128,-1,39
 749 133 749 133 781.5 120.5 c 128,-1,40
 814 108 814 108 847.5 99 c 128,-1,41
 881 90 881 90 910 90 c 0,42,43
 950 90 950 90 988.5 98.5 c 128,-1,44
 1027 107 1027 107 1057 128 c 128,-1,45
 1087 149 1087 149 1105.5 185 c 128,-1,46
 1124 221 1124 221 1124 276 c 0,47,48
 1124 315 1124 315 1105.5 345 c 128,-1,49
 1087 375 1087 375 1057 399.5 c 128,-1,50
 1027 424 1027 424 988.5 445 c 128,-1,51
 950 466 950 466 909.5 487 c 128,-1,52
 869 508 869 508 830.5 531 c 128,-1,53
 792 554 792 554 762 582.5 c 128,-1,54
 732 611 732 611 713.5 646.5 c 128,-1,55
 695 682 695 682 695 729 c 0,56,57
 695 763 695 763 710.5 799.5 c 128,-1,58
 726 836 726 836 749.5 875 c 128,-1,59
 773 914 773 914 800 955 c 128,-1,60
 827 996 827 996 850.5 1039.5 c 128,-1,61
 874 1083 874 1083 889.5 1129.5 c 128,-1,62
 905 1176 905 1176 905 1225 c 0,63,64
 905 1275 905 1275 894 1319.5 c 128,-1,65
 883 1364 883 1364 859.5 1397 c 128,-1,66
 836 1430 836 1430 799.5 1449.5 c 128,-1,67
 763 1469 763 1469 713 1469 c 0,68,69
 631 1469 631 1469 574.5 1439.5 c 128,-1,70
 518 1410 518 1410 483.5 1341 c 128,-1,71
 449 1272 449 1272 433.5 1158.5 c 128,-1,72
 418 1045 418 1045 418 878 c 2,73,-1
 418 0 l 1,74,-1
 67 0 l 1,75,-1
 67 86 l 1,0,-1
EndSplineSet
EndChar

StartChar: endash
Encoding: 8211 8211 111
Width: 1380
Flags: W
LayerCount: 2
Fore
SplineSet
178 874 m 1,0,-1
 1202 874 l 1,1,-1
 1202 727 l 1,2,-1
 178 727 l 1,3,-1
 178 874 l 1,0,-1
EndSplineSet
EndChar

StartChar: emdash
Encoding: 8212 8212 112
Width: 2404
Flags: W
LayerCount: 2
Fore
SplineSet
178 874 m 1,0,-1
 2226 874 l 1,1,-1
 2226 727 l 1,2,-1
 178 727 l 1,3,-1
 178 874 l 1,0,-1
EndSplineSet
EndChar

StartChar: quoteleft
Encoding: 8216 8216 113
Width: 774
Flags: W
LayerCount: 2
Fore
SplineSet
417 940 m 1,0,1
 358 955 358 955 316.5 992 c 128,-1,2
 275 1029 275 1029 249 1075.5 c 128,-1,3
 223 1122 223 1122 211.5 1171.5 c 128,-1,4
 200 1221 200 1221 200 1262 c 0,5,6
 200 1347 200 1347 227.5 1420 c 128,-1,7
 255 1493 255 1493 300 1551 c 128,-1,8
 345 1609 345 1609 402 1651 c 128,-1,9
 459 1693 459 1693 518 1717 c 1,10,-1
 565 1657 l 1,11,-1
 565 1631 l 1,12,13
 529 1619 529 1619 496.5 1590 c 128,-1,14
 464 1561 464 1561 439.5 1521 c 128,-1,15
 415 1481 415 1481 400.5 1434 c 128,-1,16
 386 1387 386 1387 386 1339 c 0,17,18
 386 1301 386 1301 397.5 1265 c 128,-1,19
 409 1229 409 1229 428.5 1200 c 128,-1,20
 448 1171 448 1171 474 1152 c 128,-1,21
 500 1133 500 1133 529 1130 c 1,22,-1
 529 1085 l 1,23,-1
 417 940 l 1,0,1
EndSplineSet
EndChar

StartChar: quoteright
Encoding: 8217 8217 114
Width: 774
Flags: W
LayerCount: 2
Fore
SplineSet
209 1020 m 1,0,-1
 209 1046 l 1,1,2
 245 1058 245 1058 277.5 1087 c 128,-1,3
 310 1116 310 1116 334.5 1156 c 128,-1,4
 359 1196 359 1196 373.5 1243 c 128,-1,5
 388 1290 388 1290 388 1338 c 0,6,7
 388 1376 388 1376 376.5 1412 c 128,-1,8
 365 1448 365 1448 345.5 1477 c 128,-1,9
 326 1506 326 1506 300 1525 c 128,-1,10
 274 1544 274 1544 245 1547 c 1,11,-1
 245 1592 l 1,12,-1
 357 1737 l 1,13,14
 416 1722 416 1722 457.5 1685 c 128,-1,15
 499 1648 499 1648 525 1601.5 c 128,-1,16
 551 1555 551 1555 562.5 1505 c 128,-1,17
 574 1455 574 1455 574 1415 c 0,18,19
 574 1330 574 1330 546 1257 c 128,-1,20
 518 1184 518 1184 473 1126 c 128,-1,21
 428 1068 428 1068 371 1026 c 128,-1,22
 314 984 314 984 256 960 c 1,23,-1
 209 1020 l 1,0,-1
EndSplineSet
EndChar

StartChar: quotesinglbase
Encoding: 8218 8218 115
Width: 774
Flags: W
LayerCount: 2
Fore
SplineSet
245 131 m 1,0,-1
 357 276 l 1,1,2
 416 261 416 261 457.5 224 c 128,-1,3
 499 187 499 187 525 140.5 c 128,-1,4
 551 94 551 94 562.5 44 c 128,-1,5
 574 -6 574 -6 574 -46 c 0,6,7
 574 -131 574 -131 546 -204 c 128,-1,8
 518 -277 518 -277 473 -335 c 128,-1,9
 428 -393 428 -393 371 -435 c 128,-1,10
 314 -477 314 -477 256 -501 c 1,11,-1
 209 -441 l 1,12,-1
 209 -415 l 1,13,14
 245 -403 245 -403 277.5 -374 c 128,-1,15
 310 -345 310 -345 334.5 -305 c 128,-1,16
 359 -265 359 -265 373.5 -218 c 128,-1,17
 388 -171 388 -171 388 -123 c 0,18,19
 388 -85 388 -85 376.5 -49 c 128,-1,20
 365 -13 365 -13 345.5 16 c 128,-1,21
 326 45 326 45 300 64 c 128,-1,22
 274 83 274 83 245 86 c 1,23,-1
 245 131 l 1,0,-1
EndSplineSet
EndChar

StartChar: quotedblleft
Encoding: 8220 8220 116
Width: 1301
Flags: W
LayerCount: 2
Fore
SplineSet
944 940 m 1,0,1
 885 955 885 955 843.5 992 c 128,-1,2
 802 1029 802 1029 776 1075.5 c 128,-1,3
 750 1122 750 1122 738.5 1171.5 c 128,-1,4
 727 1221 727 1221 727 1262 c 0,5,6
 727 1347 727 1347 754.5 1420 c 128,-1,7
 782 1493 782 1493 827 1551 c 128,-1,8
 872 1609 872 1609 929 1651 c 128,-1,9
 986 1693 986 1693 1045 1717 c 1,10,-1
 1092 1657 l 1,11,-1
 1092 1631 l 1,12,13
 1056 1619 1056 1619 1023.5 1590 c 128,-1,14
 991 1561 991 1561 966.5 1521 c 128,-1,15
 942 1481 942 1481 927.5 1434 c 128,-1,16
 913 1387 913 1387 913 1339 c 0,17,18
 913 1301 913 1301 924.5 1265 c 128,-1,19
 936 1229 936 1229 955.5 1200 c 128,-1,20
 975 1171 975 1171 1001 1152 c 128,-1,21
 1027 1133 1027 1133 1056 1130 c 1,22,-1
 1056 1085 l 1,23,-1
 944 940 l 1,0,1
417 940 m 1,24,25
 358 955 358 955 316.5 992 c 128,-1,26
 275 1029 275 1029 249 1075.5 c 128,-1,27
 223 1122 223 1122 211.5 1171.5 c 128,-1,28
 200 1221 200 1221 200 1262 c 0,29,30
 200 1347 200 1347 227.5 1420 c 128,-1,31
 255 1493 255 1493 300 1551 c 128,-1,32
 345 1609 345 1609 402 1651 c 128,-1,33
 459 1693 459 1693 518 1717 c 1,34,-1
 565 1657 l 1,35,-1
 565 1631 l 1,36,37
 529 1619 529 1619 496.5 1590 c 128,-1,38
 464 1561 464 1561 439.5 1521 c 128,-1,39
 415 1481 415 1481 400.5 1434 c 128,-1,40
 386 1387 386 1387 386 1339 c 0,41,42
 386 1301 386 1301 397.5 1265 c 128,-1,43
 409 1229 409 1229 428.5 1200 c 128,-1,44
 448 1171 448 1171 474 1152 c 128,-1,45
 500 1133 500 1133 529 1130 c 1,46,-1
 529 1085 l 1,47,-1
 417 940 l 1,24,25
EndSplineSet
EndChar

StartChar: quotedblright
Encoding: 8221 8221 117
Width: 1325
Flags: W
LayerCount: 2
Fore
SplineSet
760 1020 m 1,0,-1
 760 1046 l 1,1,2
 796 1058 796 1058 828.5 1087 c 128,-1,3
 861 1116 861 1116 885.5 1156 c 128,-1,4
 910 1196 910 1196 924.5 1243 c 128,-1,5
 939 1290 939 1290 939 1338 c 0,6,7
 939 1376 939 1376 927.5 1412 c 128,-1,8
 916 1448 916 1448 896.5 1477 c 128,-1,9
 877 1506 877 1506 851 1525 c 128,-1,10
 825 1544 825 1544 796 1547 c 1,11,-1
 796 1592 l 1,12,-1
 908 1737 l 1,13,14
 967 1722 967 1722 1008.5 1685 c 128,-1,15
 1050 1648 1050 1648 1076 1601.5 c 128,-1,16
 1102 1555 1102 1555 1113.5 1505 c 128,-1,17
 1125 1455 1125 1455 1125 1415 c 0,18,19
 1125 1330 1125 1330 1097 1257 c 128,-1,20
 1069 1184 1069 1184 1024 1126 c 128,-1,21
 979 1068 979 1068 922 1026 c 128,-1,22
 865 984 865 984 807 960 c 1,23,-1
 760 1020 l 1,0,-1
209 1020 m 1,24,-1
 209 1046 l 1,25,26
 245 1058 245 1058 277.5 1087 c 128,-1,27
 310 1116 310 1116 334.5 1156 c 128,-1,28
 359 1196 359 1196 373.5 1243 c 128,-1,29
 388 1290 388 1290 388 1338 c 0,30,31
 388 1376 388 1376 376.5 1412 c 128,-1,32
 365 1448 365 1448 345.5 1477 c 128,-1,33
 326 1506 326 1506 300 1525 c 128,-1,34
 274 1544 274 1544 245 1547 c 1,35,-1
 245 1592 l 1,36,-1
 357 1737 l 1,37,38
 416 1722 416 1722 457.5 1685 c 128,-1,39
 499 1648 499 1648 525 1601.5 c 128,-1,40
 551 1555 551 1555 562.5 1505 c 128,-1,41
 574 1455 574 1455 574 1415 c 0,42,43
 574 1330 574 1330 546 1257 c 128,-1,44
 518 1184 518 1184 473 1126 c 128,-1,45
 428 1068 428 1068 371 1026 c 128,-1,46
 314 984 314 984 256 960 c 1,47,-1
 209 1020 l 1,24,-1
EndSplineSet
EndChar

StartChar: quotedblbase
Encoding: 8222 8222 118
Width: 1325
Flags: W
LayerCount: 2
Fore
SplineSet
796 134 m 1,0,-1
 908 279 l 1,1,2
 967 264 967 264 1008.5 227 c 128,-1,3
 1050 190 1050 190 1076 143.5 c 128,-1,4
 1102 97 1102 97 1113.5 47 c 128,-1,5
 1125 -3 1125 -3 1125 -43 c 0,6,7
 1125 -128 1125 -128 1097 -201 c 128,-1,8
 1069 -274 1069 -274 1024 -332 c 128,-1,9
 979 -390 979 -390 922 -432 c 128,-1,10
 865 -474 865 -474 807 -498 c 1,11,-1
 760 -438 l 1,12,-1
 760 -412 l 1,13,14
 796 -400 796 -400 828.5 -371 c 128,-1,15
 861 -342 861 -342 885.5 -302 c 128,-1,16
 910 -262 910 -262 924.5 -215 c 128,-1,17
 939 -168 939 -168 939 -120 c 0,18,19
 939 -82 939 -82 927.5 -46 c 128,-1,20
 916 -10 916 -10 896.5 19 c 128,-1,21
 877 48 877 48 851 67 c 128,-1,22
 825 86 825 86 796 89 c 1,23,-1
 796 134 l 1,0,-1
245 134 m 1,24,-1
 357 279 l 1,25,26
 416 264 416 264 457.5 227 c 128,-1,27
 499 190 499 190 525 143.5 c 128,-1,28
 551 97 551 97 562.5 47 c 128,-1,29
 574 -3 574 -3 574 -43 c 0,30,31
 574 -128 574 -128 546 -201 c 128,-1,32
 518 -274 518 -274 473 -332 c 128,-1,33
 428 -390 428 -390 371 -432 c 128,-1,34
 314 -474 314 -474 256 -498 c 1,35,-1
 209 -438 l 1,36,-1
 209 -412 l 1,37,38
 245 -400 245 -400 277.5 -371 c 128,-1,39
 310 -342 310 -342 334.5 -302 c 128,-1,40
 359 -262 359 -262 373.5 -215 c 128,-1,41
 388 -168 388 -168 388 -120 c 0,42,43
 388 -82 388 -82 376.5 -46 c 128,-1,44
 365 -10 365 -10 345.5 19 c 128,-1,45
 326 48 326 48 300 67 c 128,-1,46
 274 86 274 86 245 89 c 1,47,-1
 245 134 l 1,24,-1
EndSplineSet
EndChar

StartChar: dagger
Encoding: 8224 8224 119
Width: 923
Flags: W
LayerCount: 2
Fore
SplineSet
373 1001 m 1,0,-1
 377 1135 l 1,1,-1
 92 1131 l 1,2,-1
 93 1278 l 1,3,-1
 394 1274 l 1,4,-1
 373 1473 l 1,5,-1
 368 1648 l 1,6,-1
 555 1648 l 1,7,-1
 550 1473 l 1,8,-1
 530 1274 l 1,9,-1
 831 1278 l 1,10,-1
 831 1131 l 1,11,-1
 547 1135 l 1,12,-1
 550 1001 l 1,13,-1
 512 283 l 1,14,-1
 412 283 l 1,15,-1
 373 1001 l 1,0,-1
EndSplineSet
EndChar

StartChar: bullet
Encoding: 8226 8226 120
Width: 841
Flags: W
LayerCount: 2
Fore
SplineSet
411 509 m 0,0,1
 369 509 369 509 332.5 526.5 c 128,-1,2
 296 544 296 544 269 573.5 c 128,-1,3
 242 603 242 603 227.5 642 c 128,-1,4
 213 681 213 681 216 724 c 0,5,6
 219 769 219 769 237.5 808 c 128,-1,7
 256 847 256 847 285 876 c 128,-1,8
 314 905 314 905 351.5 921.5 c 128,-1,9
 389 938 389 938 430 938 c 256,10,11
 471 938 471 938 508 921.5 c 128,-1,12
 545 905 545 905 572 876 c 128,-1,13
 599 847 599 847 613.5 808 c 128,-1,14
 628 769 628 769 625 724 c 256,15,16
 622 679 622 679 603.5 640 c 128,-1,17
 585 601 585 601 556 572 c 128,-1,18
 527 543 527 543 489.5 526 c 128,-1,19
 452 509 452 509 411 509 c 0,0,1
EndSplineSet
EndChar

StartChar: guilsinglright
Encoding: 8250 8250 121
Width: 1189
Flags: W
LayerCount: 2
Fore
SplineSet
245 248 m 1,0,-1
 758 623 l 1,1,-1
 245 984 l 1,2,-1
 296 1075 l 1,3,-1
 944 710 l 1,4,-1
 944 545 l 1,5,-1
 296 163 l 1,6,-1
 245 248 l 1,0,-1
EndSplineSet
EndChar

StartChar: quotedbl
Encoding: 34 34 122
Width: 1260
Flags: W
LayerCount: 2
Fore
SplineSet
737 1782 m 1,0,-1
 963 1782 l 1,1,-1
 914 966 l 1,2,-1
 786 966 l 1,3,-1
 737 1782 l 1,0,-1
297 1782 m 1,4,-1
 523 1782 l 1,5,-1
 474 966 l 1,6,-1
 346 966 l 1,7,-1
 297 1782 l 1,4,-1
EndSplineSet
EndChar

StartChar: exclam
Encoding: 33 33 123
Width: 706
Flags: W
LayerCount: 2
Fore
SplineSet
215 1780 m 1,0,-1
 471 1780 l 1,1,-1
 398 490 l 1,2,-1
 280 490 l 1,3,-1
 215 1780 l 1,0,-1
215 101 m 0,4,5
 215 132 215 132 228.5 159 c 128,-1,6
 242 186 242 186 263 205.5 c 128,-1,7
 284 225 284 225 310.5 236 c 128,-1,8
 337 247 337 247 364 247 c 0,9,10
 430 247 430 247 460.5 210.5 c 128,-1,11
 491 174 491 174 491 123 c 0,12,13
 491 90 491 90 478 63 c 128,-1,14
 465 36 465 36 444 17.5 c 128,-1,15
 423 -1 423 -1 396 -11.5 c 128,-1,16
 369 -22 369 -22 341 -22 c 0,17,18
 317 -22 317 -22 294 -13.5 c 128,-1,19
 271 -5 271 -5 253.5 10.5 c 128,-1,20
 236 26 236 26 225.5 49 c 128,-1,21
 215 72 215 72 215 101 c 0,4,5
EndSplineSet
EndChar

StartChar: logicalnot
Encoding: 172 172 124
Width: 1232
Flags: W
LayerCount: 2
Fore
SplineSet
178 872 m 1,0,-1
 1054 872 l 1,1,-1
 1054 343 l 1,2,-1
 890 343 l 1,3,-1
 890 744 l 1,4,-1
 178 744 l 1,5,-1
 178 872 l 1,0,-1
EndSplineSet
EndChar

StartChar: yen
Encoding: 165 165 125
Width: 1407
Flags: W
LayerCount: 2
Fore
SplineSet
413 85 m 1,0,-1
 607 115 l 1,1,-1
 607 377 l 1,2,-1
 182 377 l 1,3,-1
 182 504 l 1,4,-1
 607 504 l 1,5,-1
 607 734 l 1,6,-1
 182 734 l 1,7,-1
 182 861 l 1,8,-1
 542 861 l 1,9,-1
 162 1437 l 1,10,-1
 32 1455 l 1,11,-1
 32 1553 l 1,12,-1
 535 1553 l 1,13,-1
 535 1455 l 1,14,-1
 386 1438 l 1,15,-1
 669 975 l 1,16,-1
 718 861 l 1,17,-1
 745 861 l 1,18,-1
 807 983 l 1,19,20
 870 1092 870 1092 935 1209 c 128,-1,21
 1000 1326 1000 1326 1066 1438 c 1,22,-1
 918 1455 l 1,23,-1
 918 1553 l 1,24,-1
 1374 1553 l 1,25,-1
 1374 1455 l 1,26,-1
 1233 1426 l 1,27,-1
 873 861 l 1,28,-1
 1210 861 l 1,29,-1
 1210 734 l 1,30,-1
 802 734 l 1,31,-1
 802 504 l 1,32,-1
 1210 504 l 1,33,-1
 1210 377 l 1,34,-1
 802 377 l 1,35,-1
 802 116 l 1,36,-1
 1006 85 l 1,37,-1
 1006 0 l 1,38,-1
 413 0 l 1,39,-1
 413 85 l 1,0,-1
EndSplineSet
EndChar

StartChar: divide
Encoding: 247 247 126
Width: 1281
Flags: W
LayerCount: 2
Fore
SplineSet
631 1052 m 0,0,1
 607 1052 607 1052 584 1060.5 c 128,-1,2
 561 1069 561 1069 543.5 1084.5 c 128,-1,3
 526 1100 526 1100 515.5 1123 c 128,-1,4
 505 1146 505 1146 505 1175 c 0,5,6
 505 1206 505 1206 518.5 1233 c 128,-1,7
 532 1260 532 1260 553 1279.5 c 128,-1,8
 574 1299 574 1299 600.5 1310 c 128,-1,9
 627 1321 627 1321 654 1321 c 0,10,11
 720 1321 720 1321 750.5 1284.5 c 128,-1,12
 781 1248 781 1248 781 1197 c 0,13,14
 781 1164 781 1164 768 1137 c 128,-1,15
 755 1110 755 1110 734 1091.5 c 128,-1,16
 713 1073 713 1073 686 1062.5 c 128,-1,17
 659 1052 659 1052 631 1052 c 0,0,1
178 874 m 1,18,-1
 1103 874 l 1,19,-1
 1103 727 l 1,20,-1
 178 727 l 1,21,-1
 178 874 l 1,18,-1
505 398 m 0,22,23
 505 429 505 429 518.5 456 c 128,-1,24
 532 483 532 483 553 502.5 c 128,-1,25
 574 522 574 522 600.5 533 c 128,-1,26
 627 544 627 544 654 544 c 0,27,28
 720 544 720 544 750.5 507.5 c 128,-1,29
 781 471 781 471 781 420 c 0,30,31
 781 387 781 387 768 360 c 128,-1,32
 755 333 755 333 734 314.5 c 128,-1,33
 713 296 713 296 686 285.5 c 128,-1,34
 659 275 659 275 631 275 c 0,35,36
 607 275 607 275 584 283.5 c 128,-1,37
 561 292 561 292 543.5 307.5 c 128,-1,38
 526 323 526 323 515.5 346 c 128,-1,39
 505 369 505 369 505 398 c 0,22,23
EndSplineSet
EndChar

StartChar: daggerdbl
Encoding: 8225 8225 127
Width: 923
Flags: W
LayerCount: 2
Fore
SplineSet
92 629 m 1,0,-1
 393 625 l 1,1,-1
 373 999 l 1,2,-1
 377 1135 l 1,3,-1
 91 1131 l 1,4,-1
 92 1278 l 1,5,-1
 393 1274 l 1,6,-1
 373 1472 l 1,7,-1
 368 1648 l 1,8,-1
 555 1648 l 1,9,-1
 550 1472 l 1,10,-1
 530 1274 l 1,11,-1
 831 1278 l 1,12,-1
 832 1131 l 1,13,-1
 546 1135 l 1,14,-1
 550 999 l 1,15,-1
 530 625 l 1,16,-1
 831 629 l 1,17,-1
 832 482 l 1,18,-1
 546 486 l 1,19,-1
 550 351 l 1,20,-1
 508 -366 l 1,21,-1
 415 -366 l 1,22,-1
 373 351 l 1,23,-1
 377 486 l 1,24,-1
 91 482 l 1,25,-1
 92 629 l 1,0,-1
EndSplineSet
EndChar

StartChar: cent
Encoding: 162 162 128
Width: 1117
Flags: W
LayerCount: 2
Fore
SplineSet
514 -13 m 1,0,1
 420 3 420 3 347.5 50.5 c 128,-1,2
 275 98 275 98 225.5 170.5 c 128,-1,3
 176 243 176 243 150.5 336.5 c 128,-1,4
 125 430 125 430 124 538 c 0,5,6
 123 665 123 665 159 769.5 c 128,-1,7
 195 874 195 874 259 951.5 c 128,-1,8
 323 1029 323 1029 410.5 1078 c 128,-1,9
 498 1127 498 1127 600 1142 c 1,10,-1
 613 1362 l 1,11,-1
 737 1362 l 1,12,-1
 725 1149 l 1,13,14
 761 1148 761 1148 795.5 1144 c 128,-1,15
 830 1140 830 1140 860.5 1133.5 c 128,-1,16
 891 1127 891 1127 916 1118.5 c 128,-1,17
 941 1110 941 1110 958 1099 c 1,18,-1
 958 859 l 1,19,-1
 863 859 l 1,20,-1
 812 985 l 1,21,22
 796 998 796 998 775 1007 c 128,-1,23
 754 1016 754 1016 732 1022 c 128,-1,24
 710 1028 710 1028 688 1030.5 c 128,-1,25
 666 1033 666 1033 648 1033 c 0,26,27
 581 1033 581 1033 520 1008 c 128,-1,28
 459 983 459 983 412 932.5 c 128,-1,29
 365 882 365 882 337 805.5 c 128,-1,30
 309 729 309 729 308 626 c 0,31,32
 307 490 307 490 340 393 c 128,-1,33
 373 296 373 296 426 234.5 c 128,-1,34
 479 173 479 173 544 144.5 c 128,-1,35
 609 116 609 116 672 116 c 0,36,37
 711 116 711 116 753 121 c 128,-1,38
 795 126 795 126 834 134 c 128,-1,39
 873 142 873 142 906 153.5 c 128,-1,40
 939 165 939 165 960 177 c 1,41,-1
 994 88 l 1,42,43
 967 64 967 64 927.5 45 c 128,-1,44
 888 26 888 26 841.5 12 c 128,-1,45
 795 -2 795 -2 743 -10 c 128,-1,46
 691 -18 691 -18 638 -20 c 1,47,-1
 627 -216 l 1,48,-1
 503 -216 l 1,49,-1
 514 -13 l 1,0,1
EndSplineSet
EndChar

StartChar: circumflex
Encoding: 710 710 129
Width: 1063
Flags: W
LayerCount: 2
Fore
SplineSet
164 1381 m 1,0,-1
 437 1775 l 1,1,-1
 626 1775 l 1,2,-1
 888 1382 l 1,3,-1
 803 1336 l 1,4,-1
 531 1603 l 1,5,-1
 239 1335 l 1,6,-1
 164 1381 l 1,0,-1
EndSplineSet
EndChar

StartChar: caron
Encoding: 711 711 130
Width: 1063
Flags: W
LayerCount: 2
Fore
SplineSet
164 1728 m 1,0,-1
 249 1774 l 1,1,-1
 531 1507 l 1,2,-1
 813 1775 l 1,3,-1
 888 1729 l 1,4,-1
 625 1335 l 1,5,-1
 436 1335 l 1,6,-1
 164 1728 l 1,0,-1
EndSplineSet
EndChar

StartChar: breve
Encoding: 728 728 131
Width: 1063
Flags: W
LayerCount: 2
Fore
SplineSet
531 1379 m 0,0,1
 455 1379 455 1379 393 1406 c 128,-1,2
 331 1433 331 1433 287.5 1477.5 c 128,-1,3
 244 1522 244 1522 220.5 1579.5 c 128,-1,4
 197 1637 197 1637 197 1698 c 1,5,-1
 291 1698 l 1,6,7
 295 1692 295 1692 301.5 1676.5 c 128,-1,8
 308 1661 308 1661 318.5 1641.5 c 128,-1,9
 329 1622 329 1622 346 1601 c 128,-1,10
 363 1580 363 1580 388.5 1562.5 c 128,-1,11
 414 1545 414 1545 449 1534 c 128,-1,12
 484 1523 484 1523 532 1523 c 0,13,14
 604 1523 604 1523 648.5 1546.5 c 128,-1,15
 693 1570 693 1570 718.5 1600.5 c 128,-1,16
 744 1631 744 1631 756 1660 c 128,-1,17
 768 1689 768 1689 775 1699 c 1,18,-1
 865 1699 l 1,19,20
 865 1638 865 1638 840 1580.5 c 128,-1,21
 815 1523 815 1523 770 1478 c 128,-1,22
 725 1433 725 1433 664 1406 c 128,-1,23
 603 1379 603 1379 531 1379 c 0,0,1
EndSplineSet
EndChar

StartChar: dotaccent
Encoding: 729 729 132
Width: 575
Flags: W
LayerCount: 2
Fore
SplineSet
273 1360 m 0,0,1
 249 1360 249 1360 226 1368.5 c 128,-1,2
 203 1377 203 1377 185.5 1392.5 c 128,-1,3
 168 1408 168 1408 157.5 1431 c 128,-1,4
 147 1454 147 1454 147 1483 c 0,5,6
 147 1514 147 1514 160.5 1541 c 128,-1,7
 174 1568 174 1568 195 1587.5 c 128,-1,8
 216 1607 216 1607 242.5 1618 c 128,-1,9
 269 1629 269 1629 296 1629 c 0,10,11
 362 1629 362 1629 392.5 1592.5 c 128,-1,12
 423 1556 423 1556 423 1505 c 0,13,14
 423 1472 423 1472 410 1445 c 128,-1,15
 397 1418 397 1418 376 1399.5 c 128,-1,16
 355 1381 355 1381 328 1370.5 c 128,-1,17
 301 1360 301 1360 273 1360 c 0,0,1
EndSplineSet
EndChar

StartChar: ring
Encoding: 730 730 133
Width: 575
Flags: W
LayerCount: 2
Fore
SplineSet
287 1320 m 256,0,1
 235 1320 235 1320 189.5 1339 c 128,-1,2
 144 1358 144 1358 109.5 1390.5 c 128,-1,3
 75 1423 75 1423 55 1467 c 128,-1,4
 35 1511 35 1511 35 1561 c 256,5,6
 35 1611 35 1611 55 1655 c 128,-1,7
 75 1699 75 1699 109.5 1731.5 c 128,-1,8
 144 1764 144 1764 189.5 1783 c 128,-1,9
 235 1802 235 1802 287 1802 c 256,10,11
 339 1802 339 1802 384.5 1783 c 128,-1,12
 430 1764 430 1764 464.5 1731.5 c 128,-1,13
 499 1699 499 1699 519 1655 c 128,-1,14
 539 1611 539 1611 539 1561 c 256,15,16
 539 1511 539 1511 519 1467 c 128,-1,17
 499 1423 499 1423 464.5 1390.5 c 128,-1,18
 430 1358 430 1358 384.5 1339 c 128,-1,19
 339 1320 339 1320 287 1320 c 256,0,1
287 1426 m 256,20,21
 314 1426 314 1426 338.5 1436.5 c 128,-1,22
 363 1447 363 1447 381 1465 c 128,-1,23
 399 1483 399 1483 409.5 1507 c 128,-1,24
 420 1531 420 1531 420 1559 c 0,25,26
 420 1586 420 1586 409.5 1610 c 128,-1,27
 399 1634 399 1634 381 1652 c 128,-1,28
 363 1670 363 1670 338.5 1680.5 c 128,-1,29
 314 1691 314 1691 287 1691 c 256,30,31
 260 1691 260 1691 235.5 1680.5 c 128,-1,32
 211 1670 211 1670 193 1652 c 128,-1,33
 175 1634 175 1634 164.5 1610 c 128,-1,34
 154 1586 154 1586 154 1559 c 0,35,36
 154 1531 154 1531 164.5 1507 c 128,-1,37
 175 1483 175 1483 193 1465 c 128,-1,38
 211 1447 211 1447 235.5 1436.5 c 128,-1,39
 260 1426 260 1426 287 1426 c 256,20,21
EndSplineSet
EndChar

StartChar: tilde
Encoding: 732 732 134
Width: 886
Flags: W
LayerCount: 2
Fore
SplineSet
56 1490 m 1,0,1
 75 1525 75 1525 105.5 1556.5 c 128,-1,2
 136 1588 136 1588 173.5 1612 c 128,-1,3
 211 1636 211 1636 252.5 1650.5 c 128,-1,4
 294 1665 294 1665 333 1665 c 0,5,6
 382 1665 382 1665 415 1644 c 128,-1,7
 448 1623 448 1623 475.5 1597.5 c 128,-1,8
 503 1572 503 1572 530 1551 c 128,-1,9
 557 1530 557 1530 593 1530 c 0,10,11
 622 1530 622 1530 648.5 1539 c 128,-1,12
 675 1548 675 1548 698.5 1562 c 128,-1,13
 722 1576 722 1576 742 1592.5 c 128,-1,14
 762 1609 762 1609 778 1625 c 1,15,-1
 830 1552 l 1,16,17
 811 1517 811 1517 780.5 1485 c 128,-1,18
 750 1453 750 1453 712.5 1429 c 128,-1,19
 675 1405 675 1405 633.5 1390.5 c 128,-1,20
 592 1376 592 1376 553 1376 c 0,21,22
 520 1376 520 1376 495 1386 c 128,-1,23
 470 1396 470 1396 449 1411 c 128,-1,24
 428 1426 428 1426 410.5 1444 c 128,-1,25
 393 1462 393 1462 375 1477 c 128,-1,26
 357 1492 357 1492 337 1502 c 128,-1,27
 317 1512 317 1512 293 1512 c 0,28,29
 264 1512 264 1512 237 1503 c 128,-1,30
 210 1494 210 1494 186.5 1480 c 128,-1,31
 163 1466 163 1466 143 1449 c 128,-1,32
 123 1432 123 1432 108 1417 c 1,33,-1
 56 1490 l 1,0,1
EndSplineSet
EndChar

StartChar: hungarumlaut
Encoding: 733 733 135
Width: 915
Flags: W
LayerCount: 2
Fore
SplineSet
686 1394 m 1,0,-1
 1010 1810 l 1,1,-1
 1136 1691 l 1,2,3
 1101 1646 1101 1646 1049 1595 c 128,-1,4
 997 1544 997 1544 941 1496 c 128,-1,5
 885 1448 885 1448 831.5 1406.5 c 128,-1,6
 778 1365 778 1365 739 1340 c 1,7,-1
 686 1394 l 1,0,-1
196 1394 m 1,8,-1
 520 1810 l 1,9,-1
 646 1691 l 1,10,11
 611 1646 611 1646 559 1595 c 128,-1,12
 507 1544 507 1544 451 1496 c 128,-1,13
 395 1448 395 1448 341.5 1406.5 c 128,-1,14
 288 1365 288 1365 249 1340 c 1,15,-1
 196 1394 l 1,8,-1
EndSplineSet
EndChar

StartChar: ogonek
Encoding: 731 731 136
Width: 709
Flags: W
LayerCount: 2
Fore
SplineSet
307 8 m 1,0,-1
 398 0 l 1,1,2
 353 -18 353 -18 304 -51 c 128,-1,3
 255 -84 255 -84 214 -124 c 128,-1,4
 173 -164 173 -164 146 -205 c 128,-1,5
 119 -246 119 -246 119 -280 c 0,6,7
 119 -315 119 -315 127 -337 c 128,-1,8
 135 -359 135 -359 151 -372 c 128,-1,9
 167 -385 167 -385 191 -391 c 128,-1,10
 215 -397 215 -397 246 -399 c 256,11,12
 277 -401 277 -401 310.5 -392.5 c 128,-1,13
 344 -384 344 -384 373.5 -371.5 c 128,-1,14
 403 -359 403 -359 426.5 -346.5 c 128,-1,15
 450 -334 450 -334 462 -328 c 1,16,-1
 484 -416 l 1,17,18
 464 -431 464 -431 434.5 -451.5 c 128,-1,19
 405 -472 405 -472 363 -490 c 128,-1,20
 321 -508 321 -508 265.5 -519 c 128,-1,21
 210 -530 210 -530 138 -526 c 0,22,23
 83 -523 83 -523 45.5 -505.5 c 128,-1,24
 8 -488 8 -488 -15.5 -461.5 c 128,-1,25
 -39 -435 -39 -435 -49.5 -403 c 128,-1,26
 -60 -371 -60 -371 -60 -338 c 0,27,28
 -60 -292 -60 -292 -34 -242.5 c 128,-1,29
 -8 -193 -8 -193 34 -147.5 c 128,-1,30
 76 -102 76 -102 128.5 -63.5 c 128,-1,31
 181 -25 181 -25 234 0 c 1,32,-1
 307 8 l 1,0,-1
EndSplineSet
EndChar

StartChar: percent
Encoding: 37 37 137
Width: 1770
Flags: W
LayerCount: 2
Fore
SplineSet
1074 1601 m 1,0,-1
 1233 1601 l 1,1,-1
 687 0 l 1,2,-1
 528 0 l 1,3,-1
 1074 1601 l 1,0,-1
396 692 m 0,4,5
 325 690 325 690 269 719 c 128,-1,6
 213 748 213 748 174 797.5 c 128,-1,7
 135 847 135 847 114 913.5 c 128,-1,8
 93 980 93 980 93 1053 c 0,9,10
 93 1143 93 1143 120 1211.5 c 128,-1,11
 147 1280 147 1280 193 1327.5 c 128,-1,12
 239 1375 239 1375 299 1400 c 128,-1,13
 359 1425 359 1425 424 1427 c 0,14,15
 503 1430 503 1430 560 1401.5 c 128,-1,16
 617 1373 617 1373 654 1323 c 128,-1,17
 691 1273 691 1273 708.5 1205.5 c 128,-1,18
 726 1138 726 1138 726 1062 c 0,19,20
 726 973 726 973 699 904.5 c 128,-1,21
 672 836 672 836 626 789.5 c 128,-1,22
 580 743 580 743 520.5 718.5 c 128,-1,23
 461 694 461 694 396 692 c 0,4,5
408 795 m 0,24,25
 486 795 486 795 526.5 864 c 128,-1,26
 567 933 567 933 567 1055 c 0,27,28
 567 1116 567 1116 556.5 1165.5 c 128,-1,29
 546 1215 546 1215 526.5 1250.5 c 128,-1,30
 507 1286 507 1286 478 1305.5 c 128,-1,31
 449 1325 449 1325 412 1325 c 0,32,33
 373 1325 373 1325 343.5 1306.5 c 128,-1,34
 314 1288 314 1288 294 1253.5 c 128,-1,35
 274 1219 274 1219 263.5 1170.5 c 128,-1,36
 253 1122 253 1122 253 1061 c 0,37,38
 253 1004 253 1004 263.5 955.5 c 128,-1,39
 274 907 274 907 293.5 871.5 c 128,-1,40
 313 836 313 836 342 815.5 c 128,-1,41
 371 795 371 795 408 795 c 0,24,25
1043 525 m 0,42,43
 1043 615 1043 615 1070 683.5 c 128,-1,44
 1097 752 1097 752 1143 799.5 c 128,-1,45
 1189 847 1189 847 1249 872 c 128,-1,46
 1309 897 1309 897 1374 899 c 0,47,48
 1453 902 1453 902 1510 873.5 c 128,-1,49
 1567 845 1567 845 1604 795 c 128,-1,50
 1641 745 1641 745 1658.5 677.5 c 128,-1,51
 1676 610 1676 610 1676 534 c 0,52,53
 1676 445 1676 445 1649 376.5 c 128,-1,54
 1622 308 1622 308 1576 261.5 c 128,-1,55
 1530 215 1530 215 1470.5 190.5 c 128,-1,56
 1411 166 1411 166 1346 164 c 0,57,58
 1275 162 1275 162 1219 191 c 128,-1,59
 1163 220 1163 220 1124 269.5 c 128,-1,60
 1085 319 1085 319 1064 385.5 c 128,-1,61
 1043 452 1043 452 1043 525 c 0,42,43
1203 533 m 0,62,63
 1203 476 1203 476 1213.5 427.5 c 128,-1,64
 1224 379 1224 379 1243.5 343.5 c 128,-1,65
 1263 308 1263 308 1292 287.5 c 128,-1,66
 1321 267 1321 267 1358 267 c 0,67,68
 1436 267 1436 267 1476.5 336 c 128,-1,69
 1517 405 1517 405 1517 527 c 0,70,71
 1517 588 1517 588 1506.5 637.5 c 128,-1,72
 1496 687 1496 687 1476.5 722.5 c 128,-1,73
 1457 758 1457 758 1428 777.5 c 128,-1,74
 1399 797 1399 797 1362 797 c 0,75,76
 1323 797 1323 797 1293.5 778.5 c 128,-1,77
 1264 760 1264 760 1244 725.5 c 128,-1,78
 1224 691 1224 691 1213.5 642.5 c 128,-1,79
 1203 594 1203 594 1203 533 c 0,62,63
EndSplineSet
EndChar

StartChar: dotlessi
Encoding: 305 305 138
Width: 683
Flags: W
LayerCount: 2
Fore
SplineSet
112 85 m 1,0,-1
 282 106 l 1,1,-1
 282 925 l 1,2,-1
 144 998 l 1,3,-1
 144 1060 l 1,4,-1
 421 1139 l 1,5,-1
 466 1119 l 1,6,-1
 466 106 l 1,7,-1
 628 85 l 1,8,-1
 628 0 l 1,9,-1
 112 0 l 1,10,-1
 112 85 l 1,0,-1
EndSplineSet
EndChar

StartChar: oslash
Encoding: 248 248 139
Width: 1231
Flags: W
LayerCount: 2
Fore
SplineSet
388 19 m 1,0,1
 311 53 311 53 256 111 c 128,-1,2
 201 169 201 169 166 243.5 c 128,-1,3
 131 318 131 318 115.5 404 c 128,-1,4
 100 490 100 490 101 582 c 0,5,6
 103 716 103 716 147.5 821.5 c 128,-1,7
 192 927 192 927 265 1000 c 128,-1,8
 338 1073 338 1073 433.5 1112 c 128,-1,9
 529 1151 529 1151 633 1152 c 0,10,11
 711 1152 711 1152 775 1136 c 1,12,-1
 832 1303 l 1,13,-1
 913 1271 l 1,14,-1
 858 1106 l 1,15,16
 927 1073 927 1073 978.5 1019 c 128,-1,17
 1030 965 1030 965 1064 896 c 128,-1,18
 1098 827 1098 827 1114.5 745 c 128,-1,19
 1131 663 1131 663 1130 573 c 0,20,21
 1129 440 1129 440 1087.5 330 c 128,-1,22
 1046 220 1046 220 975.5 141.5 c 128,-1,23
 905 63 905 63 810.5 19.5 c 128,-1,24
 716 -24 716 -24 608 -24 c 0,25,26
 535 -24 535 -24 474 -9 c 1,27,-1
 412 -194 l 1,28,-1
 327 -161 l 1,29,-1
 388 19 l 1,0,1
731 1022 m 1,30,31
 681 1046 681 1046 621 1047 c 0,32,33
 536 1048 536 1048 476.5 1017.5 c 128,-1,34
 417 987 417 987 379 928 c 128,-1,35
 341 869 341 869 323.5 784 c 128,-1,36
 306 699 306 699 306 591 c 0,37,38
 306 526 306 526 314.5 464.5 c 128,-1,39
 323 403 323 403 339.5 347.5 c 128,-1,40
 356 292 356 292 381.5 245 c 128,-1,41
 407 198 407 198 441 164 c 1,42,-1
 731 1022 l 1,30,31
518 110 m 1,43,44
 562 90 562 90 617 88 c 0,45,46
 702 86 702 86 760.5 117 c 128,-1,47
 819 148 819 148 855.5 208.5 c 128,-1,48
 892 269 892 269 908.5 358.5 c 128,-1,49
 925 448 925 448 925 564 c 0,50,51
 925 693 925 693 896.5 798 c 128,-1,52
 868 903 868 903 806 967 c 1,53,-1
 518 110 l 1,43,44
EndSplineSet
EndChar

StartChar: ordfeminine
Encoding: 170 170 140
Width: 964
Flags: W
LayerCount: 2
Fore
SplineSet
323 736 m 0,0,1
 290 736 290 736 247.5 750 c 128,-1,2
 205 764 205 764 168 793 c 128,-1,3
 131 822 131 822 105.5 867 c 128,-1,4
 80 912 80 912 80 975 c 0,5,6
 80 1065 80 1065 125.5 1121 c 128,-1,7
 171 1177 171 1177 247 1207.5 c 128,-1,8
 323 1238 323 1238 421 1248.5 c 128,-1,9
 519 1259 519 1259 624 1259 c 1,10,-1
 624 1285 l 2,11,12
 624 1349 624 1349 608.5 1385.5 c 128,-1,13
 593 1422 593 1422 564.5 1441 c 128,-1,14
 536 1460 536 1460 496.5 1465 c 128,-1,15
 457 1470 457 1470 410 1470 c 0,16,17
 371 1470 371 1470 334.5 1465.5 c 128,-1,18
 298 1461 298 1461 266 1453 c 128,-1,19
 234 1445 234 1445 207.5 1434 c 128,-1,20
 181 1423 181 1423 163 1409 c 1,21,-1
 125 1497 l 1,22,23
 147 1517 147 1517 185 1534.5 c 128,-1,24
 223 1552 223 1552 269.5 1565 c 128,-1,25
 316 1578 316 1578 367 1585.5 c 128,-1,26
 418 1593 418 1593 466 1593 c 0,27,28
 538 1593 538 1593 599 1583.5 c 128,-1,29
 660 1574 660 1574 704.5 1542.5 c 128,-1,30
 749 1511 749 1511 774 1452.5 c 128,-1,31
 799 1394 799 1394 799 1297 c 2,32,-1
 797 839 l 1,33,-1
 884 839 l 1,34,-1
 884 763 l 1,35,36
 871 758 871 758 850.5 752 c 128,-1,37
 830 746 830 746 806.5 741 c 128,-1,38
 783 736 783 736 760 733 c 128,-1,39
 737 730 737 730 718 730 c 256,40,41
 699 730 699 730 683 733 c 128,-1,42
 667 736 667 736 655 746 c 128,-1,43
 643 756 643 756 636 774.5 c 128,-1,44
 629 793 629 793 629 824 c 2,45,-1
 629 839 l 1,46,47
 612 824 612 824 586.5 806.5 c 128,-1,48
 561 789 561 789 524 773 c 128,-1,49
 487 757 487 757 437.5 746.5 c 128,-1,50
 388 736 388 736 323 736 c 0,0,1
399 853 m 0,51,52
 425 853 425 853 456 857.5 c 128,-1,53
 487 862 487 862 518 870.5 c 128,-1,54
 549 879 549 879 576.5 892 c 128,-1,55
 604 905 604 905 622 922 c 1,56,-1
 623 1168 l 1,57,58
 545 1168 545 1168 479.5 1160.5 c 128,-1,59
 414 1153 414 1153 367 1134.5 c 128,-1,60
 320 1116 320 1116 293.5 1085 c 128,-1,61
 267 1054 267 1054 267 1008 c 0,62,63
 267 970 267 970 277.5 941 c 128,-1,64
 288 912 288 912 306 892.5 c 128,-1,65
 324 873 324 873 348 863 c 128,-1,66
 372 853 372 853 399 853 c 0,51,52
EndSplineSet
EndChar

StartChar: ordmasculine
Encoding: 186 186 141
Width: 998
Flags: W
LayerCount: 2
Fore
SplineSet
489 736 m 0,0,1
 405 736 405 736 331.5 764 c 128,-1,2
 258 792 258 792 204 846.5 c 128,-1,3
 150 901 150 901 119.5 981.5 c 128,-1,4
 89 1062 89 1062 91 1166 c 0,5,6
 93 1280 93 1280 132.5 1361 c 128,-1,7
 172 1442 172 1442 232.5 1493.5 c 128,-1,8
 293 1545 293 1545 366.5 1569 c 128,-1,9
 440 1593 440 1593 510 1593 c 0,10,11
 603 1593 603 1593 677 1562.5 c 128,-1,12
 751 1532 751 1532 802.5 1475 c 128,-1,13
 854 1418 854 1418 881 1337 c 128,-1,14
 908 1256 908 1256 907 1156 c 0,15,16
 906 1043 906 1043 865.5 963 c 128,-1,17
 825 883 825 883 763.5 833 c 128,-1,18
 702 783 702 783 629 759.5 c 128,-1,19
 556 736 556 736 489 736 c 0,0,1
486 838 m 0,20,21
 540 838 540 838 581.5 850.5 c 128,-1,22
 623 863 623 863 652 897 c 128,-1,23
 681 931 681 931 696 990.5 c 128,-1,24
 711 1050 711 1050 711 1144 c 0,25,26
 711 1221 711 1221 696.5 1285 c 128,-1,27
 682 1349 682 1349 654.5 1395 c 128,-1,28
 627 1441 627 1441 587.5 1466 c 128,-1,29
 548 1491 548 1491 499 1490 c 0,30,31
 449 1489 449 1489 410 1471 c 128,-1,32
 371 1453 371 1453 343.5 1415.5 c 128,-1,33
 316 1378 316 1378 301.5 1318.5 c 128,-1,34
 287 1259 287 1259 287 1176 c 0,35,36
 287 1098 287 1098 303 1035.5 c 128,-1,37
 319 973 319 973 346 929 c 128,-1,38
 373 885 373 885 409 861.5 c 128,-1,39
 445 838 445 838 486 838 c 0,20,21
EndSplineSet
EndChar

StartChar: section
Encoding: 167 167 142
Width: 1327
Flags: W
LayerCount: 2
Fore
SplineSet
256 140 m 1,0,-1
 321 -54 l 1,1,2
 355 -92 355 -92 394.5 -113 c 128,-1,3
 434 -134 434 -134 476.5 -145 c 128,-1,4
 519 -156 519 -156 563.5 -158.5 c 128,-1,5
 608 -161 608 -161 653 -161 c 0,6,7
 704 -161 704 -161 758 -149 c 128,-1,8
 812 -137 812 -137 856 -109.5 c 128,-1,9
 900 -82 900 -82 928 -36.5 c 128,-1,10
 956 9 956 9 956 76 c 0,11,12
 956 142 956 142 923 192.5 c 128,-1,13
 890 243 890 243 836 284.5 c 128,-1,14
 782 326 782 326 713 360.5 c 128,-1,15
 644 395 644 395 572.5 430 c 128,-1,16
 501 465 501 465 432 503.5 c 128,-1,17
 363 542 363 542 309 589.5 c 128,-1,18
 255 637 255 637 222 698 c 128,-1,19
 189 759 189 759 189 839 c 0,20,21
 189 879 189 879 196.5 920.5 c 128,-1,22
 204 962 204 962 218 1001 c 128,-1,23
 232 1040 232 1040 251 1075 c 128,-1,24
 270 1110 270 1110 294 1137 c 1,25,26
 252 1181 252 1181 228 1235 c 128,-1,27
 204 1289 204 1289 204 1358 c 0,28,29
 204 1430 204 1430 226.5 1488.5 c 128,-1,30
 249 1547 249 1547 286.5 1593 c 128,-1,31
 324 1639 324 1639 373.5 1673 c 128,-1,32
 423 1707 423 1707 477.5 1729 c 128,-1,33
 532 1751 532 1751 587.5 1762 c 128,-1,34
 643 1773 643 1773 693 1773 c 0,35,36
 766 1773 766 1773 828 1766 c 128,-1,37
 890 1759 890 1759 939.5 1747.5 c 128,-1,38
 989 1736 989 1736 1025 1722.5 c 128,-1,39
 1061 1709 1061 1709 1083 1696 c 1,40,-1
 1083 1419 l 1,41,-1
 998 1419 l 1,42,-1
 920 1611 l 1,43,44
 907 1626 907 1626 882.5 1637 c 128,-1,45
 858 1648 858 1648 826 1655.5 c 128,-1,46
 794 1663 794 1663 757 1667 c 128,-1,47
 720 1671 720 1671 681 1671 c 0,48,49
 640 1671 640 1671 589.5 1656.5 c 128,-1,50
 539 1642 539 1642 494 1609.5 c 128,-1,51
 449 1577 449 1577 418.5 1525 c 128,-1,52
 388 1473 388 1473 388 1397 c 0,53,54
 388 1334 388 1334 421 1286 c 128,-1,55
 454 1238 454 1238 508 1199 c 128,-1,56
 562 1160 562 1160 631 1126.5 c 128,-1,57
 700 1093 700 1093 772.5 1059.5 c 128,-1,58
 845 1026 845 1026 914 988.5 c 128,-1,59
 983 951 983 951 1037 904 c 128,-1,60
 1091 857 1091 857 1124 796 c 128,-1,61
 1157 735 1157 735 1157 655 c 0,62,63
 1157 613 1157 613 1150.5 569 c 128,-1,64
 1144 525 1144 525 1132 484 c 128,-1,65
 1120 443 1120 443 1103 406 c 128,-1,66
 1086 369 1086 369 1064 341 c 1,67,68
 1100 299 1100 299 1121 249 c 128,-1,69
 1142 199 1142 199 1142 136 c 0,70,71
 1142 26 1142 26 1100 -50.5 c 128,-1,72
 1058 -127 1058 -127 987 -175 c 128,-1,73
 916 -223 916 -223 822.5 -244.5 c 128,-1,74
 729 -266 729 -266 626 -266 c 0,75,76
 551 -266 551 -266 478.5 -258 c 128,-1,77
 406 -250 406 -250 344.5 -237.5 c 128,-1,78
 283 -225 283 -225 237 -210 c 128,-1,79
 191 -195 191 -195 170 -182 c 1,80,-1
 170 140 l 1,81,-1
 256 140 l 1,0,-1
373 878 m 0,82,83
 373 822 373 822 399.5 777.5 c 128,-1,84
 426 733 426 733 470 697 c 128,-1,85
 514 661 514 661 572.5 630 c 128,-1,86
 631 599 631 599 694 570 c 128,-1,87
 757 541 757 541 821.5 510 c 128,-1,88
 886 479 886 479 943 443 c 1,89,90
 956 478 956 478 963.5 519 c 128,-1,91
 971 560 971 560 971 595 c 0,92,93
 971 653 971 653 945 699 c 128,-1,94
 919 745 919 745 876 783 c 128,-1,95
 833 821 833 821 776 853 c 128,-1,96
 719 885 719 885 656.5 915.5 c 128,-1,97
 594 946 594 946 530.5 977 c 128,-1,98
 467 1008 467 1008 410 1044 c 1,99,100
 393 1007 393 1007 383 963 c 128,-1,101
 373 919 373 919 373 878 c 0,82,83
EndSplineSet
EndChar

StartChar: AE
Encoding: 198 198 143
Width: 1940
Flags: W
LayerCount: 2
Fore
SplineSet
2 85 m 1,0,-1
 143 114 l 1,1,-1
 727 1553 l 1,2,-1
 1698 1553 l 1,3,-1
 1727 1268 l 1,4,-1
 1627 1266 l 1,5,-1
 1581 1435 l 1,6,-1
 970 1447 l 1,7,-1
 1143 868 l 1,8,-1
 1529 874 l 1,9,-1
 1559 1031 l 1,10,-1
 1651 1031 l 1,11,-1
 1651 611 l 1,12,-1
 1559 611 l 1,13,-1
 1529 754 l 1,14,-1
 1176 758 l 1,15,-1
 1369 111 l 1,16,-1
 1690 127 l 1,17,-1
 1790 334 l 1,18,-1
 1877 291 l 1,19,-1
 1832 0 l 1,20,-1
 986 0 l 1,21,-1
 986 85 l 1,22,-1
 1149 115 l 1,23,-1
 1044 456 l 1,24,-1
 439 456 l 1,25,-1
 311 115 l 1,26,-1
 480 85 l 1,27,-1
 480 0 l 1,28,-1
 2 0 l 1,29,-1
 2 85 l 1,0,-1
1008 573 m 1,30,-1
 820 1185 l 1,31,-1
 784 1376 l 1,32,-1
 483 573 l 1,33,-1
 1008 573 l 1,30,-1
EndSplineSet
EndChar

StartChar: dollar
Encoding: 36 36 144
Width: 1270
Flags: W
LayerCount: 2
Fore
SplineSet
174 383 m 1,0,-1
 262 383 l 1,1,-1
 325 184 l 1,2,3
 355 153 355 153 394 132.5 c 128,-1,4
 433 112 433 112 476.5 100 c 128,-1,5
 520 88 520 88 566.5 83 c 128,-1,6
 613 78 613 78 657 78 c 0,7,8
 712 78 712 78 766.5 93 c 128,-1,9
 821 108 821 108 864.5 140.5 c 128,-1,10
 908 173 908 173 935 223 c 128,-1,11
 962 273 962 273 962 343 c 0,12,13
 962 407 962 407 931 459 c 128,-1,14
 900 511 900 511 849 556 c 128,-1,15
 798 601 798 601 731.5 641 c 128,-1,16
 665 681 665 681 595 720 c 0,17,18
 519 762 519 762 445.5 808 c 128,-1,19
 372 854 372 854 314 908.5 c 128,-1,20
 256 963 256 963 220 1030 c 128,-1,21
 184 1097 184 1097 184 1181 c 0,22,23
 184 1272 184 1272 220.5 1339.5 c 128,-1,24
 257 1407 257 1407 314.5 1453 c 128,-1,25
 372 1499 372 1499 443 1525.5 c 128,-1,26
 514 1552 514 1552 584 1561 c 1,27,-1
 590 1731 l 1,28,-1
 747 1731 l 1,29,-1
 741 1565 l 1,30,31
 857 1558 857 1558 935.5 1535.5 c 128,-1,32
 1014 1513 1014 1513 1052 1490 c 1,33,-1
 1052 1213 l 1,34,-1
 967 1213 l 1,35,-1
 889 1405 l 1,36,37
 871 1421 871 1421 845.5 1433 c 128,-1,38
 820 1445 820 1445 788.5 1453 c 128,-1,39
 757 1461 757 1461 721.5 1464.5 c 128,-1,40
 686 1468 686 1468 650 1468 c 0,41,42
 609 1468 609 1468 559.5 1455.5 c 128,-1,43
 510 1443 510 1443 467 1413.5 c 128,-1,44
 424 1384 424 1384 394.5 1335.5 c 128,-1,45
 365 1287 365 1287 365 1214 c 0,46,47
 365 1157 365 1157 392.5 1109 c 128,-1,48
 420 1061 420 1061 466.5 1020 c 128,-1,49
 513 979 513 979 573.5 942 c 128,-1,50
 634 905 634 905 700 870 c 0,51,52
 779 827 779 827 859 781 c 128,-1,53
 939 735 939 735 1002.5 678.5 c 128,-1,54
 1066 622 1066 622 1106 553.5 c 128,-1,55
 1146 485 1146 485 1146 397 c 0,56,57
 1146 292 1146 292 1109 215.5 c 128,-1,58
 1072 139 1072 139 1008.5 88 c 128,-1,59
 945 37 945 37 860.5 10.5 c 128,-1,60
 776 -16 776 -16 681 -21 c 1,61,-1
 674 -231 l 1,62,-1
 517 -231 l 1,63,-1
 524 -19 l 1,64,65
 464 -14 464 -14 408.5 -5 c 128,-1,66
 353 4 353 4 306.5 15 c 128,-1,67
 260 26 260 26 226 38 c 128,-1,68
 192 50 192 50 174 61 c 1,69,-1
 174 383 l 1,0,-1
EndSplineSet
EndChar

StartChar: Oslash
Encoding: 216 216 145
Width: 1554
Flags: W
LayerCount: 2
Fore
SplineSet
503 19 m 1,0,1
 404 59 404 59 325.5 130 c 128,-1,2
 247 201 247 201 193 295.5 c 128,-1,3
 139 390 139 390 111.5 506 c 128,-1,4
 84 622 84 622 87 752 c 0,5,6
 91 943 91 943 148.5 1093 c 128,-1,7
 206 1243 206 1243 303 1347 c 128,-1,8
 400 1451 400 1451 528 1507 c 128,-1,9
 656 1563 656 1563 801 1567 c 0,10,11
 864 1569 864 1569 921.5 1560 c 128,-1,12
 979 1551 979 1551 1032 1533 c 1,13,-1
 1088 1693 l 1,14,-1
 1171 1659 l 1,15,-1
 1115 1497 l 1,16,17
 1200 1452 1200 1452 1266.5 1381 c 128,-1,18
 1333 1310 1333 1310 1378.5 1218.5 c 128,-1,19
 1424 1127 1424 1127 1446.5 1018 c 128,-1,20
 1469 909 1469 909 1467 788 c 0,21,22
 1463 597 1463 597 1407.5 446.5 c 128,-1,23
 1352 296 1352 296 1258 191.5 c 128,-1,24
 1164 87 1164 87 1038.5 31 c 128,-1,25
 913 -25 913 -25 771 -28 c 0,26,27
 676 -30 676 -30 593 -10 c 1,28,-1
 528 -199 l 1,29,-1
 440 -166 l 1,30,-1
 503 19 l 1,0,1
984 1405 m 1,31,32
 940 1431 940 1431 890.5 1446 c 128,-1,33
 841 1461 841 1461 784 1461 c 0,34,35
 674 1461 674 1461 585 1413 c 128,-1,36
 496 1365 496 1365 433.5 1274 c 128,-1,37
 371 1183 371 1183 337 1051.5 c 128,-1,38
 303 920 303 920 303 753 c 0,39,40
 303 660 303 660 319.5 571 c 128,-1,41
 336 482 336 482 367.5 403.5 c 128,-1,42
 399 325 399 325 445.5 260.5 c 128,-1,43
 492 196 492 196 553 152 c 1,44,-1
 984 1405 l 1,31,32
636 106 m 1,45,46
 706 77 706 77 788 77 c 0,47,48
 898 77 898 77 984 125.5 c 128,-1,49
 1070 174 1070 174 1129.5 265.5 c 128,-1,50
 1189 357 1189 357 1220 488.5 c 128,-1,51
 1251 620 1251 620 1251 787 c 0,52,53
 1251 870 1251 870 1238.5 950 c 128,-1,54
 1226 1030 1226 1030 1202 1102 c 128,-1,55
 1178 1174 1178 1174 1142 1236 c 128,-1,56
 1106 1298 1106 1298 1059 1345 c 1,57,-1
 636 106 l 1,45,46
EndSplineSet
EndChar

StartChar: Euro
Encoding: 8364 8364 146
Width: 1390
Flags: W
LayerCount: 2
Fore
SplineSet
-39 693 m 1,0,-1
 156 693 l 1,1,-1
 156 724 l 2,2,3
 156 769 156 769 159 812 c 128,-1,4
 162 855 162 855 167 897 c 1,5,-1
 -9 897 l 1,6,-1
 -9 1024 l 1,7,-1
 191 1024 l 1,8,9
 223 1151 223 1151 283 1252 c 128,-1,10
 343 1353 343 1353 427 1423 c 128,-1,11
 511 1493 511 1493 618.5 1530 c 128,-1,12
 726 1567 726 1567 852 1567 c 0,13,14
 924 1567 924 1567 986 1558.5 c 128,-1,15
 1048 1550 1048 1550 1100 1538.5 c 128,-1,16
 1152 1527 1152 1527 1194 1515 c 128,-1,17
 1236 1503 1236 1503 1269 1496 c 1,18,-1
 1253 1206 l 1,19,-1
 1167 1206 l 1,20,-1
 1115 1373 l 1,21,22
 1052 1416 1052 1416 973 1433.5 c 128,-1,23
 894 1451 894 1451 789 1451 c 0,24,25
 619 1451 619 1451 516 1340.5 c 128,-1,26
 413 1230 413 1230 378 1024 c 1,27,-1
 949 1024 l 1,28,-1
 949 897 l 1,29,-1
 364 897 l 1,30,31
 362 870 362 870 361 842.5 c 128,-1,32
 360 815 360 815 360 786 c 0,33,34
 360 762 360 762 360 739 c 128,-1,35
 360 716 360 716 362 693 c 1,36,-1
 919 693 l 1,37,-1
 919 566 l 1,38,-1
 371 566 l 1,39,40
 383 462 383 462 412 372.5 c 128,-1,41
 441 283 441 283 492 217.5 c 128,-1,42
 543 152 543 152 620 114.5 c 128,-1,43
 697 77 697 77 807 77 c 0,44,45
 868 77 868 77 914 83 c 128,-1,46
 960 89 960 89 998 101 c 128,-1,47
 1036 113 1036 113 1069 132 c 128,-1,48
 1102 151 1102 151 1136 177 c 1,49,50
 1157 264 1157 264 1181 351 c 1,51,52
 1204 351 1204 351 1225.5 350.5 c 128,-1,53
 1247 350 1247 350 1270 350 c 1,54,-1
 1270 63 l 1,55,56
 1234 61 1234 61 1190.5 47 c 128,-1,57
 1147 33 1147 33 1087 16 c 128,-1,58
 1027 -1 1027 -1 947.5 -14.5 c 128,-1,59
 868 -28 868 -28 761 -28 c 0,60,61
 625 -28 625 -28 521 14.5 c 128,-1,62
 417 57 417 57 343 135 c 128,-1,63
 269 213 269 213 225 322.5 c 128,-1,64
 181 432 181 432 165 566 c 1,65,-1
 -39 566 l 1,66,-1
 -39 693 l 1,0,-1
EndSplineSet
EndChar

StartChar: ae
Encoding: 230 230 147
Width: 1800
Flags: W
LayerCount: 2
Fore
SplineSet
110 322 m 0,0,1
 117 392 117 392 155 444.5 c 128,-1,2
 193 497 193 497 249 535 c 128,-1,3
 305 573 305 573 373.5 598 c 128,-1,4
 442 623 442 623 511 638 c 128,-1,5
 580 653 580 653 644 659 c 128,-1,6
 708 665 708 665 755 665 c 1,7,-1
 755 752 l 2,8,9
 755 831 755 831 734 880.5 c 128,-1,10
 713 930 713 930 676 958 c 128,-1,11
 639 986 639 986 589 996 c 128,-1,12
 539 1006 539 1006 481 1006 c 0,13,14
 452 1006 452 1006 416 1000.5 c 128,-1,15
 380 995 380 995 341.5 985 c 128,-1,16
 303 975 303 975 264 961 c 128,-1,17
 225 947 225 947 190 930 c 1,18,-1
 153 1020 l 1,19,20
 190 1050 190 1050 243.5 1072.5 c 128,-1,21
 297 1095 297 1095 353.5 1110 c 128,-1,22
 410 1125 410 1125 463.5 1132 c 128,-1,23
 517 1139 517 1139 555 1139 c 0,24,25
 611 1139 611 1139 663.5 1131 c 128,-1,26
 716 1123 716 1123 761.5 1104.5 c 128,-1,27
 807 1086 807 1086 843.5 1054.5 c 128,-1,28
 880 1023 880 1023 905 976 c 1,29,30
 979 1057 979 1057 1081 1103 c 128,-1,31
 1183 1149 1183 1149 1308 1152 c 0,32,33
 1396 1154 1396 1154 1467 1126.5 c 128,-1,34
 1538 1099 1538 1099 1588 1045 c 128,-1,35
 1638 991 1638 991 1666.5 913 c 128,-1,36
 1695 835 1695 835 1699 736 c 0,37,38
 1701 673 1701 673 1696.5 627 c 128,-1,39
 1692 581 1692 581 1687 545 c 1,40,-1
 947 545 l 1,41,42
 949 415 949 415 985.5 331 c 128,-1,43
 1022 247 1022 247 1078.5 198.5 c 128,-1,44
 1135 150 1135 150 1202.5 131.5 c 128,-1,45
 1270 113 1270 113 1334 113 c 0,46,47
 1373 113 1373 113 1417.5 117.5 c 128,-1,48
 1462 122 1462 122 1504.5 130.5 c 128,-1,49
 1547 139 1547 139 1583 150 c 128,-1,50
 1619 161 1619 161 1640 173 c 1,51,-1
 1677 88 l 1,52,53
 1648 62 1648 62 1600 41 c 128,-1,54
 1552 20 1552 20 1495 5.5 c 128,-1,55
 1438 -9 1438 -9 1376.5 -16.5 c 128,-1,56
 1315 -24 1315 -24 1258 -24 c 0,57,58
 1125 -24 1125 -24 1027 24 c 128,-1,59
 929 72 929 72 865 160 c 1,60,61
 836 120 836 120 792 86.5 c 128,-1,62
 748 53 748 53 692.5 28.5 c 128,-1,63
 637 4 637 4 571.5 -10 c 128,-1,64
 506 -24 506 -24 433 -24 c 0,65,66
 355 -24 355 -24 291.5 4 c 128,-1,67
 228 32 228 32 185.5 79.5 c 128,-1,68
 143 127 143 127 122.5 189.5 c 128,-1,69
 102 252 102 252 110 322 c 0,0,1
1495 663 m 1,70,71
 1498 714 1498 714 1496.5 765.5 c 128,-1,72
 1495 817 1495 817 1484 863.5 c 128,-1,73
 1473 910 1473 910 1450.5 948.5 c 128,-1,74
 1428 987 1428 987 1390 1011 c 0,75,76
 1364 1028 1364 1028 1331 1036.5 c 128,-1,77
 1298 1045 1298 1045 1256 1045 c 0,78,79
 1200 1045 1200 1045 1147.5 1024 c 128,-1,80
 1095 1003 1095 1003 1053.5 957 c 128,-1,81
 1012 911 1012 911 984 838.5 c 128,-1,82
 956 766 956 766 948 663 c 1,83,-1
 1495 663 l 1,70,71
304 318 m 0,84,85
 304 259 304 259 320 218 c 128,-1,86
 336 177 336 177 366.5 151.5 c 128,-1,87
 397 126 397 126 441 114.5 c 128,-1,88
 485 103 485 103 540 103 c 0,89,90
 570 103 570 103 601 111 c 128,-1,91
 632 119 632 119 660.5 131 c 128,-1,92
 689 143 689 143 713.5 158.5 c 128,-1,93
 738 174 738 174 753 189 c 1,94,95
 753 283 753 283 753.5 375.5 c 128,-1,96
 754 468 754 468 755 562 c 1,97,98
 713 562 713 562 663 557.5 c 128,-1,99
 613 553 613 553 563 542 c 128,-1,100
 513 531 513 531 466 513 c 128,-1,101
 419 495 419 495 383 467.5 c 128,-1,102
 347 440 347 440 325.5 403 c 128,-1,103
 304 366 304 366 304 318 c 0,84,85
EndSplineSet
EndChar

StartChar: mu
Encoding: 181 181 148
AltUni2: 0003bc.ffffffff.0
Width: 1415
Flags: W
LayerCount: 2
Fore
SplineSet
453 -373 m 1,0,-1
 264 -373 l 1,1,-1
 264 440 l 1,2,-1
 264 461 l 1,3,-1
 264 977 l 1,4,-1
 161 1007 l 1,5,-1
 161 1084 l 1,6,-1
 418 1139 l 1,7,-1
 453 1121 l 1,8,-1
 453 432 l 2,9,10
 453 349 453 349 462 289.5 c 128,-1,11
 471 230 471 230 495 191.5 c 128,-1,12
 519 153 519 153 561 134.5 c 128,-1,13
 603 116 603 116 669 116 c 0,14,15
 714 116 714 116 757.5 128.5 c 128,-1,16
 801 141 801 141 838.5 158.5 c 128,-1,17
 876 176 876 176 904 195.5 c 128,-1,18
 932 215 932 215 945 229 c 1,19,-1
 945 968 l 1,20,-1
 820 1000 l 1,21,-1
 820 1082 l 1,22,-1
 1106 1139 l 1,23,-1
 1134 1122 l 1,24,-1
 1134 85 l 1,25,-1
 1254 85 l 1,26,-1
 1254 9 l 1,27,28
 1239 1 1239 1 1217 -6.5 c 128,-1,29
 1195 -14 1195 -14 1169.5 -20 c 128,-1,30
 1144 -26 1144 -26 1117.5 -30 c 128,-1,31
 1091 -34 1091 -34 1067 -34 c 0,32,33
 1019 -34 1019 -34 991.5 -13.5 c 128,-1,34
 964 7 964 7 964 52 c 2,35,-1
 964 134 l 1,36,37
 877 55 877 55 781.5 17 c 128,-1,38
 686 -21 686 -21 595 -21 c 0,39,40
 552 -21 552 -21 517 -16 c 128,-1,41
 482 -11 482 -11 453 -2 c 1,42,-1
 453 -373 l 1,0,-1
EndSplineSet
EndChar

StartChar: oe
Encoding: 339 339 149
Width: 2028
Flags: W
LayerCount: 2
Fore
SplineSet
101 582 m 0,0,1
 103 716 103 716 147.5 821.5 c 128,-1,2
 192 927 192 927 265 1000 c 128,-1,3
 338 1073 338 1073 433.5 1112 c 128,-1,4
 529 1151 529 1151 633 1152 c 0,5,6
 714 1153 714 1153 781.5 1134.5 c 128,-1,7
 849 1116 849 1116 903.5 1081.5 c 128,-1,8
 958 1047 958 1047 999 997.5 c 128,-1,9
 1040 948 1040 948 1068 888 c 1,10,11
 1140 1008 1140 1008 1260 1078 c 128,-1,12
 1380 1148 1380 1148 1536 1152 c 0,13,14
 1624 1154 1624 1154 1695 1126.5 c 128,-1,15
 1766 1099 1766 1099 1816 1045 c 128,-1,16
 1866 991 1866 991 1894.5 913 c 128,-1,17
 1923 835 1923 835 1927 736 c 0,18,19
 1929 673 1929 673 1924.5 627 c 128,-1,20
 1920 581 1920 581 1915 545 c 1,21,-1
 1174 545 l 1,22,23
 1174 539 1174 539 1174 533.5 c 128,-1,24
 1174 528 1174 528 1175 522 c 0,25,26
 1179 401 1179 401 1216 322 c 128,-1,27
 1253 243 1253 243 1308.5 196.5 c 128,-1,28
 1364 150 1364 150 1431 131.5 c 128,-1,29
 1498 113 1498 113 1562 113 c 0,30,31
 1601 113 1601 113 1644 117.5 c 128,-1,32
 1687 122 1687 122 1727.5 130.5 c 128,-1,33
 1768 139 1768 139 1802.5 150 c 128,-1,34
 1837 161 1837 161 1858 173 c 1,35,-1
 1895 88 l 1,36,37
 1866 62 1866 62 1819.5 41 c 128,-1,38
 1773 20 1773 20 1718 5.5 c 128,-1,39
 1663 -9 1663 -9 1603 -16.5 c 128,-1,40
 1543 -24 1543 -24 1486 -24 c 0,41,42
 1327 -24 1327 -24 1216 45.5 c 128,-1,43
 1105 115 1105 115 1046 241 c 1,44,45
 1011 179 1011 179 964 130 c 128,-1,46
 917 81 917 81 861 47 c 128,-1,47
 805 13 805 13 741 -5.5 c 128,-1,48
 677 -24 677 -24 608 -24 c 0,49,50
 470 -24 470 -24 373 26 c 128,-1,51
 276 76 276 76 215 160 c 128,-1,52
 154 244 154 244 126.5 353.5 c 128,-1,53
 99 463 99 463 101 582 c 0,0,1
617 88 m 0,54,55
 702 86 702 86 760.5 117 c 128,-1,56
 819 148 819 148 855.5 208.5 c 128,-1,57
 892 269 892 269 908.5 358.5 c 128,-1,58
 925 448 925 448 925 564 c 0,59,60
 925 665 925 665 907.5 752.5 c 128,-1,61
 890 840 890 840 852.5 905 c 128,-1,62
 815 970 815 970 757.5 1007.5 c 128,-1,63
 700 1045 700 1045 621 1047 c 1,64,65
 536 1048 536 1048 476.5 1017.5 c 128,-1,66
 417 987 417 987 379 928 c 128,-1,67
 341 869 341 869 323.5 784 c 128,-1,68
 306 699 306 699 306 591 c 0,69,70
 306 494 306 494 325 404 c 128,-1,71
 344 314 344 314 382 244.5 c 128,-1,72
 420 175 420 175 478.5 132.5 c 128,-1,73
 537 90 537 90 617 88 c 0,54,55
1723 663 m 1,74,75
 1726 714 1726 714 1724.5 765.5 c 128,-1,76
 1723 817 1723 817 1712 863.5 c 128,-1,77
 1701 910 1701 910 1678.5 948.5 c 128,-1,78
 1656 987 1656 987 1618 1011 c 0,79,80
 1592 1028 1592 1028 1559 1036.5 c 128,-1,81
 1526 1045 1526 1045 1484 1045 c 0,82,83
 1428 1045 1428 1045 1375.5 1024 c 128,-1,84
 1323 1003 1323 1003 1281.5 957 c 128,-1,85
 1240 911 1240 911 1212 838.5 c 128,-1,86
 1184 766 1184 766 1176 663 c 1,87,-1
 1723 663 l 1,74,75
EndSplineSet
EndChar

StartChar: OE
Encoding: 338 338 150
Width: 2069
Flags: W
LayerCount: 2
Fore
SplineSet
87 752 m 0,0,1
 91 943 91 943 148.5 1093 c 128,-1,2
 206 1243 206 1243 303 1347 c 128,-1,3
 400 1451 400 1451 528 1507 c 128,-1,4
 656 1563 656 1563 801 1567 c 1,5,6
 882 1568 882 1568 958 1553 c 1,7,-1
 1904 1553 l 1,8,-1
 1933 1267 l 1,9,-1
 1823 1267 l 1,10,-1
 1777 1435 l 1,11,-1
 1249 1448 l 1,12,-1
 1249 867 l 1,13,-1
 1617 874 l 1,14,-1
 1647 1031 l 1,15,-1
 1749 1031 l 1,16,-1
 1749 601 l 1,17,-1
 1647 601 l 1,18,-1
 1617 754 l 1,19,-1
 1249 760 l 1,20,-1
 1249 108 l 1,21,-1
 1809 127 l 1,22,-1
 1909 334 l 1,23,-1
 2006 310 l 1,24,-1
 1961 0 l 1,25,-1
 954 0 l 1,26,27
 910 -13 910 -13 864.5 -19.5 c 128,-1,28
 819 -26 819 -26 771 -28 c 1,29,30
 613 -31 613 -31 485 26.5 c 128,-1,31
 357 84 357 84 267.5 189 c 128,-1,32
 178 294 178 294 131 438 c 128,-1,33
 84 582 84 582 87 752 c 0,0,1
788 77 m 0,34,35
 868 77 868 77 934.5 102.5 c 128,-1,36
 1001 128 1001 128 1055 177 c 1,37,-1
 1055 1350 l 1,38,39
 1001 1402 1001 1402 933.5 1431.5 c 128,-1,40
 866 1461 866 1461 784 1461 c 0,41,42
 674 1461 674 1461 585 1413 c 128,-1,43
 496 1365 496 1365 433.5 1274 c 128,-1,44
 371 1183 371 1183 337 1051.5 c 128,-1,45
 303 920 303 920 303 753 c 0,46,47
 303 622 303 622 335.5 500.5 c 128,-1,48
 368 379 368 379 430 284.5 c 128,-1,49
 492 190 492 190 582 133.5 c 128,-1,50
 672 77 672 77 788 77 c 0,34,35
EndSplineSet
EndChar

StartChar: trademark
Encoding: 8482 8482 170
Width: 2218
Flags: W
LayerCount: 2
Fore
SplineSet
956 854 m 1,0,-1
 1065 869 l 1,1,-1
 1095 1460 l 1,2,-1
 991 1469 l 1,3,-1
 991 1553 l 1,4,-1
 1345 1553 l 1,5,-1
 1501 1127 l 1,6,-1
 1546 974 l 1,7,-1
 1732 1553 l 1,8,-1
 2039 1553 l 1,9,-1
 2039 1469 l 1,10,-1
 1943 1460 l 1,11,-1
 2004 870 l 1,12,-1
 2102 854 l 1,13,-1
 2102 777 l 1,14,-1
 1754 777 l 1,15,-1
 1754 854 l 1,16,-1
 1843 869 l 1,17,-1
 1812 1240 l 1,18,-1
 1803 1461 l 1,19,-1
 1783 1393 l 1,20,-1
 1572 769 l 1,21,-1
 1465 769 l 1,22,-1
 1251 1316 l 1,23,-1
 1195 1466 l 1,24,-1
 1191 1309 l 1,25,-1
 1172 869 l 1,26,-1
 1267 854 l 1,27,-1
 1267 777 l 1,28,-1
 956 777 l 1,29,-1
 956 854 l 1,0,-1
315 854 m 1,30,-1
 436 869 l 1,31,-1
 436 1458 l 1,32,-1
 278 1447 l 1,33,-1
 235 1319 l 1,34,-1
 170 1318 l 1,35,-1
 190 1553 l 1,36,-1
 866 1553 l 1,37,-1
 866 1320 l 1,38,-1
 805 1315 l 1,39,-1
 778 1448 l 1,40,-1
 613 1460 l 1,41,-1
 613 869 l 1,42,-1
 742 854 l 1,43,-1
 742 777 l 1,44,-1
 315 777 l 1,45,-1
 315 854 l 1,30,-1
EndSplineSet
EndChar

StartChar: perthousand
Encoding: 8240 8240 171
Width: 2551
Flags: W
LayerCount: 2
Fore
SplineSet
1074 1601 m 1,0,-1
 1233 1601 l 1,1,-1
 687 0 l 1,2,-1
 528 0 l 1,3,-1
 1074 1601 l 1,0,-1
396 692 m 0,4,5
 325 690 325 690 269 719 c 128,-1,6
 213 748 213 748 174 797.5 c 128,-1,7
 135 847 135 847 114 913.5 c 128,-1,8
 93 980 93 980 93 1053 c 0,9,10
 93 1143 93 1143 120 1211.5 c 128,-1,11
 147 1280 147 1280 193 1327.5 c 128,-1,12
 239 1375 239 1375 299 1400 c 128,-1,13
 359 1425 359 1425 424 1427 c 0,14,15
 503 1430 503 1430 560 1401.5 c 128,-1,16
 617 1373 617 1373 654 1323 c 128,-1,17
 691 1273 691 1273 708.5 1205.5 c 128,-1,18
 726 1138 726 1138 726 1062 c 0,19,20
 726 973 726 973 699 904.5 c 128,-1,21
 672 836 672 836 626 789.5 c 128,-1,22
 580 743 580 743 520.5 718.5 c 128,-1,23
 461 694 461 694 396 692 c 0,4,5
408 795 m 0,24,25
 486 795 486 795 526.5 864 c 128,-1,26
 567 933 567 933 567 1055 c 0,27,28
 567 1116 567 1116 556.5 1165.5 c 128,-1,29
 546 1215 546 1215 526.5 1250.5 c 128,-1,30
 507 1286 507 1286 478 1305.5 c 128,-1,31
 449 1325 449 1325 412 1325 c 0,32,33
 373 1325 373 1325 343.5 1306.5 c 128,-1,34
 314 1288 314 1288 294 1253.5 c 128,-1,35
 274 1219 274 1219 263.5 1170.5 c 128,-1,36
 253 1122 253 1122 253 1061 c 0,37,38
 253 1004 253 1004 263.5 955.5 c 128,-1,39
 274 907 274 907 293.5 871.5 c 128,-1,40
 313 836 313 836 342 815.5 c 128,-1,41
 371 795 371 795 408 795 c 0,24,25
1824 525 m 0,42,43
 1824 615 1824 615 1851 683.5 c 128,-1,44
 1878 752 1878 752 1924 799.5 c 128,-1,45
 1970 847 1970 847 2030 872 c 128,-1,46
 2090 897 2090 897 2155 899 c 0,47,48
 2234 902 2234 902 2291 873.5 c 128,-1,49
 2348 845 2348 845 2385 795 c 128,-1,50
 2422 745 2422 745 2439.5 677.5 c 128,-1,51
 2457 610 2457 610 2457 534 c 0,52,53
 2457 445 2457 445 2430 376.5 c 128,-1,54
 2403 308 2403 308 2357 261.5 c 128,-1,55
 2311 215 2311 215 2251.5 190.5 c 128,-1,56
 2192 166 2192 166 2127 164 c 0,57,58
 2056 162 2056 162 2000 191 c 128,-1,59
 1944 220 1944 220 1905 269.5 c 128,-1,60
 1866 319 1866 319 1845 385.5 c 128,-1,61
 1824 452 1824 452 1824 525 c 0,42,43
1043 525 m 0,62,63
 1043 615 1043 615 1070 683.5 c 128,-1,64
 1097 752 1097 752 1143 799.5 c 128,-1,65
 1189 847 1189 847 1249 872 c 128,-1,66
 1309 897 1309 897 1374 899 c 0,67,68
 1453 902 1453 902 1510 873.5 c 128,-1,69
 1567 845 1567 845 1604 795 c 128,-1,70
 1641 745 1641 745 1658.5 677.5 c 128,-1,71
 1676 610 1676 610 1676 534 c 0,72,73
 1676 445 1676 445 1649 376.5 c 128,-1,74
 1622 308 1622 308 1576 261.5 c 128,-1,75
 1530 215 1530 215 1470.5 190.5 c 128,-1,76
 1411 166 1411 166 1346 164 c 0,77,78
 1275 162 1275 162 1219 191 c 128,-1,79
 1163 220 1163 220 1124 269.5 c 128,-1,80
 1085 319 1085 319 1064 385.5 c 128,-1,81
 1043 452 1043 452 1043 525 c 0,62,63
1984 533 m 0,82,83
 1984 476 1984 476 1994.5 427.5 c 128,-1,84
 2005 379 2005 379 2024.5 343.5 c 128,-1,85
 2044 308 2044 308 2073 287.5 c 128,-1,86
 2102 267 2102 267 2139 267 c 0,87,88
 2217 267 2217 267 2257.5 336 c 128,-1,89
 2298 405 2298 405 2298 527 c 0,90,91
 2298 588 2298 588 2287.5 637.5 c 128,-1,92
 2277 687 2277 687 2257.5 722.5 c 128,-1,93
 2238 758 2238 758 2209 777.5 c 128,-1,94
 2180 797 2180 797 2143 797 c 0,95,96
 2104 797 2104 797 2074.5 778.5 c 128,-1,97
 2045 760 2045 760 2025 725.5 c 128,-1,98
 2005 691 2005 691 1994.5 642.5 c 128,-1,99
 1984 594 1984 594 1984 533 c 0,82,83
1203 533 m 0,100,101
 1203 476 1203 476 1213.5 427.5 c 128,-1,102
 1224 379 1224 379 1243.5 343.5 c 128,-1,103
 1263 308 1263 308 1292 287.5 c 128,-1,104
 1321 267 1321 267 1358 267 c 0,105,106
 1436 267 1436 267 1476.5 336 c 128,-1,107
 1517 405 1517 405 1517 527 c 0,108,109
 1517 588 1517 588 1506.5 637.5 c 128,-1,110
 1496 687 1496 687 1476.5 722.5 c 128,-1,111
 1457 758 1457 758 1428 777.5 c 128,-1,112
 1399 797 1399 797 1362 797 c 0,113,114
 1323 797 1323 797 1293.5 778.5 c 128,-1,115
 1264 760 1264 760 1244 725.5 c 128,-1,116
 1224 691 1224 691 1213.5 642.5 c 128,-1,117
 1203 594 1203 594 1203 533 c 0,100,101
EndSplineSet
EndChar

StartChar: ellipsis
Encoding: 8230 8230 172
Width: 2118
Flags: W
LayerCount: 2
Fore
SplineSet
1627 101 m 0,0,1
 1627 132 1627 132 1640.5 159 c 128,-1,2
 1654 186 1654 186 1675 205.5 c 128,-1,3
 1696 225 1696 225 1722.5 236 c 128,-1,4
 1749 247 1749 247 1776 247 c 0,5,6
 1842 247 1842 247 1872.5 210.5 c 128,-1,7
 1903 174 1903 174 1903 123 c 0,8,9
 1903 90 1903 90 1890 63 c 128,-1,10
 1877 36 1877 36 1856 17.5 c 128,-1,11
 1835 -1 1835 -1 1808 -11.5 c 128,-1,12
 1781 -22 1781 -22 1753 -22 c 0,13,14
 1729 -22 1729 -22 1706 -13.5 c 128,-1,15
 1683 -5 1683 -5 1665.5 10.5 c 128,-1,16
 1648 26 1648 26 1637.5 49 c 128,-1,17
 1627 72 1627 72 1627 101 c 0,0,1
921 101 m 0,18,19
 921 132 921 132 934.5 159 c 128,-1,20
 948 186 948 186 969 205.5 c 128,-1,21
 990 225 990 225 1016.5 236 c 128,-1,22
 1043 247 1043 247 1070 247 c 0,23,24
 1136 247 1136 247 1166.5 210.5 c 128,-1,25
 1197 174 1197 174 1197 123 c 0,26,27
 1197 90 1197 90 1184 63 c 128,-1,28
 1171 36 1171 36 1150 17.5 c 128,-1,29
 1129 -1 1129 -1 1102 -11.5 c 128,-1,30
 1075 -22 1075 -22 1047 -22 c 0,31,32
 1023 -22 1023 -22 1000 -13.5 c 128,-1,33
 977 -5 977 -5 959.5 10.5 c 128,-1,34
 942 26 942 26 931.5 49 c 128,-1,35
 921 72 921 72 921 101 c 0,18,19
215 101 m 0,36,37
 215 132 215 132 228.5 159 c 128,-1,38
 242 186 242 186 263 205.5 c 128,-1,39
 284 225 284 225 310.5 236 c 128,-1,40
 337 247 337 247 364 247 c 0,41,42
 430 247 430 247 460.5 210.5 c 128,-1,43
 491 174 491 174 491 123 c 0,44,45
 491 90 491 90 478 63 c 128,-1,46
 465 36 465 36 444 17.5 c 128,-1,47
 423 -1 423 -1 396 -11.5 c 128,-1,48
 369 -22 369 -22 341 -22 c 0,49,50
 317 -22 317 -22 294 -13.5 c 128,-1,51
 271 -5 271 -5 253.5 10.5 c 128,-1,52
 236 26 236 26 225.5 49 c 128,-1,53
 215 72 215 72 215 101 c 0,36,37
EndSplineSet
EndChar

StartChar: florin
Encoding: 402 402 173
Width: 1063
Flags: W
LayerCount: 2
Fore
SplineSet
399 984 m 1,0,-1
 179 984 l 1,1,-1
 185 1060 l 1,2,-1
 410 1119 l 1,3,-1
 415 1202 l 1,4,5
 421 1276 421 1276 444.5 1341.5 c 128,-1,6
 468 1407 468 1407 504 1461 c 128,-1,7
 540 1515 540 1515 584.5 1557.5 c 128,-1,8
 629 1600 629 1600 677 1629 c 128,-1,9
 725 1658 725 1658 773 1673.5 c 128,-1,10
 821 1689 821 1689 863 1689 c 0,11,12
 897 1689 897 1689 921.5 1687.5 c 128,-1,13
 946 1686 946 1686 962.5 1683.5 c 128,-1,14
 979 1681 979 1681 989 1678 c 128,-1,15
 999 1675 999 1675 1004 1672 c 1,16,-1
 992 1502 l 1,17,18
 978 1510 978 1510 930.5 1521.5 c 128,-1,19
 883 1533 883 1533 811 1533 c 0,20,21
 770 1533 770 1533 737 1526 c 128,-1,22
 704 1519 704 1519 678.5 1493.5 c 128,-1,23
 653 1468 653 1468 636.5 1418.5 c 128,-1,24
 620 1369 620 1369 614 1284 c 2,25,-1
 602 1119 l 1,26,-1
 904 1119 l 1,27,-1
 893 984 l 1,28,-1
 591 984 l 1,29,-1
 489 -356 l 1,30,-1
 297 -356 l 1,31,-1
 399 984 l 1,0,-1
EndSplineSet
EndChar

StartChar: approxequal
Encoding: 8776 8776 174
Width: 1282
Flags: W
LayerCount: 2
Fore
SplineSet
150 983 m 1,0,1
 172 1021 172 1021 208 1055.5 c 128,-1,2
 244 1090 244 1090 289 1116 c 128,-1,3
 334 1142 334 1142 385.5 1157.5 c 128,-1,4
 437 1173 437 1173 492 1173 c 0,5,6
 531 1173 531 1173 563 1160.5 c 128,-1,7
 595 1148 595 1148 622 1129.5 c 128,-1,8
 649 1111 649 1111 673 1089.5 c 128,-1,9
 697 1068 697 1068 721 1049.5 c 128,-1,10
 745 1031 745 1031 770 1018.5 c 128,-1,11
 795 1006 795 1006 824 1006 c 0,12,13
 858 1006 858 1006 889 1016 c 128,-1,14
 920 1026 920 1026 946.5 1041 c 128,-1,15
 973 1056 973 1056 995.5 1074 c 128,-1,16
 1018 1092 1018 1092 1036 1109 c 1,17,-1
 1108 1020 l 1,18,19
 1085 982 1085 982 1049.5 947.5 c 128,-1,20
 1014 913 1014 913 969 886.5 c 128,-1,21
 924 860 924 860 872.5 844.5 c 128,-1,22
 821 829 821 829 766 829 c 0,23,24
 727 829 727 829 695 841.5 c 128,-1,25
 663 854 663 854 636 872.5 c 128,-1,26
 609 891 609 891 585 913 c 128,-1,27
 561 935 561 935 537.5 953.5 c 128,-1,28
 514 972 514 972 488.5 984.5 c 128,-1,29
 463 997 463 997 434 997 c 0,30,31
 399 997 399 997 368.5 987 c 128,-1,32
 338 977 338 977 311.5 962 c 128,-1,33
 285 947 285 947 262.5 928.5 c 128,-1,34
 240 910 240 910 222 894 c 1,35,-1
 150 983 l 1,0,1
164 593 m 1,36,37
 186 631 186 631 222 665.5 c 128,-1,38
 258 700 258 700 303 726 c 128,-1,39
 348 752 348 752 399.5 767.5 c 128,-1,40
 451 783 451 783 506 783 c 0,41,42
 545 783 545 783 577 770.5 c 128,-1,43
 609 758 609 758 636 739.5 c 128,-1,44
 663 721 663 721 687 699.5 c 128,-1,45
 711 678 711 678 735 659.5 c 128,-1,46
 759 641 759 641 784 628.5 c 128,-1,47
 809 616 809 616 838 616 c 0,48,49
 872 616 872 616 903 626 c 128,-1,50
 934 636 934 636 960.5 651 c 128,-1,51
 987 666 987 666 1009.5 684 c 128,-1,52
 1032 702 1032 702 1050 719 c 1,53,-1
 1122 630 l 1,54,55
 1099 592 1099 592 1063.5 557.5 c 128,-1,56
 1028 523 1028 523 983 496.5 c 128,-1,57
 938 470 938 470 886.5 454.5 c 128,-1,58
 835 439 835 439 780 439 c 0,59,60
 741 439 741 439 709 451.5 c 128,-1,61
 677 464 677 464 650 482.5 c 128,-1,62
 623 501 623 501 599 523 c 128,-1,63
 575 545 575 545 551.5 563.5 c 128,-1,64
 528 582 528 582 502.5 594.5 c 128,-1,65
 477 607 477 607 448 607 c 0,66,67
 413 607 413 607 382.5 597 c 128,-1,68
 352 587 352 587 325.5 572 c 128,-1,69
 299 557 299 557 276.5 538.5 c 128,-1,70
 254 520 254 520 236 504 c 1,71,-1
 164 593 l 1,36,37
EndSplineSet
EndChar

StartChar: Delta
Encoding: 916 916 175
AltUni2: 002206.ffffffff.0
Width: 1770
Flags: W
LayerCount: 2
Fore
SplineSet
836 1516 m 1,0,-1
 868 1516 l 1,1,-1
 1621 27 l 1,2,-1
 1605 1 l 1,3,-1
 162 1 l 1,4,-1
 148 22 l 1,5,-1
 836 1516 l 1,0,-1
1355 120 m 1,6,-1
 815 1213 l 1,7,-1
 317 120 l 1,8,-1
 1355 120 l 1,6,-1
EndSplineSet
EndChar

StartChar: lessequal
Encoding: 8804 8804 176
Width: 1324
Flags: W
LayerCount: 2
Fore
SplineSet
178 1020 m 1,0,-1
 1146 1443 l 1,1,-1
 1146 1271 l 1,2,-1
 416 977 l 1,3,-1
 1146 680 l 1,4,-1
 1146 508 l 1,5,-1
 178 937 l 1,6,-1
 178 1020 l 1,0,-1
178 324 m 1,7,-1
 1146 324 l 1,8,-1
 1146 177 l 1,9,-1
 178 177 l 1,10,-1
 178 324 l 1,7,-1
EndSplineSet
EndChar

StartChar: greaterequal
Encoding: 8805 8805 177
Width: 1324
Flags: W
LayerCount: 2
Fore
SplineSet
178 680 m 1,0,-1
 908 977 l 1,1,-1
 178 1271 l 1,2,-1
 178 1443 l 1,3,-1
 1146 1020 l 1,4,-1
 1146 937 l 1,5,-1
 178 508 l 1,6,-1
 178 680 l 1,0,-1
178 324 m 1,7,-1
 1146 324 l 1,8,-1
 1146 177 l 1,9,-1
 178 177 l 1,10,-1
 178 324 l 1,7,-1
EndSplineSet
EndChar

StartChar: notequal
Encoding: 8800 8800 178
Width: 1241
Flags: W
LayerCount: 2
Fore
SplineSet
456 525 m 1,0,-1
 178 525 l 1,1,-1
 178 672 l 1,2,-1
 502 672 l 1,3,-1
 569 914 l 1,4,-1
 178 914 l 1,5,-1
 178 1061 l 1,6,-1
 613 1061 l 1,7,-1
 665 1239 l 1,8,-1
 839 1239 l 1,9,-1
 787 1061 l 1,10,-1
 1063 1061 l 1,11,-1
 1063 914 l 1,12,-1
 743 914 l 1,13,-1
 676 672 l 1,14,-1
 1063 672 l 1,15,-1
 1063 525 l 1,16,-1
 632 525 l 1,17,-1
 582 354 l 1,18,-1
 408 354 l 1,19,-1
 456 525 l 1,0,-1
EndSplineSet
EndChar

StartChar: fraction
Encoding: 8260 8260 179
Width: 885
Flags: W
LayerCount: 2
Fore
SplineSet
765 1881 m 1,0,-1
 895 1844 l 1,1,-1
 122 -343 l 1,2,-1
 -10 -312 l 1,3,-1
 765 1881 l 1,0,-1
EndSplineSet
EndChar

StartChar: lozenge
Encoding: 9674 9674 180
Width: 1415
Flags: W
LayerCount: 2
Fore
SplineSet
188 691 m 1,0,-1
 188 745 l 1,1,-1
 619 1416 l 1,2,-1
 806 1416 l 1,3,-1
 1227 725 l 1,4,-1
 1227 671 l 1,5,-1
 796 0 l 1,6,-1
 609 0 l 1,7,-1
 188 691 l 1,0,-1
1056 679 m 1,8,-1
 699 1290 l 1,9,-1
 359 736 l 1,10,-1
 715 126 l 1,11,-1
 1056 679 l 1,8,-1
EndSplineSet
EndChar

StartChar: Omega
Encoding: 937 937 181
AltUni2: 002126.ffffffff.0
Width: 1948
Flags: W
LayerCount: 2
Fore
SplineSet
142 361 m 1,0,-1
 241 368 l 1,1,-1
 274 182 l 1,2,-1
 614 182 l 1,3,4
 551 221 551 221 487.5 284 c 128,-1,5
 424 347 424 347 373 429.5 c 128,-1,6
 322 512 322 512 291 611.5 c 128,-1,7
 260 711 260 711 262 822 c 0,8,9
 264 948 264 948 293 1051 c 128,-1,10
 322 1154 322 1154 371 1235.5 c 128,-1,11
 420 1317 420 1317 487 1376.5 c 128,-1,12
 554 1436 554 1436 632 1475.5 c 128,-1,13
 710 1515 710 1515 796.5 1534 c 128,-1,14
 883 1553 883 1553 972 1553 c 0,15,16
 1119 1553 1119 1553 1242.5 1507.5 c 128,-1,17
 1366 1462 1366 1462 1455 1373.5 c 128,-1,18
 1544 1285 1544 1285 1592.5 1155.5 c 128,-1,19
 1641 1026 1641 1026 1638 858 c 0,20,21
 1636 765 1636 765 1604.5 667.5 c 128,-1,22
 1573 570 1573 570 1523.5 479.5 c 128,-1,23
 1474 389 1474 389 1412 311.5 c 128,-1,24
 1350 234 1350 234 1288 182 c 1,25,-1
 1636 182 l 1,26,-1
 1706 399 l 1,27,-1
 1805 392 l 1,28,-1
 1759 0 l 1,29,-1
 1079 0 l 1,30,-1
 1079 166 l 1,31,32
 1156 212 1156 212 1219 279.5 c 128,-1,33
 1282 347 1282 347 1327 435 c 128,-1,34
 1372 523 1372 523 1396.5 629 c 128,-1,35
 1421 735 1421 735 1421 857 c 0,36,37
 1421 1014 1421 1014 1382.5 1129.5 c 128,-1,38
 1344 1245 1344 1245 1280 1321 c 128,-1,39
 1216 1397 1216 1397 1132 1434 c 128,-1,40
 1048 1471 1048 1471 958 1471 c 0,41,42
 851 1471 851 1471 762.5 1430 c 128,-1,43
 674 1389 674 1389 610.5 1307.5 c 128,-1,44
 547 1226 547 1226 512 1104.5 c 128,-1,45
 477 983 477 983 477 823 c 0,46,47
 477 700 477 700 511.5 594.5 c 128,-1,48
 546 489 546 489 600 405 c 128,-1,49
 654 321 654 321 719 260.5 c 128,-1,50
 784 200 784 200 844 166 c 1,51,-1
 844 0 l 1,52,-1
 142 0 l 1,53,-1
 142 361 l 1,0,-1
EndSplineSet
EndChar

StartChar: radical
Encoding: 8730 8730 182
Width: 1770
Flags: W
LayerCount: 2
Fore
SplineSet
180 579 m 1,0,-1
 361 708 l 1,1,-1
 530 708 l 1,2,-1
 865 -147 l 1,3,-1
 873 -147 l 1,4,-1
 1506 1920 l 1,5,-1
 1669 1920 l 1,6,-1
 950 -354 l 1,7,-1
 773 -354 l 1,8,-1
 385 555 l 1,9,-1
 259 463 l 1,10,-1
 180 579 l 1,0,-1
EndSplineSet
EndChar

StartChar: summation
Encoding: 8721 8721 183
Width: 1592
Flags: W
LayerCount: 2
Fore
SplineSet
769 677 m 1,0,-1
 208 1472 l 1,1,-1
 214 1553 l 1,2,-1
 1291 1553 l 1,3,-1
 1324 1228 l 1,4,-1
 1221 1228 l 1,5,-1
 1164 1435 l 1,6,-1
 425 1449 l 1,7,-1
 971 708 l 1,8,-1
 418 -79 l 1,9,-1
 1176 -50 l 1,10,-1
 1276 157 l 1,11,-1
 1373 133 l 1,12,-1
 1328 -180 l 1,13,-1
 224 -179 l 1,14,-1
 208 -147 l 1,15,-1
 769 677 l 1,0,-1
EndSplineSet
EndChar

StartChar: integral
Encoding: 8747 8747 184
Width: 1063
Flags: W
LayerCount: 2
Fore
SplineSet
130 -234 m 1,0,1
 135 -255 135 -255 151 -276 c 128,-1,2
 167 -297 167 -297 190.5 -314 c 128,-1,3
 214 -331 214 -331 244 -341.5 c 128,-1,4
 274 -352 274 -352 306 -352 c 0,5,6
 375 -352 375 -352 417.5 -332 c 128,-1,7
 460 -312 460 -312 483 -271 c 128,-1,8
 506 -230 506 -230 514 -167.5 c 128,-1,9
 522 -105 522 -105 522 -19 c 0,10,11
 522 134 522 134 498 286.5 c 128,-1,12
 474 439 474 439 444.5 591 c 128,-1,13
 415 743 415 743 391 895 c 128,-1,14
 367 1047 367 1047 367 1199 c 0,15,16
 367 1303 367 1303 396 1396.5 c 128,-1,17
 425 1490 425 1490 480 1560.5 c 128,-1,18
 535 1631 535 1631 613 1672 c 128,-1,19
 691 1713 691 1713 789 1713 c 0,20,21
 815 1713 815 1713 853.5 1708 c 128,-1,22
 892 1703 892 1703 931.5 1687.5 c 128,-1,23
 971 1672 971 1672 1007 1643 c 128,-1,24
 1043 1614 1043 1614 1064 1566 c 1,25,-1
 934 1475 l 1,26,27
 929 1496 929 1496 913 1517 c 128,-1,28
 897 1538 897 1538 873.5 1555 c 128,-1,29
 850 1572 850 1572 820 1582.5 c 128,-1,30
 790 1593 790 1593 758 1593 c 0,31,32
 689 1593 689 1593 646.5 1573 c 128,-1,33
 604 1553 604 1553 581 1512 c 128,-1,34
 558 1471 558 1471 550 1408.5 c 128,-1,35
 542 1346 542 1346 542 1260 c 0,36,37
 542 1107 542 1107 566 955 c 128,-1,38
 590 803 590 803 619.5 651 c 128,-1,39
 649 499 649 499 673 347 c 128,-1,40
 697 195 697 195 697 42 c 0,41,42
 697 -62 697 -62 668 -155.5 c 128,-1,43
 639 -249 639 -249 584 -319.5 c 128,-1,44
 529 -390 529 -390 451 -431 c 128,-1,45
 373 -472 373 -472 275 -472 c 0,46,47
 249 -472 249 -472 210.5 -467 c 128,-1,48
 172 -462 172 -462 132.5 -446.5 c 128,-1,49
 93 -431 93 -431 57 -402 c 128,-1,50
 21 -373 21 -373 0 -325 c 1,51,-1
 130 -234 l 1,0,1
EndSplineSet
EndChar

StartChar: pi
Encoding: 960 960 185
Width: 1592
Flags: W
LayerCount: 2
Fore
SplineSet
182 114 m 1,0,1
 188 115 188 115 204.5 120.5 c 128,-1,2
 221 126 221 126 242 135 c 128,-1,3
 263 144 263 144 287 155.5 c 128,-1,4
 311 167 311 167 332 182 c 0,5,6
 376 212 376 212 403 244.5 c 128,-1,7
 430 277 430 277 446 314.5 c 128,-1,8
 462 352 462 352 468.5 395 c 128,-1,9
 475 438 475 438 478 489 c 2,10,-1
 499 926 l 1,11,-1
 439 926 l 2,12,13
 410 926 410 926 381 919 c 128,-1,14
 352 912 352 912 327.5 899 c 128,-1,15
 303 886 303 886 284.5 867 c 128,-1,16
 266 848 266 848 257 825 c 1,17,-1
 153 838 l 1,18,19
 150 853 150 853 152 881 c 128,-1,20
 154 909 154 909 167 935 c 0,21,22
 212 1025 212 1025 291.5 1072 c 128,-1,23
 371 1119 371 1119 474 1119 c 2,24,-1
 1137 1119 l 2,25,26
 1204 1119 1204 1119 1254.5 1142 c 128,-1,27
 1305 1165 1305 1165 1336 1226 c 1,28,-1
 1440 1226 l 1,29,30
 1435 1157 1435 1157 1409.5 1102.5 c 128,-1,31
 1384 1048 1384 1048 1342 1009 c 128,-1,32
 1300 970 1300 970 1243.5 948.5 c 128,-1,33
 1187 927 1187 927 1122 925 c 1,34,-1
 1089 261 l 1,35,36
 1089 229 1089 229 1094 209.5 c 128,-1,37
 1099 190 1099 190 1106.5 180 c 128,-1,38
 1114 170 1114 170 1123 167 c 128,-1,39
 1132 164 1132 164 1139 164 c 0,40,41
 1161 164 1161 164 1185.5 173 c 128,-1,42
 1210 182 1210 182 1232 198.5 c 128,-1,43
 1254 215 1254 215 1271.5 237 c 128,-1,44
 1289 259 1289 259 1299 286 c 1,45,-1
 1408 286 l 1,46,47
 1397 242 1397 242 1369 188.5 c 128,-1,48
 1341 135 1341 135 1298.5 87.5 c 128,-1,49
 1256 40 1256 40 1202 8 c 128,-1,50
 1148 -24 1148 -24 1086 -24 c 0,51,52
 1035 -24 1035 -24 1007.5 4 c 128,-1,53
 980 32 980 32 968 75.5 c 128,-1,54
 956 119 956 119 955.5 173 c 128,-1,55
 955 227 955 227 958 280 c 2,56,-1
 999 925 l 1,57,-1
 618 926 l 1,58,-1
 598 430 l 1,59,60
 592 344 592 344 583.5 286 c 128,-1,61
 575 228 575 228 560.5 186.5 c 128,-1,62
 546 145 546 145 523 114 c 128,-1,63
 500 83 500 83 466 52 c 0,64,65
 437 25 437 25 401.5 6.5 c 128,-1,66
 366 -12 366 -12 326 -24 c 1,67,-1
 182 114 l 1,0,1
EndSplineSet
EndChar

StartChar: product
Encoding: 8719 8719 186
Width: 1415
Flags: W
LayerCount: 2
Fore
SplineSet
200 -61 m 1,0,-1
 200 1438 l 1,1,-1
 35 1456 l 1,2,-1
 35 1553 l 1,3,-1
 1380 1553 l 1,4,-1
 1380 1456 l 1,5,-1
 1215 1438 l 1,6,-1
 1215 -61 l 1,7,-1
 1384 -92 l 1,8,-1
 1384 -177 l 1,9,-1
 848 -177 l 1,10,-1
 848 -92 l 1,11,-1
 1020 -61 l 1,12,-1
 1020 1448 l 1,13,-1
 395 1448 l 1,14,-1
 395 -61 l 1,15,-1
 567 -92 l 1,16,-1
 567 -177 l 1,17,-1
 31 -177 l 1,18,-1
 31 -92 l 1,19,-1
 200 -61 l 1,0,-1
EndSplineSet
EndChar

StartChar: partialdiff
Encoding: 8706 8706 187
Width: 1241
Flags: W
LayerCount: 2
Fore
SplineSet
63 411 m 0,0,1
 63 502 63 502 89.5 583 c 128,-1,2
 116 664 116 664 162.5 732.5 c 128,-1,3
 209 801 209 801 274 855.5 c 128,-1,4
 339 910 339 910 416 948 c 128,-1,5
 493 986 493 986 579.5 1006.5 c 128,-1,6
 666 1027 666 1027 756 1027 c 0,7,8
 879 1027 879 1027 995 989 c 1,9,10
 991 1069 991 1069 979.5 1145 c 128,-1,11
 968 1221 968 1221 945 1287.5 c 128,-1,12
 922 1354 922 1354 886 1409.5 c 128,-1,13
 850 1465 850 1465 797.5 1505 c 128,-1,14
 745 1545 745 1545 675 1567 c 128,-1,15
 605 1589 605 1589 513 1589 c 0,16,17
 432 1589 432 1589 353 1570 c 128,-1,18
 274 1551 274 1551 203 1504 c 1,19,-1
 139 1583 l 1,20,21
 181 1613 181 1613 233.5 1637 c 128,-1,22
 286 1661 286 1661 345 1677.5 c 128,-1,23
 404 1694 404 1694 465.5 1702.5 c 128,-1,24
 527 1711 527 1711 587 1711 c 0,25,26
 699 1711 699 1711 786.5 1684 c 128,-1,27
 874 1657 874 1657 939.5 1608.5 c 128,-1,28
 1005 1560 1005 1560 1050.5 1492.5 c 128,-1,29
 1096 1425 1096 1425 1124.5 1343.5 c 128,-1,30
 1153 1262 1153 1262 1165.5 1168.5 c 128,-1,31
 1178 1075 1178 1075 1178 976 c 0,32,33
 1178 870 1178 870 1165.5 754.5 c 128,-1,34
 1153 639 1153 639 1123 528 c 128,-1,35
 1093 417 1093 417 1043.5 317 c 128,-1,36
 994 217 994 217 921 141 c 128,-1,37
 848 65 848 65 748.5 20.5 c 128,-1,38
 649 -24 649 -24 519 -24 c 0,39,40
 420 -24 420 -24 336.5 7.5 c 128,-1,41
 253 39 253 39 192 96.5 c 128,-1,42
 131 154 131 154 97 234 c 128,-1,43
 63 314 63 314 63 411 c 0,0,1
250 468 m 0,44,45
 250 392 250 392 275.5 324.5 c 128,-1,46
 301 257 301 257 346.5 206 c 128,-1,47
 392 155 392 155 455.5 125.5 c 128,-1,48
 519 96 519 96 596 96 c 0,49,50
 664 96 664 96 718 119 c 128,-1,51
 772 142 772 142 813 182 c 128,-1,52
 854 222 854 222 883.5 275.5 c 128,-1,53
 913 329 913 329 933 390 c 128,-1,54
 953 451 953 451 965.5 517 c 128,-1,55
 978 583 978 583 985 647 c 0,56,57
 990 689 990 689 992 728.5 c 128,-1,58
 994 768 994 768 995 805 c 1,59,60
 927 854 927 854 846.5 879.5 c 128,-1,61
 766 905 766 905 682 905 c 0,62,63
 600 905 600 905 522.5 878 c 128,-1,64
 445 851 445 851 384.5 796.5 c 128,-1,65
 324 742 324 742 287 660 c 128,-1,66
 250 578 250 578 250 468 c 0,44,45
EndSplineSet
EndChar

